<mxfile host="app.diagrams.net" agent="Mozilla/5.0 (Windows NT 10.0; Win64; x64) AppleWebKit/537.36 (KHTML, like Gecko) Chrome/132.0.0.0 Safari/537.36 Edg/132.0.0.0" version="26.0.10">
  <diagram name="Page-1" id="3JR7PG3e3NnnOnQgBH8C">
    <mxGraphModel dx="3930" dy="1205" grid="1" gridSize="10" guides="1" tooltips="1" connect="1" arrows="1" fold="1" page="1" pageScale="1" pageWidth="827" pageHeight="1169" math="0" shadow="0">
      <root>
        <mxCell id="0" />
        <mxCell id="1" parent="0" />
        <mxCell id="-BY8og7d7RIhDKnmFJPZ-23" value="" style="group" vertex="1" connectable="0" parent="1">
          <mxGeometry x="-980" y="510" width="1986.6100000000001" height="535" as="geometry" />
        </mxCell>
        <mxCell id="MBGT6i08vJ9F1OoKceW--2" value="" style="shape=image;verticalLabelPosition=bottom;labelBackgroundColor=default;verticalAlign=top;aspect=fixed;imageAspect=0;image=data:image/png,iVBORw0KGgoAAAANSUhEUgAABn8AAAIXCAYAAABdMEtOAAAABHNCSVQICAgIfAhkiAAAAAlwSFlzAAAuIwAALiMBeKU/dgAAABl0RVh0U29mdHdhcmUAd3d3Lmlua3NjYXBlLm9yZ5vuPBoAACAASURBVHic7N13nFTV/f/x12ynWhALKqiggAU7xhIhlli/tmi+UUM0iTGWNGPPzyjGRARjiYotxhLFaNToV0MSFVSCHcReQJAqvezCLgvL7s7vj3Nn9+4ws41ld4HX8/GYx9y95557z50ZEOe9n3NAkiRJkiRJkiRJkiRJkiRJkiRJkiRJkiRJkiRJkiRJkiRJkiRJkiRJkiRJkiRJkiRJkiRJkiRJkiRJkiRJkiRJkiRJkiRJkiRJkiRJkiRJkiRJkiRJkiRJkiRJkiRJkiRJkiRJkiRJkiRJkiRJkiRJkiRJkiRJkiRJkiRJkiRJkiRJkiRJkiRJkiRJkiRJkiRJkiRJkiRJkiRJkiRJkiRJkiRJkiRJkiRJkiRJkiRJkiRJkiRJkiRJkiRJkiRJkiRJkiRJkiRJkiRJkiRJkiRJkiRJkiRJkiRJkiRJkiRJkiRJkiRJkiRJkiRJkiRJkiRJkiRJkiRJkiRJkiRJkiRJkiRJkiRJkiRJkiRJkiRJkiRJkiRJkiRJkiRJkiRJkiRJkiRJkiRJkiRJkiRJkiRJkiRJkiRJkiRJkiRJkiRJkiRJkiRJkiRJkiRJkiRJkiRJkiRJkiRJkiRJkiRJkiRJkiRJkiRJkiRJkiRJkiRJkiRJkiRJkiRJkiRJkiRJkiRJkiRJkiRJkiRJkiRJkiRJkiRJkiRJkiRJkiRJkiRJkiRJkiRJkiRJkiRJkiRJkiRJkiRJkiRJkiRJkiRJkiRJkiRJkiRJkiRJkiRJkiRJkiRJkiRJkiRJkiRJkiRJkiRJkiRJkiRJkiRJkiRJkiRJkiRJkiRJkiRJkiRJkiRJkiRJkiRJkiRJkiRJkiRJkiRJkiRJkiRJkiRtIvKAfYDTgBOB7k3svy1wQtR3iyb0SwD7AqcDB0c/r2/9gD8Bs7O03w1MAY5thbFIkiRJkiRJkqRNxL7A48A8IBk9xjfQ51pgXOz4ucCTwAEN9DscmB7rlwQqgOFATgN9C4E/AiXA08Az0fbVNBzkDADeAqYBDwIfAp8C+zXQr7kOAsYA1YR7XJPhmO7Uvgb/Wk/jkCRJkiRJkiRJm7COwH+oDST6N3B8ApgFfAFs1ojzDwRKgTeAB4AXgcrY9f5fPX3zo+NXAYfG9p8EVAG31dP3AGAF8CrQKdqXA/wTWA7s34ixN1VXQlj1JNnDnwTwKLCQUAUlSZIkSZIkSZLU4oZQG8bc0sCxuYQwZ0gjzpsPvAsck7b/IEL1ThJYCRRl6X9ldMzNGdr+GbWdlOW6UwghU5+0tp2j/V8CHRq8g+a5jOzhjyRJkiRJkiRJ0no3ClhACCwWEapXsukLlANdGnHeE8m+rs3l1AZOu2do3woojtozVemcHrXNJKwnFPeLqO2dLNceS8NVR+viQgx/JEmSJEmSJElSG8khTEF2CrVhzHfrOf6nhGni1tXB0bVWE6ZLS3dd1F5CqDZKtwO1441X/+QCX0f7/5jl2n+gNjjKdO51dQ6GP5IkSdI6aWhxUEmSJElSdgOBZcBz1FbK/KSe448D/t0C102FLo8R1uBJd3r0/BFhfZ90c4D5accCHAL0iLYnZbn2xOi5J+H+W8Jm1N5TshHH51H/tHOZKqs61nN8IksfSZIkaYNk+CNJkiRJzRcPcx6Ino9k7bVyAAqAI2iZ8OfbwFTg0gxtm1M7Fdzses4xJ3o+MLbv0Nh2tr5zYtsHZjmmMbYG7gUWA28Cc4GXgf719NkZuDEaw1VpbfnAGcAYQjVWat8VhCqlMmAe8ONYn+7AQ4R1mJYT1jo6qrk3JEmSJEmSJEmSNnzvAsdE250J06wlCVOjpTsC+KoFrrk38DGh8iaTvaid0m1EPecZEx1TRW3Vzd2xvrtk6bdb7Jh7mzLwmP6EyqO3ge2jfZ2Bh2Pnjk/7lgAeifqk2q+PtZ8AvBXdSxJYRajkeQV4CXiUEPwkgWrgeKAfMAt4lVC5tSRqLwd2auZ9SZIkSZIkSZKkDdhWhIqR+PRj9xMChHmEqpO4m4G71uF6hcAFhAqViuhcm2c47lvUBiS/red8/4gdt2W076nYvq2y9Ns2dswTTbqDoAswnfAabZnWlg98TvY1f7ahNuC5PkN76vWviLb3jbX1ABZE7e8A/wL2jLXvQnhtk8CwptyQJEmS1N447ZskSZIkNc+xwDhCpUjKn6PnbQnVJXHH0/wp375NqGC5gxCe5AMXE6ZJ2yzt2HhoU052idh25+i5WyP6ZurXFEMJlTX3AUvT2tYAf6un7wJC4JbNtOg5AVwNvB9rmws8G23vAnwP+CTW/hXh/QQYUM81JEmSpHbP8EeSJEmSmie+3k/KBGoDh/Ni+3cEelMbLjTVS8AgQuXLZYTp5QAOAP5f2rHVse0E2XWMbRdn6NuUfo3VBfhJtD02yzEzGjhHWT1tqWCoijCNW7rUekWrCFU+6eZFz+mBmiRJkrRBMfyRJEmSpKbLAY4C/pOh7S/R83HUrstzPCH4qa9qpTGWAbcA36A2BDmfuiFPSWw707RwKZ2i59XUBiHxQGSLBvoBLI6e8wivR7ZH9+i4QYQACMJ6O82xsp62+iqdIEwH15j2vMYPR5IkSWp/DH8kSZIkqekOJIQsUzO0PUYIKHKBc6J9maqE1sUXwA3R9mbAdrG2+JiyBThQG+IsjO37Mradvh5Pej8I07Cl9r1cz+OQ6LjdY30bCmKySTazTZIkSdpkGP5IkiRJUtPVF+aUAM9E2z8BOgBH1HN8c42KbccrVWZSO+VZtgAHoFf0PCm2L75GTra+vWLbqb7VhDVzsj1SVUrx4Ki+YEqSJEnSOjD8kSRJkqSma6iS58/R847A9YTp0Sa38BjmAGsIU8nNi+1PAv+Ktvtn6bsdteFL/D5ejM4J0C9L31T1ThkwPtpeQVjTKNtjTHTc0th59spy/pQc6l+zSJIkSVIWhj+SJEmS1DTdgQGENXyyGU+Ymg3g12ReG2hdbQ/kAy9QG9ikpNYd2p3M6/7sGT0XA3+P7V9GbdXSIWSW6pua3q4pJsa2T2/g2BygsInnlyRJkoThjyRJkiQ11amEYKe8geMeiJ5zqa3EaUk/BFZRu/ZP3DjgFcJ0cCdlaD8ler6JEPjE/YEQJp3A2uFLZ+BoQtXP9c0Y81vUrit0GmE6vHTx/0/tkKG9IHrOz9CW2pdL5qqh1LnzMrTF2zOdW5IkSZIkSZIkbaTeAf7WiOO6A6sJAU2nBo7N5FLgE2A4YZq2uNMJU619r57+OxPWH/qI2sAEYDdgOaEKpyhL3/9HmD7ul2n7b4j2X9zw8LM6BqiKzlNMuJdUUPMt4OuoLXX9b8bGnwtURG0PZjj30Fjf7hnab4zaKsgcDv01ap+XoU2SJEmSJEmSJG1EtiZUwjxMCAfmAt8nBCz1eRJ4uZnXfJraIGMV8H/APcAbhEBnUCPOcRCwiLCuz9GEaqFZhLV9tqqnXwK4ObrulYRQ5k+E0OgXTb+VtZwbnTt1fwuBr4APqQ2ekoTw6yJCBdK+wLBY22LgDGBbYEvC+zM91n43ITjKA3YATgRmx9pvAvaP7rUn8F1CFVQSqAZ+A+zRAvcqSZIktToXz5QkSZKkhu0F9Muw/3NCQJHNIGAX4KFmXLMLIazZhzDdWikwkzCd2xuEgKIxNgfOA/YGlgCjaXwgNZBQXbQN8CnhPlqqKmZX4HzCukTl0ZgeIrxmPyBMmxdfV+lYwmuS7hPC2kMDs1znBaA/0CdL+9OE9Y16ZGhbBLxWzz1IkiRJkiRJkiRJkiRJkiRJkiRJkiRJkiRJkiRJkiRJkqRNT7tY8yf/pv4/IIcftvU4JDUskWRCxZWfX9HW41ArGDo4r6DDglnA68lEckxuIvnyqssnT2/rYUmSJEmSJEmqX15bDwAgkUjuTDIxuK3HIakRklS09RDUqrYDzkgkE2dUJxMUDN/9K6gel0wmXsvLz321/NJPZrf1ACVJkiRJkiTV1S7Cn5Rnv3M3R+50SFsPQ1IGpRUr6XGnfz43Rbtv1Yche57CuFnv8vqciTuXVqzcJZHgh1WVVRSO2GN6srr61WSC1/Lycl8zDJIkSZIkSZLaXrsKf/Jz8ijMLWjrYUjKoCJ3TVsPQW2kW4fN+fXAH/HrgT+iKlmV+HDBF7z59STenDOJsTPf3Kl41YofJeBHVZVVFAzvPw+niZMkSZIkSZLaVLsKfyRJ7VtuIpf9tt2D/bbdg5/tPyRTGLRt8aoVsWniDIMkSZIkSZKk1mb4I0lqNsMgSZIkSZIkqf0x/JEktRjDIEnSRiYBHAh8CpSltRUB+wKTgNWtPK72bl9gBrCsjccB0BXYFXivGX13B5YC89P2pz4XU4DidRqdJEmStJ4Y/kiS1puGwqAxM97YtmR1aeYwqIqXVl39xYy2vgdJUqvJA/4CnNPWAwE2J4zjAqAfsAfwWdoxzwHHAKOBE9fzeLoAxzaz70JgXAuOJZsuwNmE12xv4FvAa61w3Wz2jcZyFvA+cHgj+xUCZ0R9DyXc0+Npx9wEXAFMJ3w+KlpgvJIkSVKLMvyRJLWaJoVBORgGSdKm5RTgB4QA6L9tOI5+wDWEsGDHeo7rEz3vtt5HBGuAWYRKlOFA92j/x8CCDMcXAn2BrYE3CSHG+tQL+ANwELWvS1u6GDgCOJVQpdNYXYCRhPBqQD3H9Y6edwA6YPgjSZKkdsjwR5LUZgyDJEkxP4+eL6Jtw58vgO8DZ7J2xUfcWdFxj7bCmFYB70SP3YCrov03Ak9k6ZMP3A58c72PDmYSXosjgTGtcL2GjIwerwGDmtBvBSGA7M/alV5xvwbmAK8AJc0boiRJkrR+Gf5IktoNwyBJ2mTtTe20XKcB2wHz2m44QOaKmrh3o0dr+7qRx60BriRU/rSWhl6z1pa+Vk9jNXQfs4BfNfPckiRJUqsw/JEktVuGQZK0yfgZUAp0JlSsnA9c36YjgpVtfP1sVjXh2FLgrfU1kAza22tW1sx+7e0+JEmSpCYz/JEkbTAMgyRpo9QNOJsQ+Nwe/Xw+YUqzNW04rqaELO3ZT1vxWu3tNVvdzH7t7T4kSZKkJjP8kSRtsAyDJGmj8GNgEWHtmgHA5UAP4BTgqXr6bQbkxH5eQ6h0Sdki7fhysn+pn0NYG6cfoVpkYiPHflA01mfrOaZzdO6esXN/0cjzr4v9gBnA0iztfQhT7T0Y/VwIHBLt/5S1p4vbAjgG6EKoJvqkkeMojPr1INz3eKCqgT49Ca9ZN2AhYR2hxQ302RI4CugOTAfeAJKNHOO+wD6E/z/+AJjQiD67El6/v2Ro6wh8h3CvM6J9B0TXmQ/8G6hs4Px7RX3yCdPMvUFYk6g+u0R9igjvzyeE9/RtDLQkSZI2OYY/kqSNhmGQJG1wcoGLgLsJX4bfA1xKCGMupv7w56fA0YQv/AFeAE6KtV8OHEf4Uh/gMuCWDOf5JiEAKQOeJ4Qc9wDvZLluZ+As4ALCl/nPkTn8yQF+A1wIvAjMjcZ6EDAuGv/keu5vXZ0F3E/d8CeP8BpdEI1lOuHeDwf+DOwWO/YJQkVWdXQPfySEGhBCleuAGxoYwyHReXaM7fsA+C7wZYbjtyB8FvYhhB07A98iBHdDgZsz9MkDriW8v88RAo9LgEej+6tPH+DhaHx/JwSI1xPCr0zyqX39jiQEO/Hwp3/U9gNgc8Lnswx4hPBZTJkY9V+e4Ro7An8FtgH+QKheGgbsBPwt1mcN4T0pARLACOBU4CHCn6UfAQcT/oxtjeGPJEnSJmejCH/mly6iMtnQL49JWhela8LU54lEoqjDLXvu2MDhWZWvKFzC0PecR12twjBIktq9kwiVGg9EP08H/gWcCAwC9iR7hckIQhjwMbBHhvbfRMcsJnwBnsm3CFUYzwLnABXR/vtYu/Il5aeEKpZ9srRD+DL+74Qv/w+N3cNvgeGEYOoN4Ajgo3rO01xbEYKb+9P2n06oKBkYjRHCa/0rQphTRgh6jgO+R3htdgUOi/ZXRM+HE8KYFwhhTiYHEt6D8cBYQti0A+F1e5UQnC2KHd8V+C/hdRlA7ZR/QwhhyAhCEBUP8BKEz87ZhEqx0dH+GwnByW+yjA2gdzS2WYQqqSXR/lvJ/t6fQfisHUjt65eyPfDD6FybR/t6EAKaMcCoqN8vCNU5VwDXpJ1jK0IwuHU0vgXR/hcIn6ELCSHiZ9H+zoTw59yoLd5nOGEaxV9muRdJkiRt5DaK8GfQqLOZUTKnrYchbRKSJA+vqqya1dz+BUVlZ1fA4y05JqmxDIMkqd35OeFL8SWxfSMJgQSEqqCL6umfBKaQOfwBKCaEP9tkaOtGqKQoAc6jNviB8EX7n1j7y3moDR+OIHsAdAFh2q/fUTe8SgJXE6o+9gOejM7R3LVpziMEWCmFhODgUEKYku6J6LEtoTJkW0L1y9HUTpH2b+ArQgXKzYSqk/g1nicEEJsR7jFb+PNDQlVV6v47EEKc0wlByY3AT2LH/zE65pfUXevpUcJn4BuEwOkvhPc1dY1zCIHNaOq6jhCK9MgwtlzCv0e3JoSM8c/fYkJolKnqLPVv2O2j68Z9TQh0vkGYFg/C5/tUaiuQRhGmtDsVOI21P19XE6qd/kFtiANhure7gZsIFWUnA/FfpjqV8DmO9wG4Ejgzw31IkiRpE7BRhD8ARXmFnNjnWw0fKKlNTFs2i/cXfNbwgVIrMgySpDa1FzCYtSsTXiJMCbYroerjKjJPj5Wypp42CNUimVxFCIXuIFS8pBtD5vAnpTjL/gJC6AMhKElXRQhV/kZYY+j7ZF43pjGmA++l7duGEGwNrKdfauzzCdUhcZWECpyzCSFQevtKQuAziBBkZPMz6gZf5YTp0PYhBE5nE8KRVYQQ5hzC1HOZgrAPCaFKZ0IQ9SxhXZthUfuDGfpUAq8Rpr9Ldybh9RlHCA/Tjcl6V0G29x5gWWz7Gtaeeu41QlizU4a+qdDz6wxtH0bP2wL7E6qWUnYkhFw/pu5naTWhAk2SJEmboI0m/Ola2JlRJ93a1sOQlMU9k0YZ/qjdMwySpFb1M8IX4R+n7a8mrLlzK+HL/nOAO1v42rmEL8oBJmQ5pqSBc5Rm2X8CYfougGlZjnmBEALlEqpnmhv+jCVU8qS7EZhUT79sY09JVcLkZGlPhR+d6jlHptCtnDCl3s2EKp+9CWsrDSaEZicTQp50HQhBFNROqXYKITQqpXYatGzjTJeqOMr23tcX7kD9r1+8IifT3OSLo+cOhPc/fkyX6HmLDP1mx7bTK9k+JoRqfyZUW11LmM4OQsAmSZKkTdBGE/5IktTSDIMkab3ZglDx8iZhKqt0m8e2LwTuonZaspawN7VfsC+u78B6VGTZf0Bse0WWY8oI1U39yD5l3bqoov7qlWxjT8lWLZXenr7uTWO8FdtOhRj9ouf7gRsaeZ7B0fNSmvbZKKI2YGrp9x4ansKvMrad/vp9AWwH7JKhX3wavy/T2q4nTEOYmo7uTMIUezdQGwJJkiRpE2P4I0lSIxkGSVKL+TGhuiJ9yrKUYkJFyEFAf8IX22Nb8Po7xrZzW/C8EL6AT+lE9inrFhBCj4IWvn7KbYRgpL1ZFNtOBSGbRc+Z1ufJZofouanv3zbUvuYt/d6vqzsJ09odRJgab2qs7ZDo+VVqp4BLmUYItG4jrKlUQFgP6izCOkQj19+QJUmS1F4Z/kiS1EyGQZLULLnARYS1dobXc9whwBvR9sW0bPgTr7jYrgXPC3XXD9qZtb+oT0mtVbS+KjPmrKfzrqv82HZqbZvUVGmHN+E8qfdwq+icDa39lN4PWv69X1fPAtcRpm17mhDkTCW8LlcS1lrKtIYRhPf7DMK0bzcTAqSOhKq5lcBD63PgkiRJan8MfyRJaiFNDYMKR+wxPZmsfj2ZSL5uGCRpE3IiYdH6Bxo47k3gfWBf4H8I1TqzMxyXmoIs2/o0KfHQIX6egxsxlqZU53wQ2z6E7OFPasqz8U04d3N9n1Ad8lZDB7aCVNXVYuCTaDu1NtLuhCqvV7L0/SbQC3iM2nCrkPAZebeea8bfvwWEoCif8N43ZH1VZmVzC3AUYR2fmwnVY8sIFTyPk3nKuW8RKoIgfJ4OJlTX/YkQAF2H4Y8kSdImx/BHkqT1pBFh0E4lq0t3TiQTQwyDJG1CLiV8ib2kEcfeB9xL+P+Wi4GrMhxTGj13y9CWQ+3/83SI7f+QMCXaloTqiiupf/2XDvW0pXuOUNVUBPwvcE+W41JTnI1qwrmh4ZAr3RaE+9u3if3Wl0HR84OEtYkgVHVVEarCHgAOA+am9SskrA91dvTzq8D50fYF1B/+dIxtlxNCsMOB/YEDgQn19G3Ke7+uioAXgacIwU1jXUuYJjFVQZUkvI7VwF8IgVkBDa/1JEmSpI1IU//HQZIkNVMqDPrZ/kN4/OTbmPeLtxJv/eApbjnyar7T9xi6FnTcCRiSSCbuq85JTC8cscdXBcP7/zV/RL/zi/7Yv1dbj1+SWsAgQvXGY408/ilqK3suJAQZ6aZHz3tQNwDqSPgCvEv0c7xvJWE6LICuhKqIeGUQQO/Ydqbrdo2eO6ftXwTcHm0PIlRlpPtGNNbHCNVNTRG/xy5ZjwryCEHb69SurxPvlz72lFS1S8cs7anXqr7rJzLs25JQkTIdGBbbPxt4ItremRDOnBGNIwEMAJ4HPgdmRMf9A5gZbZ8LnJZ2rdzoXACbp7XdHtt+KBpXXJ/YdnpfyP7eQ92wqFOG9vgvYHZNa7saODQ6b6brZtOJsMZPuhej51kY/EiSJG1yrPyRJKmNNKkyqCqtMign8eKqyz6f2fBVJKnd6Eyo4gEoaWSf8ujRifBF+T2Eyo+q2DH/BH5PCCLGECodNiOsjfJL4FjC2i5DgFWECpGngRuBYwhro5xImC5rBGEdmmMJU6Wl3AgcCdwPTCYEC7tGbbsQfqmuOnb8UEJFyZHAX6PrfBa1bQXcTZge7leNfB3i9oxtH0H4gn9F2jFdgL2oDRMGp7X3jZ67E17X5WntPaPn7Vi7YiQB7BBtp997BeE1LgJuI7wH8fv+V3TMCUBx2jV/QXjNdouu/3fC+7wmOt8MQiCUUgH8gHD/RdHxdwLPEEKrK6h9j3YkBIFzCO/Ns8AjwDmE0HAi8DvCNHQHUltRBPAzQvj3cvSA2tdvq6htWez4vrHtXVhbz9j2roSKnZQ9ouffRw8Ir1Mp4T0uBaYADxM+63Ejorb/xPYNjp5vyjAOSZIkaf0rGN7vuoLh/ZMvfTU+2Ry73Xt0coe7DmtWX0mt4+73HksWDO+fLLipX7ZFatXeDB2cVzC8f/LIx4e09cdnk1VZXZl8b94nyTsn/jV55nO/Sna//cDqguH9k6mHlUGSNiBXEb54T0aPxYTpzvaqp8/1hOAgmfb4nDB1XNxvCEFB6pgZhOoaCNOHVRCqiI6kbkVKV+BvaedPTZV1SPTzUsI6LKkg4YeEKcfiff4b7Y/rSKgwWRVd/9/Ak4Rw6V4artqJ605Y/2Usa78eDT3mUDvjw7cIwVe8/QPCNHUQArL/S2ufRG148PMMY3idEMKk9CYEXqsJ1UavE8KWhcCjwNYN3Gf6+JKEYK5nlj6DCGsGxY9fRJjOb2T083uEiqN4JVMuofqoIq3vy4Qp+ZKE4PERQkAIcHSG8X1MmHatA+H9jn/Ol0f9DyRUvN1HCHBS7dMJn4XU+9OTMAVdQ+9pNfCT2L28FV23GhhNWOPnfsJn/4Isr5skSZI2cplK8VtdwfB+10Fi6D/PuJ+jdz6syf373vdtVlaWM/vi1lgrVVJz3DNpFL8a8wdIJs+uuOqLx9t6PGqEoYPzCjosWPPNHQ9gzJl/bevRCKhKVpFWGZQsWV1a89/yRCJnupVBkjZhuwEDgQXAOGqrVc6Mfk5fQyZuF8IX/NXA24TpxLoBRwEvULuWSnNsTgiStiIEPx/QuPWONnRdCfe9LSFAe4sQyjTGToTApIgQrnzQwPG5hHClFzCfEMaVE9YOqiS8p9l0J6z/05EwBd8n0f5zCVVl9a0F1dJ6EKazO4Pwmdsi9tg8et4J+E403lQF1g6E8GdrYL/o+WtClVt6VZgkSZI2EU77JknSBsJp4iSpXlOiR7q/NaLvV9EjbgmhUmddFROmO9vULKfuFGRNMYPatX0aowp4LcP+1xvRdxFhqrh0Dzfh+i2hI/AScANhDSTIHhLeRfi8Jqit7oJQXdXc11ySJEkbGcMfSZI2UIZBkiRtNIYR1vxpzHQWOxOq2ZLrdUSSJEnaoBn+SJK0kTAMkiRpg5VaF/Mm4GeEyqlM9iNUJZ3WCmOSJEnSBmyTD3/mrJjPqE+fb+thSBu9d+Z+GDYSiZMLRuy+U7NOkkxWVVz5+fCWG5W0cUsPgyqrqxIT53/M+FkTGDd7Am9+/d5OZRXlNWFQwfD+XybgNZLJF1Zf9cULbT3+jcbNAzoVVlUcVp3I6ZEgWd9C5+tFksTCnET116tXdnqdoe+ty7olkqT1ZyRwHTAEOBkYQ1h7ai5hTaMewF7AroR1rD5qm2FKkiRpQ7HJhz8zSr7m2v/e3tbDkDYl3yWZ/G4z+1YChj9SM+Xl5PKNHvvwjR77cPk3fpIpDOpTVlG+KznsQ1jgXOsg/6Y99k4kqq9NVFcen0wkihJtNDtPgiTJZILCDuWrksP7/ZMkv6u46ouP22QwkqRshgLvAJcDg1i7smc2oeLndGBpaw5MkiRJG6ZNPvxJOXW3b/ODvU5p62FIyuLyV4YzdZkzUkktKVMYtPmt+7Imuaath7ZhGzo4L7/D/FsSVP8MyOnbbWeO7z2Yvt12YZuO3SjMK2i1oayurGDhyqV8vmQq/542ruiLJV+dToLT8of3v2NN+TaXM/S1ylYbjCSpIf+OHl2A/kBXYBXwNTC9DcclSZKkDZDhT2SXLXbk+N6D23oYkrL4/Rt3t/UQpI1eXk5uWw9hhX6JugAAIABJREFUwzd0p6L8ogUvJEgc1bfbzsmbv3UVx+zyzbYeFQA3Db6cf08bxxWvjsiZsnT6rwqKFuxeMXSnkxk6Y1Vbj02SVMcK4N22HoQkSZI2bDltPQBJkqSNQpJEQYeiBxIJjjp2l8N5Y8jfE+0l+Ek5rvcg3vjBkxy7y+GQ4NsFHTrc39ZjkiRJkiRJLc/wR5IkqQUUDN/9DEicPXC7ATx5yp/oUtCprYeUUdeCzjxxyu0csN2eAEMKhu9xeluPSZIkSZIktSzDH0mSpHU1dHBeIsEf8nJykw+fOIKivMK2HlG9OuQV8dAJw8nNyUkmEskb+TvO+SdJkiRJ0kbE8EeSJGkdFRXOPyxJss/39zg50XuLnm09nEbZbcudOWv3kxLJZHLXvBn9Dmvr8UiSJEmSpJZj+CNJkrSOqnJy/gfgO/2ObeuhNMnp0Xhz4MQ2HookSZIkSWpBhj+SJEnrKEGyL8CB2w1o66E0ycAee4eNZKJf245EkiRJkiS1JMMfSZKkdZVg28K8guQWRV3beiRNskVRVwrzCpIk2K6txyJJkiRJklpOXlsPQNoYVFZWMmvWLLp27cpWW23V1sORJLW2JEWFuQVtPYomS5CgMLeA1ZUVRW04jNOBA4HN0/YvBN4H/tGIcySAC4DzgJ2BcuA14PfA5y01UEmSJEmSNhRW/kgt4KuvvqJ379785je/aeuhSJK0oXkauBbYDTg/erwB/JbGBz9/Be4G9gQ6Aj2As4AJwBEtP2RJkiRJkto3wx+pBZSXlwNQWlraxiORJGmDtBp4MdquAB5rQt/TgEHASUAnoAtwMrAg+vlxoHOLjVSSJEmSpA2A4Y/UAlLhz4oVK9p4JJIkbbCWR88rgeom9DubUN3zAlAJrAGeB/4XSALbAEe33DAlSZIkSWr/DH+kFpAp/Dn00EPp06dPWw1JkqQNVVOCHwgVQ1Mz7B8HfBRtb7tOI5IkSZIkaQOT19YDkNqbd955h0QiwcCBAxvdJ1P4M2fOHBYsWNDi45MkSXXcV0/bNGBvYFYzznsIoWLoesIvTJ0EfAOYDTwMlGXptx1hKrqdgBLgFeDNLMceBBwHDAV6AucBX0XnB+gOnAu8BHwI7ACcHu3/DzA+dq4jgKOAcuBRYEaj7rKJ8kb0PTSH3AfWx7kbJZncBSgnkZjXBtfeDuhAIvFV6186uUUCtiDBPEiUt/LFi4AeiUSyOEnO0la9drj+zkAFicTXrX5t2JZksiMwg0SiqcF0i8hJ8rNVV342ti2uLUmSpA2b4Y+U5vDDD2errbbi668b//+Xmdb8Wb58OatXr6aiooKCgoIWH6ckSWrQNkAp8GoT+lwAXATsRQh67gT+TgiDOkTHnE4IW5KxfgngCkKAcwPwL0II9Hq0fRa1U9udD1wI7APMB56IjusWtXclBE2nAYXAFGBP4GagIDruN8CPgVHAQ8CJUVsh8CtgICH8alG51YnOyUSyX1FeIYW5+cmGe7SsktWliQSJgq4Fnbq29rWXry5LJEmyWUGnvq197bI15YnK6io65XfolZfIbdXXvTJZlSirKCcnkbd15/wO3Vvz2hDe89xEbmHngg6t/rovryhLJIHNCjvv2trXrqiqTJRXrqI6rGMmSZIkNZnhjxSzcuVKKioqmDt3LsXFxWy++eY1bRUVFdx6663079+fk08+uU6/VPizfPnymn2pIGjFihV069YNSZLUqrYgBCDDCOsINda/Cf9GvhMoAu6IzjEW2BV4CxhMCH/iv41/CfA7Qmg0Jdr3KiHw+Q3wf8CRhGntXora7wNygauAYwih04GEip7nCZU83YEzgHeBnYHVhHDpGkJV0mBCFdAQIJ8QJJ1MCKJ+2oT7bpLLDzqPaw69OLG+zp9JZXUVnf64F10LOrHwl++26rUBtr59ICUVpcz9+VuJvJzcVr32t/92DuNmT+DJk//E0Tsf1qr3/vqc9zjy8SHst+0evP79J1r9dS8asTv7bNOfN3/w91a/do87D2VJ+TKmXvhKomtB51a99i3v/IXfjLulVa8pSZKkjYtr/kgxixcvrtn+7LPP6rQtXbqUq6++mgcffHCtfumVP6tWraKyshKoOxWcJElqNRcSqmqGN7HfTGqnacsnhDqpkOdLQigDsH+sz3bA76PjplDXDcBiQkhzTrRvBqHSB2BL4HbgPUIlzwDg/eiYVOXOOEIItTr6+SZC1dEO0f6/AlXAKkJoBbBf425XkiRJkrQxMvyRYpYurZ3GPD38KSkpAWqDnrjUvkwVQIY/kiS1uu0Joc1ZNK3qJyXVZwWwKK1tTvS8WWzfEMKUcB9mONcq4Llo+9wM11gEfJBlHKl1hRZm2F8cbafPU5s6djMkSZIkSZssp32TYuoLf4qLw3csK1eu/R1SKvSpqqqiurq6TuATD4IkSdJ6VwA8RpgW7fUM7ScAJ2XY/zVh2jYIgU02FdFz/JeoDo2eswVNEwlrAQ2I7VtTzzVS6htHZZb9VdGzv+QlSZIkSZswwx8pZsmSJTXbn376aZ22xlT+QFgbKB7+WPkjbdxmzpzJnDlzOPTQQ9dqe//996msrOTAAw9sg5FJm6y7Cevj3JelfX/g/Az7P6I2/GmqbaLnrbO0p6pxWn3NEkmSJEnSpsnfCNxAvfLKK3z4YaaZRbQuli1bVrOdLfypr/IHYPXq1Vb+SOvJI488wqhRo9p6GFRXV/Ovf/2L//mf/6F3796MGDFirWPGjx/P/vvvz0EHHcSLL77YBqOUNmrdgIMy7L+MUJlzVT19HwWOzvD46TqMJ/XbIz2ztKf+zf3VOlxDkiRJkqRGs/KnHXr++efp168fu+22W9ZjnnvuOXr37s3ee+/diiPb+KXCn0Qiwdy5cykrK+Ojjz5i7NixdOzYEWg4/Emv/DH8kVrOH//4RwoLCzn77LPbdBy33norn376Kf/85z+zHrNkyRKSySQAixalLxkiaR39Crg/bd+FwJ7Aj4BkWlsh0J2wXs/06NGSXgOOB44AOgOlae3bRc/Pt/B1JUmSJEnKyMqfduihhx7i6KOPZsaMGVmPmTdvHo8//rjBQgtLreuTm5tLMplk2rRp3HXXXfz2t79l9OjRQNPDH6d9k1rGq6++yieffMJ7773H22+/3aZjueyyy3jooYfYb7/9sh5z8sknc//993PXXXdx5plntuLopA1WYfTcFciv57gDgcHA7Ni+XwJHEtbVqU47vgdhDaBuTRhLbvSc6RelUlO3FcT2PQwUE4KfTH/g9wFWAA/E9qX+HV7fL2Pl13NMtv6p/fW9hpIkSZKkjZzhTztUXFzMrFmz+Oijj7IeU1payrvvvsuDDz7YiiPb+MXDH4Bp06bVhD3vvPMO0PQ1fwzopJZxxx131GyPHDmyDUdSa6uttsralkgk+MlPfsLFF19c83eKpHr1i57zgHMIVTy7xB6HAdcAY4F/x/pdDtxOmLptIbA09igDvgZ2A5oyX+6O0XN36oY8ANtGz/Ep3hYR1hGqBm4E+sfaDga+B/ycUHmUkqoG2hLYIcs4UtfYPm1/IdAl2k5fZyj187ZY5S9JkiRJmyzDn3YoFSSUlqbPGFIrFS68//77rTKmTUVqXZ94+FNWVgZQ87xq1aqa4++//35OPPHEmjYIa/7EAx8rf6R1N3PmTF544QW23HJLAJ566ql2MZVap06d2noI0sbgHOBe4HRgWfQYAfwXmBh7PA/8GqgEno36ngpcHfWpynDu1VHbQ00Yz7mEAGcZoVrn74Twpifwu+iay4BBwK3UBkVPRW2lwHtRvxeAuwjVQI/ErnERcGd0nhLguejeUvaJxrxNdMzFwA3AZsD/Rucui9pGAldE/X5NeO2WRe3PAEc14d4lSZIkSRsJfxuwHUoFB/WFP6kKlQ8/bMovsaohxcXFJBIJcnJCLjp16tS1pnmrqqpi9erVFBYW8u9//5vRo0dz8MEH17SXl5c3u/Ln5z//OZdccgm77LLLOt6JtHG5++672X333bnooou48MILWb16NQ888ABXX311m46rsLCw4YMkNeSR6HFBM/o+S20Q1FIejh6ZXBs9snmeEPj0JwQ3s4FprL0G0d3RI5sPgB9maXsyemRya/SQJEmSJG3iDH/aoVSws3Tp0rXaqqurSSQSNW2TJ08mmUySSCTWOlZNFw9/EolEncqfuPLycgoLC2uqgObNm1fTtnz58mav+fPiiy/y2GOPMXPmTLp27Vqz3/dYm7Ly8nL+8pe/MGzYMM4880yuuuoqSkpKuO+++7jiiiuyTqlWWlrKwoUL6+zr0aMHRUVFQPjzHv97NpFIsPPOO2cdx9SpU3nppZdYsmQJffr04aijGv5l+gULFjBq1CjOOOMMdtxxx6zHvf7663z44YeUlJTQs2dPjjnmGLp3797g+SW1S0ngs+ghSZIkSVKbcNq3digV/qSe40499VTuueceli1bBoQpyNrD1Ecbi5KSkpqQJZFIMHXq1IzhT6oaKPXaz58/v6Zt+fLlLFmypObnpoQ/X3/9NcXFxXXCpMmTJ3PmmWdmXGtI2hSMGjUKgLPPPpvOnTtz7rnnAmEquH/+859Z+82bN4+HH36YI444gt69e9O7d28mTZpU0z5t2jTuvfde9t13X3r37k2/fv0ynqe0tJRzzz2Xvffemy+//JLu3bvz+OOP06dPnzrnS0kmk7zyyiv87//+Lz179uTSSy9l7ty5Gc89adIkBgwYwDXXXENZWRnLly/nsssuo0ePHlx++eVUVFQ09mWSJEmSJEmSalj504bmzJnD66+/zgEHHECfPn0AWLNmTc2X/KtXr+aLL77gsssu47bbbmOLLbbghRde4Pnnn69znpkzZ7L11ulr/ao54lUAOTk5zJ49O+OC7qn3aObMmUDddYCWL19eEwrl5OQ0etq35cuX14RKlZWVNfufe+45nnzySYqLi/nPf/7TxDtqvtLSUmbOnMkee+zRateUMrnrrrs477zz6NixIwAXXnghd9xxB8lkkpEjR3LyySdn7Lfrrrvyu9/9joMPPpjjjz9+rfb999+f/fffn06dOjF06NCM56ioqOCUU05hwoQJvP766+y7774AXHDBBVx99dXcdNNNa/WZOnUqEydOZMGCBfWGN+PGjeP444/nnHPOYeTIkTXB8yWXXMJhhx3GH//4R6ZOncrTTz+dtbpJkjY0M0rmsKR87V9waoyq6urwnKzivfmfNLl/8erlzCtdxHadu7N5YdeGO6RfPxmWlZo0/1Nyc5r2O3RrqiuZumwmmxd2YbvOTf93+4qK8MtIXy6bwZYdNm9y/2nLZlGdTLLrlr2a3Hfy0q8AKFuzslmv+/yyRSxbtZzem+9IQW5Bk/uHa5c369rLK0r5esUCtu3UnS2Kmv6eV1aHf5N/sOAzOuV3bFLfqupqpiybTteCzmzfZZsmX3vOivDLZYlksk/+8L4HNPkEAIm8yjVXfPpBs/pKkiRpg2f404bGjh3Lueeey6233soll1wChMqTlNWrV/P4448zevRoysvLueWWW0gm06eMhxkzZlBQUMDee+/damPfGCWTSRYvXlzzBWxOTg4VFRVrTRsFIfxZsGABixcvXqtt+fLlLF68uGbquMZW/nz99df17n/33Xcbeyst4rbbbuOGG27gqaee4tvf/jYdOnRo1etLEAKSTz/9tE7o3bdvX44++mheeuklxowZw+TJk+nbt2/Wc/Tu3bvea/Tqlf2LsBtvvJGxY8dyyy231AQ/Kddddx3333//WlN07rrrrlxxxRXsu+++jBs3LuN5V6xYwTnnnEMikWD48OF1pnXcZptteOCBBxg8eDDPPfccd955J7/61a/qvQdJ2lBcN/4Onvgse9VmY5SuKeeQv363hUbUdN987Httdu1LxtzYZtf+bNHUNnvdv1gyrU3f86P/dm6bXTuZSNycoJnTP1dXLwc2a9EBSZIkaYNh+NMOTJs2rWY7Hv6UlJTUVIJ89NFHdaYWA8jNzaWqqoqRI0fywQcfMHToUL8gXAfFxcVUVlaSn58PUPNlbKbArby8nIkTJ2Y8z/Lly2sCo2QyWec9rU/6+5uSOteyZctYuHBhq1V5jR8/njVr1vD8888zdOhQrrnmGr7zne+0yrWllDvvvJOTTz6Znj171tl/8cUX89JLL5FMJrnnnnu4/fbbs56joaqZbOtpLVq0iBEjRpBIJBgyZMha7UVFRRx88MGMHj06Y//4ul3pHnjgAWbOnMlxxx1Hly5d1mofNGgQBx54IBMmTGDYsGFccMEFNWsVSdLGYMiep9CloFOrXvPzJdN4debb9O22C0f2OrhVrz2vbCHPTn6Z3bbcmaN2OqRVrw1w7/t/oyivgHP3av1/y706820+XzKN4/sMZqeu27fqtcfPnsDHi6Zw+I4Hsmf33Vr12sXly3n88xfYefMdOW6Xw1v12gBPfPZPlq1a7qKhkiRJmzDDn3bgq6/CVApjxoypEwDMmzevZu2YxYsXr7W2T05ODlVVVTW/WT5s2DDDn3WQen3ja/5kU15ezoQJEzK2rVixok4FUWMrf+Ih0Zo1a+pcK2Xq1Kn1hj8ffvghK1as4LDDDst6TFVVFbNnz2bSpElcccUV3HvvvRkXrk+9Hi+99BJz5szhu9/9LqWlpVYAqdXMnj2b//u//2Ps2LFrtZ1wwgn06tWLmTNn8sgjj/CHP/yBTp1a9kvExx9/nPLycnr16kX37t0zHpMpuEnp3Llz1rZHH30UgJ122inrMSeddBITJkxg4cKFvPnmmxxxxBGNG7gkbQCuOfQidtpsh1a95kMfPcOrM99m4HYDuO2o/9eq1359zkSenfwy+227R6tfG+D+D56kc0GnNrn2Bf/5LZ8vmcZ5e3+XE3oPbtVr//LlG/h40RRO6/ttLtzv7Fa99meLpvL45y+wV/fd2uR1f3Xm2yxb1bjppyVJkrRxMvxpB7766itKSko45phjqI7mModQeRFf+yW1vkxKalqxVGXKwoULmT17NjvuuGPrDHwjk6qwiU/7lk2myp+cnByqq6tZtGgRK1asIC8v/PFqypo/KWVlZTXb8c/A2LFjOeCAAygoWHu+9CVLljBw4EAqKip49tlnOeWUUzJe56abbuK6666jc+fOlJSUcO21164V/iSTSWbNmgWEtakAqqurmT59Orvvvnuj7kdaV/fccw85OTmMGjWKUaNGrdWeWgOouLiYUaNGcf7557fo9f/73/8CsOWWWzarf6qKMF1lZSUff/wxUH9ANGDAgJrtyZMnG/5IkiRJkiSp0Zq2UqnWi+nTp/Ppp5/WCX4SiQSVlZXk5ubWfIGY+jI+fkx6QPHpp5+u/wFvwCoqKnjttdcytqUqXVKvaX2VP2VlZbz11lt1jkltf/HFFzXnSSQSVFRU1Lvoe0q8Qig13R/UDX+uvfbarF8Af/nllzXXufbaazNOVwfwr3/9i6qqqppKo88//3ytY5YuXbrWOiYAEyZMyLhfammrVq3iz3/+M2eddRa77LJLxsf3v//9mpB15MiRLT6GuXPnAnUr8VrCwoULa/5c11cZGK82iv89IEmSJEmSJDXEyp92oKKigrfffrvOvtTaDrm5uTVfPKamh4vLy8ujqqqKvLw8Kisr+fzzzzn22GPX/6A3UGPGjOHMM89k+PDhXHDBBXXaGlP5k6ruefXVV1m6dCn5+fk1709OTg7JZJJJkybVnCcVwAwbNozLLruszrRUy5YtY968eTWVNI2p/AF44403mDlzZp1F6ktLS5k3b17NdT/++GNGjhzJV199xeWXX852221Xc2y8giyRSFBcXMzy5cvrrE+SrWLh3HPPJTc31y+itd797W9/I5lMcvfdd9c71eD777/P008/zUcffcT48eP55je/2WJjSP1dkAqB6pMtbM0kPlVcfM23dKlgC6jz512SJEmSJElqiOFPO/HGG2/U+TmRSNR88ZdarDy1tk/8mIKCAvLy8kgkEpSWltZUnUCYCmns2LEcf/zx7WadllGjRjFx4kRuuOGGeqc7gjDNWElJCVtssUWLXf+LL75g+fLlPPLII2uFP5nW/EkFOPFngGeeeQagTviTUlpaWqc/wNChQ5kyZUrN1FUrV66kb9++FBcX8/LLLzNo0CAWL15cc47p06fXbFdWVpKTk0Nubi5VVVVUV1czYcKEmi+DV69ezfHHH89xxx0HQEFBAatXr+bnP/85EAKvjz76CAiv6YIFC2rGl5+fT0VFBXPmzKkznVuXLl3qhFdSa7vzzjs577zzGvy76+KLL+bpp58G4O67784Y/sRDlHiFZbo1a9ZQXV1dE/z27NmTt956i6VLl/LZZ5/VO+VhY6r7Urp06ULfvn2ZPHky7777LmvWrMkYuKbWgMvPz+fQQw9t9PnV/kycOLHO3+uN1a1btwan+5s+fTrPPvss7777LgsWLCA/P59evXpx8MEHc/rpp9O1a1eqq6u55ppruPHGG5t7C5IkSZIkaQNj+NNOvPvuu1nb8vLyyMnJqQkBEokEVVVVNV9QpsKhRCLBlClTGD9+PJ06deLSSy/ltddeY8iQIfz1r39tlftIN2fOHHbYoXYx34cffpgxY8aw2WabMXTo0Kz91qxZw6mnnsrbb7/Nm2++yW677dYi40lV92SqokpVxKRP5RYPf3JycqiqqmLevHnk5OTUBG+pY1KVQVBbCZQSn27u1VdfrQmbRo0axaBBg2oqd4A66wmlvlTu0KEDVVVVlJWV8cknn3D66acDcNtttzF+/HhmzJgB1AZS1dXVNVVAkydPpm/fvixdupTKysqacac+QwsWLGDrrbfm9NNPZ99992Wbbbapud/6viyX1oexY8fy4Ycf8uyzzzZ47ODBg2uClH/84x8Z1z2LV9yl/tzFpaZZTCaTrFq1qmYtoaOOOoonn3wSCNPK1Te1XHl5ecM3FnP22Wdz7bXXUlJSwujRozOu0TV79mwAjj/+eLp169ak86t96d69O2VlZfzpT3+q+VwXFhZmDCsXL17MJ598QmVlJfvttx/vvfdexnPOmjWLyy+/nKeffprtt9+eH/7wh5xyyilstdVWzJ8/n1deeYUrr7ySY489lvLycqZNm2b4I0mSJEnSJsQ1f9qJOXPm1NueCnhycnLIz8+nY8eONfsgfGmZTCZ57bXXOPzww9l///1rKoWeeuopysrK1qouWt8uueQSevbsyZAhQxg4cCAXXnhhzW8+f/LJJ/X2femllxg9ejRLlizhL3/5S83+kpISHnzwwZrqleLi4qxfjGWS+k36RYsW8ec//7nO2jrTpk3LuI4ShEClU6dOdX47Px66pcT7poc/8+fPZ/Xq1TXXSnn//feB8EVeKlB67rnnatYCia+xkzp/qsJr7ty53HDDDUD4ojgnJ6emSigvL4+CggKgNlxMhV85OTkUFhbWjH3BggU89thjjBs3jttvv52rr76a3NxcCgsL17pHNV+HW/bcseCm3d8tGN7/yg7D++zQcI9N0w033MBhhx3W6KnOUkFoRUUFI0aMWKu9W7duNRWEL7/8cp22559/nltvvbXm53gF3llnnUWPHj0AuPfee9cKo8rKymr+LMf7pRQXF9dsx6d1BPjFL35Rc+7rr78+47pCzz//PEVFRQwfPnytNtWvaHjfb+UP3318/oh+53PbPpu39Xh69erFoEGDePLJJ2sq0bp3787LL7+81uP9999nxowZfOMb36gzBWjcf/7zHwYMGMAzzzzDiBEjmDZtGtdffz3f+973OOqoo/j+97/Pgw8+yMSJE/nyyy955plnWLZsWWve8qbl5gGdCobv/k7BsP6/Kxy2R5+2Ho4kSZIkSWD4026lf9leVFREhw4d6NChQ81Ub+lSX/wXFBSQm5tbU7mxatUq3nrrLc455xwGDhy43sdeWlrK0qVLufPOO0kmkzz22GNMmDCBe++9t+aL0lSVSsqqVat44oknOO2009hhhx048cQTa9qee+65mu1zzjmHH//4xxx44IEsXbqUPffckwMOOICTTz6ZqqqqOudMr+6pqKhgypQpQAjLhg4dyrBhw2rap06dutbrHl//Jzc3t064kwpW4sfG29PPVV1dXVNdFK8S+Pjjj6msrOSzzz4jkUiQm5vLypUrOeuss/je977H3Llz60xFl5OTUxP+3H777axcubLmuqnnDh060LFjx5qwKlVJFA9/UlVkEN6Phx56iJycHDp16kSnTp3o2LFjzeesQ4cOBkAtoHxFcgE5ya2AYVWJ/Fn5w/u9nj+8/xBuHtCpwc6biLvuuotx48bVCbcbklojDeCee+7hxRdfrNOeSCQ49dRTAbjvvvs4++yzuemmmzjhhBN49NFHueqqq2qOPeusszjvvPMoKyujY8eOPPbYYxQVFVFdXc0ZZ5zBRRddxOjRo3nssccYNGgQS5YsAeCzzz7jrLPO4ve//33NueIh9+eff15nTJttthnPPPMMnTp14oMPPuC8886r8/fCHXfcwSuvvMJ9991H3759G/1aKMiByQmS+yeSiXsL1lQsLBjR/7nCEf1OZOjgNq14zs/PZ+utt27wuO23354nnngi4/pqr7zyCieddBIlJSXceuutXHrppVnXaevVqxcvv/wy/fv3r/OLBGphl39UBslqEvw2mVs9pWB4/0n5N+3+U4bt1XLz1kqSJEmS1ESGPxuI1Pos2b6ATyQSdOzYkU6dOlFUVFTzRVAqoHj77beZMWMGkyZNWiskaa5kMrlWwPLwww8zYMAArrvuOqqqqmq+wE0PSlK/JV9dXc3IkSPp0aMHZ555Js8++yzz588nPz+fwsJC8vPzmTJlCu+88w4zZszghRde4P+zd+dxUVb7H8A/Z1YQRcF9z9wAd7FS08R9TTO33PWa9csWu+XeTTE1t0xTr5l6FZc0LTWX0NTMFqNcyhXzQQTRAAAgAElEQVRwNxN3RAUGZj2/P+h5mmEAAXEG8fN+ve5teLbznRlAfT7zPQdI63KZNm0a4uLiIITA1q1bsWbNGvX6ZrMZXbp0cfmU/8iRIxEVFaV+feXKFXz33Xfq8XFxcW5dP5m93krAlv4Y5xBGec/0er36/JXwR+kI0mq1MJvN2Lt3LxISEtTOHwDYvn07NmzYgKSkJLeOopMnT+LatWtYtmwZtFot/Pz81HDQmRLy/P777wD+WUtIqVl5Dj///DOOHz8OrVar/k9Zs8j5a3pA4SctGimGQ8ABCSGEaApgicFhvWWYGbLGZ3qtVgh/PH8vX7hwAR06dMDEiRMREBCAI0eOoEmTJllOD3n06FH07t0bn3zyCQICAhAQEAB/f3/069cPL7zwgssaaLNnz8YzzzwDh8OBtWvX4v3330fdunWxbt069Weubt26GDBgAObOnatOFdeyZUvs2bMHQUFBsNvt+PTTT9GlSxdMnToVn3zyCZ5++mloNBp07twZAwcOxIQJE3Dr1i0MHz4cU6ZMUeuaNWsWhg4diri4OLWmxo0b49dff0WLFi2wevVqVK5cGR06dEBISAjWr1+PXbt2YdCgQQ/nBS/gTGNPXRGQ7wMwQ0o9JLpIh9ioL3T9pn5m0Cf66SENvFWbv79/to6rXLky2rdv77ItPj4effr0gdVqRf369fH666/f9zpFihTB0qVLkZSUlGGYRHlEipchpB0SAkADIeRcg8Z2wzAzaItxRtDz+Cw044SOiIiIiIiI6CHhmj/5gLJmzINK35VisVig1+uRmpqKTZs2qaHP3r17MWrUKJhMJtSpUwdt2rRBly5dUKlSpRyNN2jQIKxZswZdu3bFpk2bEB8fj7feeguJiYlYuHAhgLRP5JvNZuj1epcF0ePj45Gamoru3btj586d6jRkBoPBJWSw2+2wWq2YNGkS4uPj4XA44Ovri9TUVHUKJp1OB5vNhk2bNmHw4MEAgPfeew8xMTEIDw9H27ZtsWLFCixevNjtOZw4cQImkwmXLl2Cw+Fw66hy7rhx/q/zcc770ncraLVa+Pr6qlM6Xbp0CcA/00FptVrY7XYsWLBA/VoJc4C0tY8sFovLeDqdDqmpqejfvz8SEhLg4+OjBk0ZEULg6NGjGD16tBp+OQdXGo0G3377LaSUGXZbKOsDGY1Gddo6yr3UsdHfGWYGxwIIgYQQwN9tK/Ilh0b20fsE38VMuQ5Su8w67uRRrxbrQVWqVMHOnTtzdE69evWwYcOGbB0bGBiIqKgoHDhwAPHx8WjUqJHagdGiRQtERUWhcePGGZ777LPPIjo6GkeOHMHly5dRvnx5NGjQQP2Z//DDD1GlShX1+BIlSmDp0qXZqqt27drYt28fLl26hFOnTkEIgWrVquGJJ57I1vmUOXOK36cGX9Pkv7/UQkArJAyA+D9o5BuGGcGXIMRKjVauSB0V86dXi81E+nWmJk+erH54YuLEidnukHv22WcRFhaGhIQElCxZMs/rJMAyLvqkYWbwLkC2A4QWwN+fxhCdHUK2N9wx2cTM4HV2qVlpG3fyZ68WS0RERERERI8Fhj/5gEajgd1uV8Mbh8ORJ10WylRdWq0WR44cUbf36NFDXU/m7Nmz2Lx5M15//XU0bNgQ3bp1Q5cuXdQbm1lRgoStW7di/fr1iIiIUK8L/BOG+Pr6uoVbSUlJGDp0KHbu3Am9Xq8GGOlptVro9Xp1GielG8hqtapdLEpwdPjwYbRr1w7Jycn45ZdfAAC//PILpk2bpq6Lo9Sl1JOYmIhhw4apU0Jlp/NHWU8no2OUDqz0lOteunQJUkrs2LFDXb/JYrEgMjISwD+hknJDT6vVwmAwuNSlHLN37151mr+saLVaJCYm4qOPPnKrR3msfBo8oxuJyro/yuueF0Hl405CLBSQcwA4f7NoAUAIFJdSvCyE43XDzKATAlhitmMdJsTGe6fagkMIgWeeecZt+xNPPHHfsEUIgQYNGqBBA9eGkcwCo5yqVKlSjgN4uo/wwyYxq+Y6KbVDAOn89520X5oCT0A4xjjs4n39zOCfhJRLLKl+XyP8sCmjy3lKSkoKLl265DbdX0JCgroGnsFgQNu2bXN03REjRiA1NTXP6iR3QshF0iFaQ8D5D1OtSAuDjFJgoEY4hhpmBv0JKT7TGuyfp7xzOi6z6xERERERERE9iMdyeqH8RrkRn9fTajl3dyg37DUajRrQKEGFr68v9Ho9jhw5gkmTJiE0NBSlS5dG//79ERERoU5V5kxK6XKj8tVXX8Xu3buh1+vVcML5eTmvL6PU9cUXX0Cn0913PRll/ZrChQu7BBHOz9NgMODmzZvYs2cPoqKioNfr4efnB41Gg//85z+wWCxu4yuPv/jiC/Tv39+l5vTXdn4uSg2KjLqC0ncQKeefOHECkydPxrFjx6DT6dR1hJSuo/TjZ1STEnbpdDqXtU4yk1Gg4xzgpO8CoodPY3fshYBvZvuFgA8AAYg6EmK2QStu6GcE/2CYFdIL4bWyTvuISCUd2t2AtGZ+gPAFoBECz0GI/xl8U+4YZgRv8pkd3Obv6bs87tdff8XWrVvdtkdGRsJkSsulmjZtisKFC+fouj179kTFihXzpEbKmNmk3QchM/9glYQRElpAPAmBcLtV+5dhRvAh/aygVxBeK2dvKBEREREREdF9sPMnH1DWZVGmSMurzh+FVquFzWZTwx673a52GgkhoNPp1DDFZrPBZrPh9u3bWLt2LdauXQsAKFasGIKCglCiRAkAaSHGxYsX1TGSkpLUIEf5ZHH6AMRgMEBKCaPRCJvNhpSUFLcgJTPpr6XX69XnpOzz8fFxC0N8fX1hs9mg0+ngcDhgsVhgNBrV19jPzw8Wi0Wdli19+KGs2ZNVLdl5r5QuqC1btmDTpk3Q6XTqc9dqtRlOOZeV7L5uQNpzsNvtkFJCSqmu5ZN+v3NAl28JKXSzglp4u4wHZRcQGrs0Q4j7p3d/TwsnhGwmJZoYCkmLnBW8GkJEWEdH//aQS6XHV5GC8LMGITVwZB60qtKCHh9AAkI873A4uupnBSeI6fhMSLnKPCH29MMvNu3P4IULF2bYUaZ0tAIocNMC6mcFN5SQRbxdx4OzA1JcB1A2GwenfV9q0BAOscDg65iPGSFfaoR9eWrKqR8QDsdDLZWI6CEzzAip5dA4Sni7jtwS0N61jjl55P5HEhEREeVfDH/yAY1Go67xklHY8KAMBoNLZ4ky3VhGnLtWHA4H7HY7bDYbEhMTceDAATgcafcilI4YIQSsVit8fHzU84xGI4QQbtOROQcWGo0Gvr6+2V6vICO+vve/n6esoaM8Vp53oUKF1KDDYDDAYDC4TL2XE+k7fzKjrL+Ufpo7JQzL6/fdWVYdQhqNJsOp6vIlKbQaYJ+3y3hgEsh5T4HQCEADCb0AhkHK4YZZIVcg5GcWnfG/+PeROw+hUnpcSRFUYH7Wcn6SDhAQEiWkBqMgxATDzJBjElhsLeb7P7x6OPNOohyIj49H79691a9TUlJw7NgxXLp0KcPw5+zZs+rj4sWL50UJ+YYAlggpQr1dh1ekfSbj76kIZV8HNC/pfYMSxEws00EuNI09dcXLFWbq2/M/4Xbq3Ryf9/u1k7ke0yEdGLV3Rq7Pj76V9nN08OoxvPPdhzk+/9iNU7hrvodmFRtB5PAP8itJNwAAv187kaux/7p3BRfvxqF2yRoI8Cma4/Pt0o5ES3Kuxr5nTsTRG7GoWKQsnihWIcfn/3ol7f75/45uwHcXf7nP0e5+vnwYhfWFUL90cK7OBYBNp3bhTELOl3c7cfMMElLvoGmFhtCKnP275XZK2l/Njt88navXPe7edZy/ewkhJaqjuG+xHJ9/LfkWJKRRPzPokxyf/DcB/GAZG7spVydr5DSNFN1yO7b3OX4B8Ky3qyAiIiJ6EAx/8gkhBEwm00O5CS+EyFZQkl5GQZHD4XDpHlE6eZynEctoarT0nEMZb9BoNG5r1+S2Hp1Oh0KFCt33fL1eD41Gk+GUcM5hFFE2pP1QSlkBEuEGi/mkBfjayzURFSwCEIARgARkPSHxkeGO+QcLEJMXlzcYDAgN/SfvSE1Nhb+/P9avX5/h8cnJyerjYsVyfhOQHgl/r/0mSkBinBXiMoBFXq4pUweuHsOBq8c8OqZDSvz38JoHvk5s/HnExp/P9fnHbpzK9bmnb1/E6dsXvTJ2ijX1gV6/BxkbAL45u++Bzt//d5CTGz/+dRA//nUw1+c/yHO/cOcvb77uBgHxVm5PllIKALkLf4iIiIjI6xj+5BNWq1Wdcs1qteYqrMmKEnQIIWC32wFkHXYoU8Mp3T9SSrXrx5lOp1P3+fr6qsGG2WyGVqvNdCozh8Ohdrt4I/SQUsJkMqkdV56grKljNpvVIEjxMNfakVKqU/Hl9feVxwlISFkwFscWomza2g85IwG7gBSQuAghlhg0+hVJo4/deBgl0uNJprXLWABZAL6vhAZAuVyeawWkDg78LjVyiTVFuxbhJ5LyqrIiRYpg7NixbtsbNWoEm83mtt15jR9l7b4CQ+IaIC97u4y8IUpDCehzRgLCDsg4SBGhcTgiUsfHXszj4vKEuZAtSp9sfDq35wuNnALI9g9SQ/3Swfhvu8kPcolceX3XJBy5HoPv+30Og/bhdWxn5M1dk/H79ZOY2+Y9PF22nkfH3nhqJz4+sBwDanXDaw37e3RsAHhuTV8YtDrs6bva42N32vAy7prvYfdLESik92yn/KjvpiPqyh+YETYazSs+5dGxY+PPYVjk+Ae6hpC4JR+53+2iEIBAb1dBRERElFcY/uQDUkr1Ro/ZbIbdbneZFuxBORwOpKSkAEgLa8xmM4C0qc+UcEaZ3k0JfZy7YooWLYratWujTJkyKFWqFEqUKAGbzYY//vgDO3fuBJAWKpjNZmg0GthstkzDHyX4SElJUcfMbbeTEmj4+PhASgmLxaI+X4PBAI1Goz4XjUajhl0OhwNJSWn375QupgdhtVphNptdXs+M2O12mEwm9f329fWFRqOBxWJBamoqDAZDltOz5ZbdbndZ0yh98ATkzevgERJ2y9jYR3/F8vnVjIYUffZvIkthg5BSSnlHQPM/CO0qy7gTMQBgeWhF0uNKQABCHrWMic31zd38Qj+rVn0h7Yf/DoHuT8AMQAeJiwLyMy0cn5vGeXbarW7dumHjxo1u28uV+yfDunnzpidLeugsY2O6eLuGvKKfGXRTQGR3jQs7ADskUiXkaki5wjo+NvetDZ7y1tl7ViDXLRSGWSHxuZuS8R+F9YXQqGztB7tILscFgIZlasFHZ7jP0XmriCFt7OoBlT3+3A9cS+vwKl24hFdedyEAjdB4ZWydJu3fD/XLhMDfUPg+R+etosa0pdCqBlTy+HPPi38WmMfGvPzgV/Es/czggQJY5e06iIiIiPIKw598QOn4AaB25eTlzXiLxaJe1263o2jRorDZbEhNTVXHVrp69Ho9mjVrhlatWqFhw4aoW7dupgtLK2sVaLVabNq0CZ07d0ZKSopatxK8KF+bzWY13LLb7ahZsyZOnToFq9V63/VulPV4lGtZrVY17NHr9TCbzS6flLbb7dDpdOoxynHpO42UYERKCYPB4BbeKK+dwWDItFNKee3STyOXnrLez4cffohRo0bBbDbDx8dHrTGjT3orz9XhcLhMpacEbHq93m1tpczqA6C+TkrwpFwrJSUFWq0Wvr6+j0YI9IjTmYxPQdxnLW8BCYc0Q2i0gNwupFxhSS2zA+H7Mv5GISI3GmlvJqVIhUAWnzKQdkDYIWERwBd2qVlpG3fyZ89V6apSpUoYNGiQ2/ZnnnkGK1asAAAcP37c02VRNvhMD3rCIUWJ+y8FI1MAoYfEXmjEMkuK2ILwk8zyiYiIiIiIKE8x/MkHlGDmYbHZbNBoNGoI0Lp1a1StWhWzZ8+G3W5HqVKl0LdvX3Tp0gVNmzbNdifOxYsXAQClS5dGhw4d8NJLL2Ht2rVqeKCEJWazGUajUQ03lP+uWrUKzZo1g8VigRAi066ZlJQUWK1WaLVadW0c51BHmUKudOnSMBqN6NChA9asWQOTyQQAmDJlCr766iscPXoUVqvVZZzU1FS1U0jpXHLuinE4HC7hlMPhQHJyMnQ6nTqFWvrQx2azQUrpEmgpXVWvvfYa3n33Xaxbtw5//PGHGrzpdDr1POfwRQnM0gc8ziGaTqfLcto45X0PCwvDvn371POUc8xms9qN9Mh0AD3ihLB3lxA2kfHv4BQI+EgH9gNiqVWj24jRx/5e7CPWo3USPeocUvQRApnNd5kCIXRwIFJo5DJzMb9v8ephq0cLzIBOp0Pp0qXdtnfr1g1vvvkmrFYrDh8+jLi4OJQvX94LFVJmpFZ0g5QpgHD7npOQqUIIIySOSmg+szq06zH+eII36iQiIiIiIqLHw8NbaISyLaOOkft1kWSXsm5Pp06d1G3NmzfHqFGjMHjwYOzYsQNXrlzBvHnz0KZNmxxNwdanTx8AUG8+vfvuu9BoNC61K0FN+oCrZMmSePrpp9GnTx91OrSkpCQ1iFAooUS5cuVgt9vV6eKcr6eESQsXLsSff/6Jzz77DLt27ULdunXRsGFD/Pvf/8a0adPcjgfSgpGaNWviiy++gN1udwmVlPHT/zf9+kfp95lMJnVqPYvFApPJpF63X79+AID27dvD4XCoxymf8k7fpaPsd35NlHWYGjVqpI6RFSXQmT59OooUKZLh9TJ67Py8lGnj8ur78rH2cQVfATFcAM5z/FmRNv3Pn4CcopXWStZxMc2t42JW/RP8UEGQmJiIxYsX49133/V2KQWe4cMaQULgWeCfPgwJmCEgAfwupfi3RW8oZRkX84J5TOz2/BD8ZKVMmTJqx62UEsuWLcvR+dHR0fjyyy8fRmkEAOHQSIl30gU/dgA2CXFDCPGRAGpaxsY0sI6NXszgh4iIiIiIiB42dv4UQEo4IIRQb+b36tUL33zzDaSUqFu3LkqVKoWIiIgHGueNN97Ab7/9hmeffRYA0LBhQ2zbtg2nTp3CV199haioKDgcDkgpkZKS4hIsVKlSBQCwYsUKvPLKK9i5cydWrVqFy5cvw2azqdOZKVPHjRw5EsnJyfjggw/U4Kdbt27YsmULrFYr/Pz80LlzZ/X6zz77LI4ePap+3bFjR7z99ttYuXIlEhJc77d07NgR3bt3R+3atREdHe2yL7Oww3lKO+eQJH3IpXQlAWnrIoWGhgIAqlWrpu6vXLky+vTpg+XLl8Nut0Or1apBVN26dXHy5EmXOpTrjRo1Ch9++CFOnDihXguAWxeQw+FAqVKl0LhxY6xcuRIvvviieqzy/tSvXx9HjhxRO4kAwGQyqdPAKVMEKvVR7hlsRSYA0g8QDkjYAKRK6VgD6CKs40/meg2F/Gj8+PGIi4vD1atXc3ReQEAANmzY8JCq8o7o6GgsXLgQa9asQWJiImrVqoU5c+Z4u6yCTauZm7bom7BBQkDipoBYKhxitXn8ybPeKsv5929OzZo1C9u3b8fdu3cxY8YM9O/fX/3zJCvx8fF488038fXXX+d4TMoefaGglwFZEVJICWkWEBISXzo0crltdMyPf4eORERERERERB7D8Cefyk2HhZQSqampapeGs2bNmqFJkyY4cuQIGjdunBclwmg0ut2g7dSpEzp16oRq1aqha9euSElJAeB+k0uZ0kan06F58+Zo3rw5PvjgA6xevRrjx4/HtWvX1KneAODpp59GWFgYhBCYOnUqdDodFixYgB07dsBisaB79+7qNGwZ0Wg0mDt3LuLi4tw++VyjRg0AQN++ffHee+/BZrOpAUhGnT8KJShxniYtfajifHzNmjXV6ducp/Rp1KgRateurV4TgDoF3fLly9G6dWskJ//T/KEc07hxY3Ts2BHHjh1Tu4T0ej18fX3V6eoMBgMcDod6/fTvvXKtoUOHYsKECUhNTYXRaHTpsFLeQ3b/PLhCM2uWs0mMRdqCPzsBscwS4BuZ3zsOcmv69OlwOBwYPnw4li9fDgDo2bOn2r2Q3oULF7BgwQLcuXPHk2V6RHJyMvr06YPIyEgkJiZ6u5wCz2d6rVYOODpACBPg2OCQYoVtbMxP+eEGvPL+37p1K8dTbZYrVw6bN29Gp06dkJqaik6dOiEyMjLLAOivv/7CgAEDMGfOHLX7k/LYxxV8hRWzACEl5A9CYpnFkLgZ71xO+wN0jJfrIyIiIiIioscSp33LJypWrJjlfofDAZPJhNTUVPXr9JS1cZ577jksW7YMEydOhBACGo0GFStWxI4dO7B27docTe2WW88//zx69uypdiD17t0bb7zxBpo0aQIAKFy4sNs5Wq0WQ4YMwenTp/Haa6+5TMMWEhICAAgPD8ft27cRHR2NihUrYsmSJejTpw9mzJiRrboqV66sPn755Zeh1+vRtm1bAGmLaQOZT32WnhKcZNb5k/49UkIUIG36HkWlSpVQtmxZNbRRuoW6d++O0NBQ+Pv7u03TVqZMGbVjCPhn6jdlzJSUFJjNZphMJkgp3V739M+rVq1aePXVV2G325GUlKQGPRmtR+VwOFyeC2WfKcV8G1IOseg1pS1jY563jIveUlCDH4VGo0G3bt3Ur2vVqoVevXpl+L8xY8bgxx9/hNVqzVVXRH721FNPoUWLFmjdurW3S3ksaLWIhpA9Lfp7JSxjYofaxuWPzotz587h2rVrANJ+bx87dizH12jZsiU2b96M0qVL48yZM2jQoAFGjhzp1iUaHx+PTz75BB07dsTUqVPVqULpIbh32QyB13Q2VLCOjW1lGRe7Vg1+iIiIiIiIiLyEnT/5RMuWLbFq1Sr16/RhgzLtFpAWkpjNZvj5+amfGLZarbDZbBg0aBAiIiLU7SVLloSPjw/0ej30er3LTdiHbd26dejVqxcCAwPRpk0bAGkdJlFRUVkGUEWKFMGiRYvQoUMHhIeH46mnnkKpUqXU/f7+/vD39wcADB48GIMHD852Tcp5RqMRS5Yswfvvv49KlSoBAOrWrQsg48AjoxDIZrPBaDRmGBYpj52/dl6bp2bNmtBoNOq0b0IIlC9fHufPn1ePe+ONNwAARYsWxZUrV9Rr2u12NG3aFADQoEED9OvXD2vXrlVrV7qOnJ+LEhL5+flBq9Wq+5Xan3zySUybNg03b97Etm3bULduXfz4449ur4UyzZ3ZbM6y04oyEX4x1QKs9XYZnla0aNFsH1ulShW0bdsWSUlJ6s9rQeLn5+ftEh4LyWNOXgOw0dt1KDZu3IjIyEhs27bN5c+FsLAwdO/eHS1btsTAgQOzfb0OHTogOjoaU6ZMwRdffIH58+dj/vz5MBqNKFu2rLqG3oABA7B7926ULVv2YTwtUoTDYUHsuqxX4CMiIiIiIiLyLIY/+USTJk1cwh9nNpsNNpsNxYsXR3x8vMtUasq0aFarFRqNBnPmzHGZQkYJELxBp9O5Te/01FNPISIiAiVKlLjv+V27dkXXrl3ztKbAwEAAQJ06dSCEUIMfIC0o0+v1bl02yn9TUlLUfYUKFYLJZHILfpy/dg5hAKBChQrqYz8/P3To0AGRkZHqp7GLFy+O8+fPw263IzAwEM2bNwcAtfNHSql25CidPACwevVq9O/fH4cPH8bEiRPduiaGDh2qTvum0WhQokQJ3LhxA8nJyer3UMWKFaHT6dTvwZs3b6JUqVJu4c+kSZPwzTffoFixYtl8xYmQ43WixowZU2DXlvJE5yXlPz169ECPHj3y9JqBgYGYO3cuPvroIxw5cgSXL1/GjRs3YDQaUbVqVTRs2JAhPREREREREdFjjOFPPlC8eHG3+fqllGroo3jnnXfw3nvvuRyjhBJ2ux1FihTJVqjiTa+99hpu3ryZ5zfBsqtPnz745JNPXMITRWxsLKxWK/R6PQDXaduU90GjSZspsV27dvj6669d3h9F0aJFcffuXTX4MRqNEEKgU6dOLsd9/fXX+Oyzz9QunsDAQHXMtm3bqmMp4Y+ynpNGo0HPnj3V62g0GnWdpYkTJ6qdQ127doUQAkuWLHEZt1SpUrh+/boaKCnBj7PAwEBotVq38Kdz586YNGmS+wtLlIeU4LMgSv+zRvSgtFotQkNDERoa6u1SiIiIiIiIiCgf4Zo/+cCTTz6JWrVqwWAwuHTymEwmWCwWWK1WFC9eHM2aNXM5T0oJi8Wi3qBPTEzE0aNHPV5/TgghMGnSJLUTxdNKlCiBDz74AG+//bbbvnv37gH4J+DJaJ0fZdsLL7wAAC7hj7Jej3IDTun8qVChAs6cOYNRo0a5XEuv1+ONN95QO7WKFy+u7nNem0EJf6xWK0JDQ/HZZ5/hiSeecKutRo0aqFSpklrj5MmT8cUXX7jdbFa+VqaCK1eunNu1tFqt2iXlfA47fuhh+v7777Fnz54M9128eBHvvfeeyw3uzZs3o0OHDqhTpw6GDh2Ky5cvZ3n9Xbt2YeDAgahfvz4aNWqE/v37Y+fOnVmes3//fgwdOhTPPPMM6tatixdffBGrV6/OcHpIZyaTCfPmzUOrVq0QFBSEdu3aYe7cuWr3Xla2bduG3r17o06dOggJCUHPnj2xe/dut+OklPj+++/x0ksvYcKECQCAHTt2oHnz5ggLC8Px48fvOxYRERERERERERVMDH/ygSpVqqBs2bL49ddfsW7dOgCu685IKVG/fn23dTOU7iBn169ff/gFP+JeeuklPPnkk27by5QpAwBu6+E4U/ZVr14dNWvWdHn9lX01a9ZU18YRQqBw4cKoUKHCfT/x7xz+KOsPAa7rpUydOhUvv/xyls8NSAuC6tWrBx8fH7djlIAxKSkJQNpUfBlRXg+j0Yinn34aABAQEJDlcyB6EN9//z2Sk5Ndth04cACdO3dG1apV8eGHH+LUqVOwWCwYNGgQevfujfL0aPMAACAASURBVKioKJw4cQIRERFo1aoVUlNT3a6bkpKC3r17Y9iwYejatSs2btyIyZMnY8eOHejYsSMmTpzodo7ZbMawYcPQo0cPdOzYEVu2bMHSpUuRnJyMQYMGoXHjxrh27VqGz+PChQto2LAhFi9ejIkTJ+LQoUN499131XVZMpOamoqePXti2rRpGDp0KNauXYvevXtjy5YtaNeuHcaPH68e+9///hfBwcFo1aoV1q9fj1u3bmHjxo14/vnn8fPPP+OHH35wOZ6IiIiIiIiIiB4vDH/yAaWLo0GDBggODla3d+3aVb15r0zr5sxut8PhcLiEA+mnj6PsK126NIQQauiTUeePwsfHB61bt3bZphxfvHhxl3V6srvAu3NXjXM45bzofcWKFbO8xrRp07B8+XLs2rXLZe0nZ2+99RaAtFDpu+++w7x58zI8rnz58gDSOoNsNht0Op1LNxBRbqSkpCAhIcHlf3/++Sc+//xzfPzxx27HV65cGcuWLUObNm0ApP2cvfLKK6hduzZu376Nu3fvYvXq1QCAM2fOqAG6QkqJvn37YteuXdi/fz969eqFqlWronPnzmqQOmXKFHz//fcu57366quIiIhQu3DKlCmDZ555Btu3b8ezzz6LQ4cOoU2bNuoabIp79+6hXbt2SEpKwv79+xEWFobChQujffv22LFjR5YdQ6+88grOnTuHH3/8ER07dkSdOnUQHh6O2bNnAwBmzJiBzZs3AwA6duyIjRs3qr9frl69ihUrVuDgwYMYPHgw9Ho9WrZsme33hYiIKLdMJhPCw8MxdepUmM1mt/2rVq3C22+/jYsXL7rtO3jwIN588018++23HqiUiIiIiOjxkq8WH+izZaTUiZwv8p1oMYkShR7djoQqVaqoj50XZ37qqadgNpvx7bffIj4+3iUEAP7pDho+fDg+/fRTFC1aFJUrV/ZM0QWQ0WhE0aJFkZiYCOCfzh+NRuPWBeTr64tWrVph0aJF6jYl/PH390fJkiWRmJgIKSUKFy6crfGdQzznqdic3/eyZctmeQ2dToehQ4dmecyAAQMwadIkrFixIstupAoVKqj/LVGiBOLi4jINlIiya9asWZg1a1a2jy9dujSAtHWAdu3aBbPZjCFDhiAsLEw9ZsCAAZgyZQpOnz6NqKgol5+BdevWYcuWLRg7diwqVarkcu127dqpwcqFCxfUsGTXrl1YuXIlnnvuObfOOL1ej4ULF6JBgwY4efIkPvzwQ0yZMkXdP2HCBJw9exbz58936eYDgKCgILRt2xaRkZFuz3P//v1YvXo1Nm/eDIPB4LKvd+/e+Pe//w0AmDt3Lrp3764GxE8++SSOHz+OH374AbGxsShXrhwiIiKwYsUK/rwSUb7WaEV3qcnd7yn+cstn5syZg8mTJwNI+zvyu+++q+77/fffMXjwYADA8ePH8d1337mc261bN1y9ehVLly7FtWvXOMUwEREREVEeyhfhj4S4KYSITba6T9eTzQtUBaDP06I8oG/fvujYsaNLZ4hz+FOyZEm0bt0a3377LXx9fd3CHyWQaNasGV5//XX4+vqqU3pR7pQtW1YNf5Qwp2zZsoiLi3M5zsfHBy1btswwGFLCn/Pnz+eo80cJf3x8fFCoUCG37Xq9Pk+mXRNCICYm5r7T0IWFhWHZsmUoX748wsPD8c477zzw2ESTJk1CeHi4yzaTyYS9e/diyJAhmZ6n/Ez4+Pi4BD+KGjVq4PTp04iPj3fZ/t///hdAWtCTXps2bbBx40bcvHkT/fv3V7cvWLAAQFrglBFlzaBDhw5h0aJFmDhxIvR6Pa5fv45ly5YBALp06ZLhuXXq1Mkw/ImIiAAAxMbGYsmSJW779Xo9rFYrfvvtN3VKSeCfPzNefPFFl9CYwQ8R5VtSxkGI2ESrKTfnCgA187wmeiDOf291fgykfbhK+ftyRtMRK3+OOa99SkREREREeSNfhD/WsTGLACy674GZMMwMPg+gyn0PzGcMBgNKlSrlss35H0xGoxEDBw7E2rVrERoaCoPBAKPRCLPZ7BI6lC1bVp06jh5MQECAy5o/RYsWVbtenPn6+iIwMBA1a9ZETEyMyz5/f3+UKFFCfX+y2/mjBDvp/2GshD+lSpXKsxu6RqPxvsf0798fBoMBtWvXRrVq1fD111/nydhE6RUqVAhdunTBq6++muUxWVHCcefpZpKTk3HgwAEArt10zl588UWXr5OSkrBz504AcPv97KxFixY4dOgQbt++jaNHj6JRo0bYtm0bzGYz9Hq9S0ens8xC16ioKLX+hIQEt/3O3UVWq1XtDnK+aUZE9CiwjI0ZA2BMrk4OD9MZfK9b87YielBvvfUWChUqBJ1Oh3/9618u+2rVqoVvvvkGv//+e4brVu7YsQPr169Hhw4d3Ka4JiIiIiKiB5Mvwh/6h3PnjxACZcqUwZ49e9Qbn/7+/khOTkaxYsVw5coVAGkdQpQ3fH191fBHSonq1atnGLgoAU3Dhg0zDX8U2e38UdbYSR/+KDe1a9eunc1nkXd69eqlPuanMelhCwsLyzTgvN/3X0bnXb9+HTabDQBw586dbNVw8eJF9RyNJvNl8YKCgtTHcXFxaNSoEQ4fPgwg+z/zzq5evQoAePnll9XfBdmRVY1ERESeoNfr8dprr2W6v0OHDujQoUOG+2rUqIH333//YZVGRERERPRY412jfMZoNKo3OZUQonjx4mooNGLECLzyyisu4YLzY3owhQoVgpQSUko4HA5Ur149w0/UK+9HcHCw2z5/f3+XtT6y2/lTo0YNaLVat/CnePHi0Ol0aNCgQU6eCtEjp23btmjTpk2eXU9ZFw1AhotMZ+TevXvq41u3bmV6nPMaXconlZWOneTkZPX3d3ZZLBYAQHR0dI7OIyIiIiIiIiIiygjDn3xIufmffi0ZAAgPD8fcuXPVwMdoNHKKhDykhDrKa1+tWjW3KdI0Go26LaPp9ooUKeLynmS3C6BYsWJYtWoVNm/e7LK9RYsWMJlM+M9//pPt50H0qLNYLDh37twDXcM5GP/555+zPHbPnj0AXKeHyyqISUlJUR9Xr14dwD9Br9VqxYULF7IcL/3v98DAQADAli1bsjzv6NGjGf7ZQERERERERERE5IzhTz6kTPGW1SfHlc4STvmWt5TwR+kYqFatmtr5o6zV4RwG9e7dG1arFS+88ILLNZSp2oDsd/4AQL9+/VC/fn237Xq9PldTSRE9qubOnYvY2NgHukZAQACqVasGAFizZk2mnTwxMTHYtm0bgLRAVwl19+7dq04Bl961a9cAAKGhoahYsSIA16kZIyMjs6wtNTXV5evQ0FAAwIoVK3D69OkMz7Hb7Zg4cSKneiMiIiIiIiIiovviHaR8SAkgnNf/Sa9s2bIAMl/EnHJHCd6U8Md52rdKlSoBcH1f9Ho9dDqdy7b03VgMbehx5xx0ZBamOIuNjcWiRYvQrl07dZsShmfW9ZLZ/n79+gEA7t69i2HDhsFqdV0nPCEhAX379sWAAQPUbSNGjAAAxMfH46uvvsq0RgAuaxx069ZNnbZz9uzZSExMzPQ5OncOAcBLL70EADCZTOjSpQvOnz/vds67776LunXrumy73+tCRERERERERESPJ4Y/+ZASFgQEBGR6TKNGjQBkPO0Y5Z4S/jhP+6aEP1WrVgUAtzV5ANdAyGAwuIQ/Oen8ISqIbty4oT6+fft2lseeO3cOXbt2Rfv27aHX69Xtd+7cAZAWmphMJrfzlDDl6tWrLtvffvttVKhQAQCwdetWNG3aFMuXL0dkZCSmT5+O4OBgBAcH46mnnlLPeeutt9SQZdy4cerYimvXrmHTpk1o3rw5hg4dqm6vUqUK/u///g8AcOnSJXTt2tWl2yg6OhobNmwAkBYs/fXXX+pzefHFF9GkSRMAwJkzZ1C3bl2MGDECy5cvx5w5c9CkSRNs3boVY8aMcalFOf/69etZvKpERERERERERPS40Xm7AHKnBAnBwcGZHqOEP02bNvVITY8LJXiz2+0oVqwYSpYs6RL+7N69Ww2InDlvSx/+sPOHHmdxcXFYvny5+vXnn38OvV7v0rVot9tx9+5dnD9/Htu3b0dqaioWL16s7r93757LWlgbNmxAv3791J/Nixcv4pdffgEAnD59GocPH0bDhg0hhEBAQAC2bt2K9u3b4+bNmzh06BCGDRumXqt58+ZYunSpS81GoxGRkZFo27YtYmJiEBYWhrlz56Ju3bo4fvw4hg8fjnr16mHz5s1uU7DNnj0b586dw86dO7Fv3z5Uq1YN7du3h81mw8mTJ1GnTh2cOXMGVqsVjRo1wsCBA/HRRx9Bp9Nh48aNaN++PY4fP47k5GR8+umn6nWLFi2KnTt3uvxuOXDgAE6cOAEA+O6777Bnzx60adMm528SEREREREREREVOAx/8qGRI0fi8OHDWXb1BAUFoWTJkmjevLnnCnsMOIc4yvodzz77LO7cuYOgoCAA7Pwhyq7Ro0fj3r17qFq1qto5B6RNA5fRtGaBgYEYNGgQ9Ho9WrRoAQA4fPgwli1bhrp166rdOFFRUThw4ABmz56NVatW4ciRI+jWrZt6nSVLlqBBgwZqF06DBg1w/PhxTJ06Fdu3b8ft27dRtWpVDB48GCNGjHDpMFKUL18ehw8fxsKFC7Fhwwb07NkTPj4+CA4OxqRJk9CnT58Mz/P19cX27duxePFirFixAmfOnMHBgwfRtWtXLF26FB9//DHq1KmDESNGYMCAAS6/H8qWLYvffvsNn3zyCTZs2IBz587B398fbdq0wfvvv48nn3xSPXb27Nk4e/asy3R1X375JX766SdMnjw52+8REREREREREREVTAx/8qFBgwZh0KBBWR4jhEC7du1Qr149D1X1eHAOf+rUqQMgbf2PESNGqAu4Z7QWU1Zr/jD8ocfV7NmzH/gaoaGhCA0NzXS/85o7WSldujQWLFiABQsWZHtsX19fjB49GqNHj872OQCg1Wrx+uuv4/XXX3fbN3XqVEydOjXLMceNG4dx48ZlOUZOayIiIiIiIiIioscL1/x5hL3zzjvq4uKUN5ynaKtVq5bLPmUNpow6f5xDI71ez2nfiIiIiIiIiIiIiMhrGP48who2bOjtEgqc4sWLq4/Thz/FihUDkHHnjxL+6HQ6aDQa+Pv7q/sY/hARERERERERERGRJzH8IXJSunRp9bGy5o8iq84fJRBSgh5O+0ZERERERERERERE3lJg1vyx2CyIPLcvx+dF3zqb98XQI6tmzZoQQqBkyZIoUaKEy77ixYvj888/R5UqVdzOU8IfJegxGo3Q6/WwWq3s/CEiIiLKQ7dT7+bq7/15MS4AfHvhJ+g1np16Of7vsQ9ePQ6rw+bRsWNupv176XzCX1553aUE7A6HV8a2OKwAgN0X9sNXZ/To2DdTbgMADl87AZ2Hv9/OJVzy6HhERERE9HAUmPDnjjkR3TeO8HYZ9IgLCAjA8uXLUa5cObd9er0e/fr1y/A8Zdo35+neihQpgoSEBIY/RERERHko+tZZr/69v/fmN7029uSfF3ht7M2nd2Hz6V1eGdtut3v1Pe+35d9eG3tG1GdeG5uIiIiIHm0FIvyRErOFRgTk7lz5hACG53VN9OgaMmRIjs9ROn/ST/eWmpoKjYazKxIRERE9sEn77Jgd8p4XK6gvpCwmNfgBUkhPDiwlKmsgq0CIoxJI8OTYAqIopKMBgEtSiPOeHBsAhMRzUjiSAM3vnh4bUtYRQHGp0fwEKe0eHRqoqJGyKiROSI245cmxFRrgoDfGJSIiIqK8USDCH+u4mE9ze65uVkhzISXDH3ogSuePc/gTEhKCGzdueKskIiIiooJFQFoQ/aG3yyCP43tORERERJQLBSL8IfK2jDp/duzY4a1yiIiIiIiIiIiIiOgxxvmoiPJARuEPEREREREREREREZE3MPwhygOBgYFo1qwZgoODvV0KERERERERERERET3mOO0bUR4oV64cfvrpJ2+XQURERERERERERETEzh8iIiKiByUg7iRZTMLmsHu7lByxOexIspiEAG57uxYiIiIiIiIiyjsMf4iIiIgekIS84pAOXEm67u1ScuRy4lU4pAMSuOrtWoiIiIiIiIgo7zD8ISIiInpAQspfAWDXhZ+9XUqOfHs+rV4h8IuXSyEiIiIiIiKiPMTwh4iIiOhBaXRbAMiIYxshIb1dTbZISKw8vgkApBCOrd6uh4iIiIiIiIjyDsMfIiIiogdkHnPiHIDNB68ex/rob7xdTrasO7kdh6+dAICvUkefuuDteoiIiIiIiIgo7zD8ISIiIsoDwi7HC4GU13eFy+M3T3m7nCwdu3EKb+wOlwLCJByaCd6uh4iIiIiIiIjyFsMfIiIiojxgnhB7WjrEkCSLCW3WDZJ7Lu73dkkZ2nXhZ7RZN1AmW1IgBYaYx5886+2aiIiIiIiIiChvMfwhIiIiyiOWcdEbpJD/upuaZO2y4RX03/oODl094fV1gCQkDl49jr5b3kbXL1/FPXOyVQr5L8uY6C+9WhgRERERERERPRQ6bxeQX2w/+z3+vBvn7TKIKBMX7vzl7RKICrSbptv48a+DcEjvhhQFgXVMbIR+ZnCsABZ8Fbuz0VexO1GmcElZPaCyKFkoEALCY7VISNw03cbphIvyetKttIGFPCil9g3rmNgDHiuEiIiIKB8yzhr7ppRo5o2xhUApCVFVQJ6TEjc8OziMgGgIyJuQ8EYXeAMAWgCHvDA2AECr172T8s403ggkogKN4c/fTsWfx6n4894ug4iIyCOUsOfHSwfww6UDiIk/57RX2L1WWAFhHRvzKySeNs6q9bwUjl7Xk2+1uZZ0s4y36hFCXAewW0j5pXlM7HYIL7ciEREREeUDUsomgOjtnbGBtI/qoKLnB1f/ryKAhh4f/x9Pemtgu8MxGQDDHyIq0B778MdmEr/5FtFU8nYdRJQNtlTerCTKpZum2zhw5Sh+ifsDe/+Mwh/XotWpyASEDQJHIbFHo8Ge1OSUn71cbsEgIM04uRXAVgBAeC2DbxFRWloseo+VYDBYUxLldYSftKgbx3lqdCIiIqJHww8DRqBCkaIeHXPM3u3YeOo4ZoR1Qq/geh4d+8CVS+i75XN0rV4Lc9t09ejYAFDzs5kI8PHFr4Pf8vjY4/dFYkPMUY+PS0TkDY99+IPwk5YUgPNJERFRgXK/sEcK6RT2mH5G+MVUL5dc8PHvHERERET5Ulm/Ih4PfwrpDQCAYj6+Hh/7op/f3zXoPT52GgEhhFfG9vv7dSciehww/CEiIioAGPYQEREREREREZGC4Q8REdEjKKuwB0C6adwY9hARERERERERPU4Y/hARET0Cchb2pDDsISIiIiIiIiJ6jDH8ISIiyocY9hARERERERERUW4x/CEiIsoHGPYQEREREREREVFeYfhDRETkBQx7iIiIiIiIiO5jfri/0ZTSxNtlEOWIxnHWPGb2OW+XwfCHiIjIAxj2EBEREREREeWMPsVUQwqx09t1EOWIFOEAJnu7DIY/RERED0H6sOfI9Rg4pEPZzbCHiIiIiIiIKJueLlsR7Z+s6e0yiLJ0/s5tfH7yd2+XoWL4Q0RElAeyFfaAYQ8RERERERFRTjUqWxH/ebaNt8sgytLuC6cZ/hARET3qGPYQEREREREREVF+xfCHiIgoGxj2EBERERERERHRo4LhDxERUQYY9hAREREVPIZZQT20Du3BlHEnL+XoxHBoDD7BvfUazb7kMSevPaTyiIiIiPIMwx8iIiIw7CEiIiJ6LDjEe3bhCDHMCgq3+NgW4a2z9+53is/0oDCHBvMB1LHb7S0BMPwhIiKifI/hDxERPZYY9hARERE9foRGrJBSzoMUkwwp+kmYGbQeUrMHEOUA9e+CPsYZQe0lNE0hHAMdEBUBaCXkrVRz7I9eLJ+IiIgo2xj+EBHRY4FhDxERERGZbZYvDFrdXED4AACEGACgF+Ao5HRYQynEVsAhAWEEAAmkCo34H8L/SYiIiIiI8jOGP0REVCDlKOzRJu7HO5dTvFguEREREXnChLM3MTNoDyTaQkADCS0gC2VwpAEQ6hcCMMKhXem5QomIiB4fNpsNN27cQLly5bxdSoHC8IeIiAoEhj1ERERElD3aZVLYw8TfXT3ZIuRJy5gTMQ+xKCIi8jKLxYLvvvsOUVFRiIuLg8PhwBNPPIHQ0FC0b98eer0eALBw4UK88cYbXq62YAkLC8P+/fvx/vvv44MPPvB2OQUGwx8iInok3bMk4dDV4/juYhTDHiIiIiLKNksKthp8hQVAdsOfFAHNkodZExEReY/ZbMbcuXMxZ84c3L17F127dkX9+vVRqlQp3L17F4sXL8Yrr7yCPn36oHjx4vjkk08Y/uQhs9mMAwcOAAB++OEHL1dTsDD8ISKiRwLDHiIiIiLKE+EnLWJm0BcSYggA/f1PkAazzfrFwy6LiIg87+LFi+jatSuOHz+OXr164eOPP0aFChVcjhk9ejROnTqFAQMG4NChQ9BqtXA4HNBoNF6q2tWFCxdQpUoVb5dxX5nVaTQa8b///Q+bN2/G+PHjvVBZwcXwh4iI8iWGPURERET0sNglIjQa/Avyvoc6ILAbE87e9EBZRETkQZcvX0azZs0QFxeHfv36Yc2aNRBCZHhszZo1sXfvXjRv3hxHjx7FvXv3UKxYMQ9X7O7s2bMIDw/HmjVrvF1KlhISEvD6668jMjIyw/0DBw7EwIEDPVxVwcfwh4iI8gWGPURERETkKbZxsb8YZgbHAaiU1XESsApgmYfKIiIiD3E4HOjduzfi4uJQrFgxzJs3L9PgR1GkSBGsXLkSDRs2REJCQr4If2bPng2Hw3H/A71s4cKFSEpK8nYZjx2GP0RE5BWJlmQcvHqMYQ8RERERecsyQI4HhG9mBwgJq8XXtt2TRRER0cO3cuVKREVFAQDeeecdlCxZMlvn1atXD927d8ft27e9PtXanj17sGzZMvTp08erddzPsWPHMH36dDRq1MjbpTx2GP4QEZFHMOwhIiIiovxEo8Uqh12EZ3qAgFVArsVbZ82eq4qIiB42KSVmzJihft2tW7ccnT9s2LAsu1iuXr2K2NhYmEwmVKtWDTVr1szyehaLBXv27EHr1q1hNBoBADExMTh37hyCgoJQrVo1t3N++ukn9OjR475dPzdu3EB0dDTCwsIApAUxN27cQMuWLaHVatXjpJS4ePEiLl68iOTkZFSoUAF169bNcl2je/fu4cSJE0hJSUGdOnVQqlQpnDhxAjVq1IDBYAAAnDhxAh07dkRKyv1v8cTGxiI1NRX169e/77G5ER0djbNnz0IIgfr166NixYoPZZz8JH+sSkVERAVOoiUZe/+Mwns/fIwmq3qh1CfPoOP6Yfjot2X4/dpJmwOOwwBmajRoa9En+lvGxDSyjI0Zlzo6Zg+DHyIiIiJ62FJHxfwJiYNAJiv/SCEcECs8WxURET1sf/zxB06fPg0AKFu2LOrUqZOj8zt27IgWLVq4bT9z5gy6deuGsLAwrFq1CnPmzEFISAhCQkKwY8cOt+PPnz+PcePGoWLFiujcuTMSExNx5coVdOzYESEhIXj++edRo0YNvPvuuy7nffjhh2jdujXu3bsHANi4cSMCAwMRGBiIfv36QUqJffv2oW/fvqhYsSL+85//wOFwYPjw4ahXrx7atm3rsr7OL7/8glq1aqF9+/bYtGkTFi9ejIYNG6JSpUrYunVrhq/B3LlzERISgjVr1mDz5s1o0aIFKlasiKZNmyI5ORkA8L///Q+NGzfGlStXAABRUVFqnUoYZbFYsH79erRs2RIhISGIiIhQx9i+fTsaNGignhMYGIi2bdviyy+/dKklIiICzz33HAIDA1G/fn18/fXXLvt//PFHNGjQAIMHD8ann36K3r17o3LlyujRowdu376d4fMrKNj5Q0REeYKdPURERET0qJECS4WU9SCETwZ7r1rHxPyGsZ6vi4iIHp6ffvpJfVy9evX7rvWTHfv378fzzz+PF154AdHR0WpXza5du9CtWzd07twZCxcuxIgRIwAAv/76KxYvXoxdu3bhxo0bANLCo8GDB6NVq1aYPn06vvnmG/z888/4+OOP0a5dO7Rv3x4A8Oabb+K1115Dv379sHPnTjz//PNYunQpAECv12P+/Pk4ePAgvvzyS9jtdgDApEmTcOHCBfj5+SE5ORm//vorgH86c4oVK4bo6Gj4+fkBAGbNmoWxY8fipZdewpkzZ1C+fHn1uW7atAkTJkxAdHS0OvWd1WrF4MGDsW7dOvW4l156CS+++CJGjRqF5cuX46mnnsI333wDAOrrM2bMGJw+fRr79u1ze027dOmCli1bolWrVjhw4AAAYNGiRahevbrLcUOGDEHp0qXRu3dvbNu2zaWjZ9OmTXj55Zfx5ZdfonXr1gCACxcuoG3btti0aRPOnz+PX375Bb6+mc4A+0hj5w8REeUKO3uIiIiI6FFn9bV+CSEyuDciU6HBUohMuoKIiOiRderUKfVx8eLFH/h6iYmJ6N+/P7RaLebPn+8ynVq7du0wceJESCnx1ltvqaFL48aNERERgfHjx6vHTpkyBXv27MHixYsxbtw47NmzRw1dnEOVIkWKICAgAHq9HgBgMBgQEBCAgIAAFC5cGCNHjsSaNWvQtm1bAGkdRklJSdizZw9OnTqFSZMmYc2aNQCA+fPn4969ewgJCVGDHwAYPnw4ACAlJcUlLAOANWvWoHTp0i5rHun1eixevBj+/v7qNj8/PwQEBKhT2el0OrVO5bh58+Zh27ZtKFq0aIavrZ+fH2bPnq1+fezYsQyP27NnD15++WWX4Oevv/7CkCFDMHnyZDX4AYAqVapg+vTpAIAjR45g0aJFGV6zIGD4Q0RE2cKwh4iIiIgKnLfO3gPE3xpjxQAAIABJREFUVgCuiyYIYdTAscY7RRER0cOkTJcGAAEBAQ98vXnz5uHPP/9Ex44dUbhwYbf9b7/9NooWLQq73e4S9gBAyZIl1ceLFy9GpUqV1K+NRiNatWoFADh79myO6ypRogQAwOFwYMqUKQCA8uXLIzw8HE2bNgUANYRJv/6NEiQBcJsa7fz58/jzzz/VLh6Fv78/evTokeM6tVotihUrlun+5557Dg0aNAAArFy50m2/2WzGmjVr8Nprr7lsX7hwIRITE9G7d2+3c0JDQ9XHGzduzHHNjwpO+0ZERFmKjT+P0BUv4OTNM5B/f/BRQFgA+Suk2KcR9n2p+uRfGfAQERER0aNISCyXAt2dt0ngQOroUxe8VRN5hgBKSQBfxR5DoG8hj459NuEWAOCXyxc9Oq7z2OcT4rHi2EGPj++QEqlWq1fGPnM77blLHYp4fHDKN5yn+EpJebBbGVJKdZ2aoKCgTMfr1KkT1q1bh3379uHq1asoW7YsAKBQoX9+9zg/VpQqVQpAWndRTinXq1atWoahFABMnToVbdq0QfPmzdVtNpsN33zzDaRMuwdksVhczqlWrRqOHj2KHj16YNSoURg7diyKFEn7kZo3b16mY2Xlfue88cYbGDZsGCIjI3HhwgWXrqNNmzahXr16qFGjhss5kZGREEKoQZcz5bkBuQvWHhUMf4iIKEs3Tbdxy5RgAeRvkOJ7hj1EREREVJCYn4zepb8YnCQklDlnrIBY4tWiyCMkUA0AJvzgvhC7p6w6cRirThz2ytgHrv6FA1f/8srY9yxm/N9O733aXmPVlPLa4OR1pUuXVh8r6+3k1rVr13D+/HkAcJnyLL3Q0FB16rajR4+q4Y+PTwZLzjlRpkxzOBxZHpcRg8Fw32N8fHzQoUMHAMDVq1exYMECfPXVV2jbti10urTowDkoAYD33nsPu3fvxr179zBt2jR8+umnGDlyJEaOHJnp9G3ZqSMrffv2xZgxYxAfH49PP/0Us2bNUvctXrwYb7/9tsvxdrsd0dHR8PHxwblz53JVU0HA8IeIiDIWsk/ifMgHGil+SDXejWLYQ0REREQFUm/YMQPLITACgBEQsDpS/5+9+45vqvr/OP66aZsOStllW5YgAuJARMCBDBGQKUNUQLAgywHSAg7qT4QWVHB8QaagIMhwgAxRhoAgU4YyZKrsWUZ3m/P74yRp0ibpoIPC5/l45Jvk3nPuPTcJ8iXvfM65deeAEXYGxmEFIR2r16aQ2TdPz/3rP0f491o09wWXp3ZwmTw996lrV1n9zyHKFCpM88rVM+6Qw+b8uRNvk4lud9+b5+fefPIfDl++gMXHcmPf+IsCrX79+vbHf//99w0d68SJE/bHnqqIbGEPQGxs7A2dM6ddv36dt99+m7lz5zJkyBC2bt1K0aJFWbx4MVeuXEnX/r777uO3334jNDSU33//nUuXLjFq1CgmTZrEpEmT6NixY46P0d/fn969ezN+/HhmzpzJu+++i7+/P/v27ePYsWM8/fTTTu2vXr2KxWIhLi6Oq1evegzmbmUS/gghhHCtCymJ7BuV38MQQgghhBAitxlelllYjFcBC8pYwvCj6b/tErcchToHBpFNWhNS5MbX/ciKl5Yv5Ks/d9Dv/ga8eM+DeXrujSeOsvqfQzweUpXprTrn6bkB5u3bRTF//3w598srF3P48gWMZLI+h5a4ZTz++OMEBgZy/fp1/vvvP3bv3k3dunWzdSzH6pp///3XbTvHypYKFSpk61y54d9//6Vp06bExMSwcePGdFOnuVO7dm02bdrEvHnzePPNNzl+/Dhnz56lS5cufPvtt7Rt2zbHxzpgwAA++ugjLl68yPz583nxxRf5/PPPCQ0NtVcp2Ti+3ps2bbJXN91uTPk9ACGEEEIIIYQQQoj8lDjs4B7gMBgmw2RMz+/xCCGEyD1BQUH07NnT/tw2HVtmXbt2zd6nevXq9gBo69atbvucP38egEKFClGrVq2sDjnXdOvWjcOHDzNq1KhMBz979+4FwDAMunfvzoEDBxg1ahReXl6kpKQwYsSIXBlrpUqVaN26NQCfffYZsbGxzJ8/n5deeildW39/f0qVKgXAlClTPB43IiIix8d6s5DwRwghhBBCCCGEELc9A2OywjiXUOmvn/N7LEIIIXJXREQEJUuWBHSQcOjQoUz1s1gs9O7dm3vuuQfQIcNTTz0FwPbt2zl+/LjLfqdPnwagXbt2FCpU6AZH7ywlJSVb/U6cOMHmzZsBqFatmtt2CQkJTs+HDh1KUlKS/bmvry8RERFERUUBsH//fpKTk3NsnI4GDRoEwM6dO3n11Vdp0qSJ05R6jpo2bQrA999/z5w5c1y2+fXXX2943aebmYQ/QgghhBBCCCGEuO0lFA34n7e3qR5duPFvp4QQQtzUSpYsycKFC/Hz8yMmJobWrVu7DW5sEhMTCQ0NpUWLFk7VO2+//TZeXl5YLBbGjh3rsu/q1avx8/Nj1Cjn2fUdgxVXawbZQpSYmJh0+wICAoDUYMl2HovFAmAPaOLj412OycvLy/547dq1TvuWLFliX+/H1n/Pnj0AXL58mW+++Sbd8bp06QJAmTJlnKZhczXO3377zWntI9v1ZbQeUrNmzbjrrrsAmD59Ov3793fbdvDgwRiGAUCvXr0YPXo0V69eBUApxZIlS+jatSv9+vXzeM6CTMIfIW4e1YDxwP78HogbBvAU8A2wE1gNhAP++TkoIYQQQgghhMgR/XYkxQ3987/8HoYQQoi88fjjj7No0SKKFSvGoUOHuO+++3j33Xc5c+aMUzuLxcLq1at54oknqFOnDqGhoU77H3jgASIjIwGYNm0aX3/9tdP+L7/8kk2bNjFhwoR0U6sdPXrU/vjEiRPpxmgby4kTJ5yqbQD7sX777TfGjBnDO++8w9KlSzGZTE59Dx48SHR0dLpjly1bljvvvBOAcePGMWrUKObMmUPHjh355ptvKF68OAALFiwgNDSUDRs22PsOGjSIXbt2OR3vjz/+sO9zNc5jx44xbNgwIiMjmTx5sj0USk5Otq+X9N9/nv8aNgyDAQMGAHD33Xfz2GOPuW3bsGFDwsLCAF119PbbbxMcHEyNGjUoUaIE7dq1Y+DAgdle70mIG3U/8CGwA7jkcLsAzAHeyr+h5ZsXgc+B/3B+TRxv54DD6HBiHFAnX0aaefWBn4AUQFnvbzZ+wHzrrQHwCpCIHu8+IKOVMYcAS9GfXdv79JSH9rWAz4AjDu1XARHZvQAhhBBCCCGEEMKROSrsa3NUuDoefUnltT7LFihzVLiauXtrnp97w39HlDkqXPVYOi/Pz62UUgHjR6oKn72XL+fut2KRMkeFK/MHI+7O78+fyByfqLB65qhw9drPP+Ta5+L06dOqR48eKiAgQAHK29tbValSRT322GOqQYMGqlSpUqphw4Zqw4YNHo8zdepUFRQUpAzDUC1atFDDhg1TrVu3ViEhIWrRokVObU+ePKlGjx6tgoODFfr7NVWrVi0VERGhzp8/r1avXq3eeOMN5ePjY9/fokULNWPGDPsxTp06pSpXrmzf36ZNGxUbG6t++ukn1bdvX2Uymez7ateuraKiolRiYqLTODZs2KBKlSplbxcUFKS++uorpZRS3bt3V4Dy8vJS772X+me2Xr16ytvbW/n4+Ki+ffuqadOmqYiICFW6dGn11ltvqZSUFKdzXLt2Td133332czRs2FBduHBBKaXU7Nmz1VNPPWXfZxiGCg0NVb/++qvb1/nKlSuqcOHC6tNPP/X4fiillMViUWPHjlX+/v72c9je4xEjRiiLxZLhMbJi1dGD+r8xUWGjuAl4Z9xE5KOd1lsgsAeobN3+BjoUuh19Yb09DtjqEY8BHYF/gGtAceBeoCf6tRoGrAR6AOfzdriZchjoBMxGX8fNKBJoAwQDscDvwEXgK6Am0AxY6KH/R9Zbc+BHwAz0BVa4af8XMAh4Dh10jrCOQQghhBBCCCGEEEKIHFOmTBlmz57NpEmTWLNmDceOHePcuXN4eXkREhJC48aN01XsuBIaGkr37t1ZuXIlR48exc/Pj+bNm9OkSROnadAAihUrxrPPPsuzzz6b7jiFCxemdu3aVKpUKd20Zmaz2f64bNmy7Nu3jw0bNlC6dGn7OkT33nsv1apVIzw8PN2xHad6A2jcuDEHDhxg06ZNWCwWHnnkEYoV07/xnjZtGl26dKFWrVpOawJNnTqV2rVrs3fvXnbu3Mn58+epUqUKW7du5Y477kh3zsDAQLZu3cqGDRsIDAykXr169unYmjZtSuPGjdP1KVKkSLptNkFBQUyaNImnn37abRsbwzAYPnw4ffr0YcWKFZw4cYISJUrw5JNPUqlSpQz7F3QS/hQM14E/SQ1/1uTjWHLa+8Ak4GQW+61HV8h4AVcAxzrDc+gqkVXAD8DXQEt06NCQnK2smQX0usFjXLLe/87NGf6UQwcx+9DBj81cdEXQI+jKpcz4GTiIrsZqA5QFTntoXww4xe0bdgohhBBCCCGEEEKIPFCoUKFMBQoZHaNTp04ZtvP396dKlSpu9wcHBxMcHJzhcWwBU3b62hQvXpw2bdqk2x4QEEC7du3Sbb/vvvsAuP/++7n//vszdQ5vb2+aNGmSbnv58uUzPU5Hzz//fJbalypVih49emTrXAWZrPlTcJxzeHwt30aRs4qgQ4XsfA4twNVMtFsAzLQ+ro+uBsop9wGtc/B46Vduuzm0ITVkS2sGOvzKzHsBOkiqBMSjw+deGbSvCywGkjJoJ4QQQgghhBBCCCGEEMJKwp+Cw7FaxZJvo8hZY4GgG+if2dfhO4fH6SPm7PECPsmhY9nE5fDxckpV631yDhzrKeAXUt+Tl/D836HH0WsFCSGEEEIIIYQQQgghhMgkCX9uPT7o9VQcpX2eWd7okCM3vAL0z7BVznCsGimeifZ+Gew3AVOA9BNS3thxPYVZ2X0P3cloLI5KWO9zKvxZAUyzPq+CDnhcqYKeFm5DDpxXCCGEEEIIIYQQQgghbhsS/tw6qgMfoNdP6Wbd1hzYgl6nJRp4FzDS9PMCnkavh7Peuu0uYBl6GrJEYC3woEOfkugv7xc43Fo67K/mYr9tta9iwFTgY4f2kx3aVcjKRWeSY0iz202bp9HXuR+9tk0csB3ok6ZdVWClw/bCpI59rovjPoSucrkEXADOoytZ7s3EuH2B0dY+Ceh1jR7ORD93HgeWAEfRayxdRa+J9KiLtuVJva6m1m11cH5Pi2bx/N7WY/0ErAMOWbeHumnfGv2exGfxPEIIIYQQQgghhBBCCHFbk/Cn4CuEXhNlJzCU1CqNEcA84DrwH3p9nXeAAQ59+wB70IFAa/TnoQ6wEWiFrjYxoUODX4FG1n4X0F/YzwU6W293Ohz3MNAX/eW+bX8R6z5/4GfrWGx+BBZab5ldOyazaqCrjECvlfSpizYvkRqK3IOuOHkCqAVMBwY7tPVFB1u2dYQSHcb+bZrjvgGsQV9fWXRQNBG9hs5v6GDInaLogORJ4Hd0gFfXeqxiHvq5YgDvWfvOQ4dzJYHuwCPW87ydps9Vh+s6bt121mHbQrIeyjQETgD/Agq9XhBAR6CUi/a2KiEhhBBCCCGEEEIIIYQQWeCd3wMQNywGeAYdJGy2buuLDhfuQIcGZnQI0QgdhPzP2m42MAvYBtyHDjYmo0OLxdb+UehgyB/4Cl0VlGjtvww9pZqPi3Ep4HtgZJrtp9DBgWM1zjJ0QJVdgUBN4IzD83Loyqeh6CDlNNDBeu+oKPCZ9fEMUqeI24yubukB9CI1NNpnvZWxPk+wXk9azwPj0WHbDIftH6GDrwDgc/TrnpYBfAGEk1qNVRddiVQceBaY5KKfO32At4Bh6PDH5kfgOWA58H/oYOYL675rDtf1FDoAPIvra82stGHOLHQoZUa/XhMc9vkBj+EcvAkhhBBCCCFEzvnodX/fRPMTylD1DCijDKMsSvmijHMY6qwyTIe9LWpl3PCof/N7qEIIIYQQWSXhz61BAQcdnv8KvOnwPBEd9DRCV+gEoEMh2xou+9EhRHV0YLLVuv0voB26MqQxUBldpTHfuj8ZHT65m/4rLpvXk1XV0BVM19Cf6cJp9m9HT4V3xEXfIujQC3SVlKMD1vuyWRxPIXTIcxHn4Af0a/Ir+nX2ZBi6gspmt/X2ADoIyqxiwIfo9YS+cLF/BboSq7m13ULSvw455SngdYfnZ9EBVAd0YDkR/VkGaIIOBF29Z0IIIYQQQgiRPRERJrN/bHsMo5eRTDNl4A+G/oeIAjCsk6UbGEqRYoA5avgeDLU4Mdk0mZFjz+fn8IUQQgghMkvCn1tHrMPjgy72236pZKADD8f2ti/795Ia/NikoCtV1liftyA1/LlZ7EUHIrbgwIwOudoAQ4B6wN/Al+jwIdqh7z/AQHSlyZ40x7WFQv5ZHM/T6GnMVpBaJeWoHXoNpT/d9Fc4Bz82J9HhT/EsjKUbEGQ93kU3bb5Chz/F0FP0uQqJblRZ9HR6m9Jsn4YOf+5CTwv3m3W7TPkmhBBCCCGEyFF+44c3s6TEfQzG3SioXqIUrarW5PE7qlKhcBGCAwIJ8DFzJuYqZ2Ous/vcKZYd3s/6/47WSUxJucfX2zJcRYVFJfokjWPIhLz6saMQQgghRLZI+HPrSEBXd7hbxynG4XHaadoUnv2KXgMmCOe1fW4WKThfQyK6aukvYAqwCh229EKvAfSItY+N4xRqJdFTvfVAh0hg/d1XFjS03l9wsz+O1OncssK2xo5fFvq0tt67C34gdbpAgAbkTvjzFDpATEiz/Sd0ABeCXnvJMfwZmAvjEEIIIYQQQtxuIiL8fAPiPrJYVH+TyeDZu+9jSP1HqV2qjMvm1cwlqVasJI0qVGLA/Q25mphgfLF7K+O3/up3PuZ6hG+SuauKDO+aODxqbx5fiRBCCHFT+uGHHzh58iQvvfQSZrM54w4iT0j4c2vxFP7c6HH3o9cVKpQLx89N0UBX4BDgBTwMdMF57RvQoU+4te1sdPjQDr0GUlYFW+8DstHXE1tg5ZWFPiHWe09/1o+hwzMDXbGUG1riupLHNh1dBPq1fx1d2VQe2JBLYxFCCCGEEELcLia8VtQ3MW6pUjSuUSJYzWjV2XiwbMUsHSLI7MurDz5Cr3seNN78dQXTdm2paZjY7BsZ3ilheNRPuTRyIYQQN5nly5ezbNkykpOT3bZ5++23qVChQh6OKv/t2LGD9u3bAxATE8OwYcPyeUTCRsIfkVlXrPeX83UU2XMMXd3S2Pq8Cc7hz+PW54fQFUJnb/B8tpCm5g0eJyfYovbSHtqkoKuRAoDcmL/aC2iKXsfIlRnA2+jp9Z5F/3dpDXm3ZpQQQgghhBDiVhQVVticaPysoN6jFavwwzMvGgE+aSfCyLwivn581qIDD5ULoe+KRYWUYfnRd9zw1glhkatycNRCCCFuUq1ataJZs2bMmTOHPn362Ld369aNyMhIQkJCPPS+dQUGBuLt7U1ycjJFihTJ7+EIB7lRJSIKLk/Tm9mmGtuXzWNnpVolNzgGOhaHxzWAJejgoz03HvwAnLbe1wSqeWjXGL3WTW46Zr0vj65ucsVM6rpG2X1/PXkYOIOe3s2VE+jp3wBeRtb7EUIIIYQQQtyoiAiTGRYA9UyGwc6zJ/jj7MkbPmxsUhJz/tqBRVkwGYY3qG/NkeG1bnzAQgghCgKz2Uzv3r2dgp6JEyfetsEPQI0aNdi+fTsrVqwgNDQ0v4cjHEj4Ixx5mtKtivU+7S+abNUZGU0H55/B/txW2+HxdofHfYHCwG7gkpu+nn4a5iow+81h30g3/UzAKOBfD8fOCSsdxtLaTZsy1v0WYFEujKEV6T83aU2z3t8DNEfCHyGEEEIIIcQNMPvFvQFGy6aV7uSrtt1JSE7h6YUzWf/v0WwfMzYpiY7fzmbdP0d4skoNprbqjFIUMgy+4ZPBvjk4fCGEEDe50qX1JDsmk4ng4OAMWt/66tatS8uWLTGMrC6dLnKThD8Fh2N4UtjFfoPU99PVdH6O77W7MKOYm+13AxWAv4FlafbZpgm708V4ejo8Txv+JDo8Lmq99wLKuRmDK5kNlHqhK3wATgJzHPaVsN5XJv3rZgu8bFVPXqSu42Mbf2FSX9vC6GtZjq50sZ37pTTHNQOfAkeBWIfttvMbuK6Usp0nK/MUzAYuWh8PxnVYdZ/1fj769UnLVq+Z3TWMOuAcuLnyI3DK+vio9SaEEEIIIYQQWeY3dnglwzDeLRkQqGa17sozNerwVdtnSUxJof3iWdkKgGzBz9p/DvNklRos7PACz9e6n973PIiCWub4gKG5cCkFjt/Y4Y/7RoXVyLilECK/BI5/I9g3Mrw1ERHmjFsLd8xm/fL5+PhI4CFuWhL+FByOK1KWdbG/FKnvp6u4OdDhcXk357gDPUVXWu+i14Xpg/OUaaDX0gG9VksrdDBRF/geSHJo1wFdfWMLW0457OuLDl8+RIdMmVGKjMOIQuh1ZqZYn18B2gHxDm3+tN5XACYCxYGHgB+AFtZ9JvSUcLOs+yE1JDED/dDTt02xtk1ABy2gw5ZpwM/AO8AE6zk7WZ87KuvQpwTp2a7X3fvnymWgP/p9ewB4I81+HyAMHVa97uYYtvNVxPPUgK48gn5tDmTQLhkdVIFU/QghhBBCCCFugMVQoxTKb8xjLY3gQvqfwh2q1852AOQq+PH10r/dG/N4K0r4F1KGMkYwdri7H1TeNixejFAYB8xR4bt8osIG8NHrxTPuJYTIS0nK+15l8KPZP+6CT2T4JJ+osPr5PSYhRO6Q8OfmFogOUoaj14exGQ+0BCpZn9fEOUjoATRFr/ESiP7S/zWH/a+hQ560lS6XgXnoapVKQB3gC3So8xyw0cUYPwCi0VU4y9AVMZuAucDXDu26WI9hq2g5QepUYIPQlR5XgK0uzuGoDDpQmOWw7V7r8dag53ReAKxHBxrj0FPTzUZPKbYjzfGmAEesjweiq2S+ByYDrzq0m4eeEu2E9fla4Lj18SRgL/AdqVPHLbJely0Aa4YO0V5DVxK1JHV9oUDgCeAFh/O9jX79vdDhSzugiXXfnUAoOqzLjIXW9rFAFDAD/Z4+A6xGV/Y0BM459DEB1a3jfdC67Q7rNdTEdQDp6B50IDjL+nwQ+n3zVLU0A1BI+COEEEIIIYTIpkLvjyxtmHiuarGS6vna9zvty04A5Cn4ASjm58/rDz5iKFSg2UTfHL+ggsai3kD/+LCuAR+Yk8xnzZHhP5ojw9tJlYEQN4eEsMhVymAdUMiAPgbGJnNU+DFzVNgI/w/frJhRf5HzNm/eTHh4ON26deOFF17gs88+49q1a27br1mzhoiICHr16kWPHj1466232LEj7VeeqXbu3MngwYPZvl1PzLNs2TJ69erF+PHjsVj07/xTUlL44YcfeOGFF0hISADgn3/+4a233uK5555jzJgxREdHezzHoEGD2LJlS7p9ly9fZuLEiYwZM8bpGvr370+vXr2YP38+SimPr9HatWsZOnQoXbt2ZdCgQUyZMoXr16977CNcTw8mbh5l0VUol9DBhKM70NUvx9FBzh50BYpNVXSYcwUd/izCeT2XOtY+yQ7b9gG9gaHoACgWHZbUxP3aNIet5x+GniZtH3pKswPWMfyCDpAWoytiHLVHV/2UR3/hv9bNORzdh65A+cF6cyURuIa+9lPWsaStWLK5hn59XkZPDXcYmI4OQgxgCPq1ng785dAvBmhgHb8vOhxy3A/wP+s19UWHIbHAOnTg5Phf8LJANXTlk6OH0cHU/UBp9PtiY6BDoMyuGTQTHfT0sl7vUPRn52N02JWSpr0P8Lh1zP3T7HsEHYKddnMuAx0YeaHDJpuaQPq/AVIdQQdAv3poI4QQQgghhBBuJfpYnjYUPn3vfQgvI/3vXW0B0AtL5tF+8Sy+79SLR++o4uJIGQc/Nr3r1mfUxp9UikV1xPnfQLedxOFRe82R4XMw6AaGnqrdUK3AaG72j0tQUcPnYmFm0ojIbfk8VCFua4aFVzDYhYEtlK0ExtspKUnv+0SFb0YxJSne/1siIuTb9VwUGxvLiy++yJEjR+jduzd33nknn3/+OXPmzGHMmDEsWbKEevXq2dunpKTw/PPPs2jRIiIjI+nXrx979uxh5MiRvP/++4wePZo333wTgPj4eObOncuUKVPYtk3/J7dZs2asX7+eoUNTv2JUShEXF8f06dM5cUL/5n3KlClMnz6dwYMHEx+fOoHSwoUL+f333/H19XV7jiZNmvDQQw8BsHXrViZNmsSCBQuIi4ujZcuWxMbG0rdvX+bOnWs/7uzZs/nzzz8ZPXp0utfo+vXrdO/ena1btzJr1iwaNWrEmjVr6N27NyNGjKBKFf13uJeXF88++yyvvfZaumPcziT8ubkdst4yMjOD/Ucy2O/ob5xDpMw4gJ4SztV5m3voF4cOH7IiN6pCruD6/6Ar9DRt7pwF3svg2PtwrrpyJaP3eWkG/TPrH3TlTmYkAFOzeR6FDnGyIzSb/YQQQgghhBACQ/E0QJtqNd22yUwAlNngB6CEfwANy1cyNvx3rF6hccPKxISNP+Oy4W1CKeMzw1DPpW4xDPSU6WZDqd6YCDVHhf+HYoqXj/fcuKHv/5dfYxXidpU4PGqvOSp8JwYPoOxT/PujDAyDh5Uy7jf7x00lKvw7k8mYER/jt4aICHc/rBbZYLFY6NSpE0opNm/ejI+PniznhRdeoGnTpvz22288/fTT/PXXXxQvrmfQfO+995g/fz7PP/+8PcB5+OGHsVgsDBgwgIiICEJDQwkODiY+Pp7SpUvTqFEjezDz+++/c+DAAT755BNGjx7N+fPn8fX1pW7duqxZs8Ye/nz66ads3ryZX375hTvuuIN58+YRHh7Orl27+PLLLwkN1V/BqsxlAAAgAElEQVTfJScnU6pUKR555BH7ORzFxMTwzDPPsHjxYgASExN59tlnqVu3LgcPHsRisTBkyBBWrFjB+PHjGTBgAOXKOS8H37NnT5YuXcqsWbNo2bIlAO3atWPy5Ml07dqVHTt2EBoaSqlSpahVq1ZOv00Fnkz7JoQQQgghhBBCiIIvIsLbgGbVipWkWrGSHpt6mgIuK8GPTauqNQFMicrw9API20LSiMhtKnVKdGe6ysALRSUFb6ckJ/9jjgzf7jNueF+iwgrn7UiFuL0ZhvE1irh0OxSGYSg/wBdUZ4vFstzHP+68T9TwT33GDbs370d6a/rqq69YuXIln376qT34AfD19aVfP/27/DNnzjB1aupvs1euXAlAsWLOS8w1aaJXikhOTubAAb3sdtGiRWnTpg2vvpq6qsXy5cuZN28egwcP5siRIxw6dIhXX32VJ598km7dutnbWSwWvv/+exo1akTFihUJCwujTp06AKxevdreLjAwkLZt2/Lyyy+7vMYmTZrQpk0bGjRoAOip4UaOHMn//d//Ub16de666y4+/ljXBSQmJrJxo/OKIzt27ODbb78FoEWLFk77OnXqZH8dypUrx/vvv0/z5rf9X8HpSPgjIHUdHvk8CCGEEEIIIYQokPyDkkorVEDd4IyWKNVcBUDZCX4A7rGe08BU9YYu4hZhGKz33AAMgwDAwFD3Y+FjM8Y5c1TY135RYU2JiJDvJ4TIZZYUNmIoX8+tDC8wfAwojlIvGcq00xwV/qfvuPDBfDDUc8ouPJo8eTIlSpTg6tWr7Nixw+nmuP7N2rWpq2S0a9eOkiVL0rp1a6djlS5d2v44JibGaZ+/v7/98dChQ/Hz8wN0cFO1aupfWYUKFbI/dgyMbO69V+d+Z8+eTbcvMDDQ47Xajt2gQQP7lHA2d955p33/mTPOhbOOYVCJEiWc9nl5edmnfNu8ebPH89/OZNo3AXrtIIASHlsJIYQQQgghhBA3qeSElDKGCUoXynwBSdop4KoXL8UfZ09mKfgBKGM9p2GoMtkaPOA7Lnywgp7Z7X9TsVAOQynrlG8ZMGxVBgDdLIrOPn5xV4gaPg8jZUZS2PhduTZOhS8G7Dp7ijMx7hdXzw228x2LvsSWU5ldzjdn/HVBf3l75vq1PD836DVGUiyWfDn3+VjrEjYmby/PLd0YM6KE2dvyUw4OKR8pL5SR6dfBMLD9Oa2lFB+aU3wmqsjwjcCMpHj/RURExObOOG89MTEx7Nixg6CgIKfKHkd9+/YFoGLFivZtI0aMYMSIEfbniYmJLFmyhGnTptm3JSc7Lu/uHP4UKVLE7ZgCAgI8jtlWZRMbm/5tzij8ycyxY2JiiItzLkQzmVJ/B3D69GlCQkKc9ttCr+vXZWkqdyT8EeWBB6yPQ4AHAVl4UQghhBBCCCFEgWIyVLACggt5/hIqrQ7VazOjdRd6Lp3PH2dPUr9sxSwFPwClredUitIZNHVLKVURjAcyblkAGPb/yWpHAwNvA0qApT/KNMgcNXxuYnjk8zk8Quvp9PchXb7/KlcOnxlRv68l6ve1GTfMBev+PcKjcybly7kvxsXm27kBjBRLJWBvVvsV8k72SVKmW+PP6Y3x0fPD0Rh41BwQ97ERFdYgIXzcwfweWEFw8uRJkpOTKVasGFOmTMly/ytXrvDJJ58wY8YMWrRoQUREBKtWrXLZ1ssrc/met7fnv/Mcg5isnsNxWjtPx3aseAKcqoT279+fLvw5d+4cAPXr1/d4/NuZhD+3t2FAFWC5w7aXgA7AyHwZkRBCCCGEEEIIkQ0pJkusSZmITUrKUr+45CRm7dmGQmHC4K8LZ9ly8l8evaNKpo8Rk5RofWTEeGwoMscgAWUYwHcWk/G/XDuP4gIGIa2q1qRQBl9O5rQN/x3jTMw16pWtQOUixfP03BfiYlj7zxHuCCrGQ+UqZtwhhy08sBc/by+ernZ3np97+5kTHIu+hGFSUipwgxQqwcDwAQ4aMDkhLuBYfo+poLBVz5w4cYKEhAR8fTOYfc/BnDlzeOWVV2jTpg3bt2+nZMmSXLuWt5WLeaV+/fq0bt2aZcuW8cknn9CyZUv7vmPHjrF7926KFy/O0KFD83GUNzcJf25v4/N7AEIIIYQQQgghRE7wUsYZBZzNwvRdcclJdFw8mzXWNX6eu/s++ixfSPvFs/i+U69MB0Cnr1vPaajT2Ri6ZrLMIcVre7b730wMemDQEkVWptZKxMBHKbah1OdJsIjwcbn7jabB38ADE5u1JaRIsQyb56SXli/kqz938FLdh3jxngfz9NwbTxxl7T9HaFghhNltumXcIYd99/ebBPn6Madt9zw/98srF3Ms+hIWpdIvXJIJMbGFos1+cV1zelz5wTCM4go1OYvdLLo+w7iOwXQMr1mJw8b8mSsDvAUtW7aMp556iqCgIAASEhJYu3atU6iR1rlz5wgODgZg/PjxhIWF0bt3b2bMmJEnY85vc+fOJTQ0lIULF/Lcc88xYMAAoqOjGT58OCEhIcyfP58KFSrk9zBvWhL+CCGEEEIIIYQQosBLUMYZswH/XY3OVPu0wc+C9i/g5+2Nj5cXPZbOz1IAdPLaFQAMC9n6QhkgcdgHe4A92e1/MzFHhQ/LXPBjJIIyKWVcNAzLLAM1LTF8/JHcH6EQ2RQREZ8IC/J7GDnBHBXWXikj3mEtH/cMlQCGCQvLDYwZifH+K4iISM6wn7BLSEhgzpw5tG7dmpCQEIKCgrh69SpjxoyhRYsWLqdVi46OZuTIkUyfPp2TJ08ycqSeqOmNN95wex6LxZJr15AfChcuTLly5QgLC6NGjRqsXLkSX19fxo0bR/PmzTOcru52J6+OEEIIIYQQQgghCr7hUVeICj+46eTx6rFJSUaAh2m83AU/AB1r1AHIUgC05p/DAKSYLFty6GoKroiIQIy4uii3LSwKkgxlJBkmNdei1Kyk4VG/5+EIhRCAwtTUMDDh/g9rHIbyUxhbUExNQi1ieC5X4xUgyck6+0pJSclU+/fff9++No2XlxdPP/00c+fOZcOGDQwdOpSPPvoIw0hdK00pxSuvvMKTTz4JwN69e+3n9CQ+Pj6rl5IptvV40q7L425bZvtmZOjQoezYsYMNGzZkua8A9ys1CZF1voC7FbZKAHfl4VhE3jID9wJ5O0myEEIIIYQQQjhQqB/jk5ON9f8dddvGU/Bj07FGHb58uhuJKSm0XzyL9f+6P55CseLoQWXCuJwcW2hzjl1MAeXjF/cCykj/bagiHgyLUmxE0Tcx3q90QljUy0nh4yT4ESKvffS6v4HqCcqcZk8SkKyUcRbUJwbqzqSwqIeTwsd9kevTMBYwly9fBnQIdO7cObftlFJ89tlnjB07lg4dOti3jxgxAj8/XXQ1ceJEHn30UebPn8/27dv59ttvadmyJfv376drVz3LYNmyZe19J06caA9Sjh496nTcixcvcuLECebMmQNAXFxcujG74rhukKt2CQkJAFy4cCHdvvPnz9sfX7p0ye2xo6NdV+baAqu0x/7777/5+OOPOXz4MNOmTeOXX35h+/bt7N+/nxMnTrg9nkgllT8F1z1AY2BSfg8EqAz0BXoD14BqafaXAvajA6CXgLyclLKK9ZZdfwAXc2gsuakiUMPD/mTgKnAI/R7ltO+Bp4DFwDO5cHwhhBBCCCGEyJAXLLPA0EUH9tCySvp/ImUm+LHJbAXQ5pP/curaFQMDmQYpIsJsGHHDQfkBKIx4A+WLof4yDGNqgilpHm98mP6bQyFEnvJNNr+k9A95ASzKUEmGxZRkmCxfWxRfSDWeZ7/99huHDh2yP2/VqhWNGzemaNGi+Pv7AzpAuXTpEuvXr+fgwYPce++9VKpUyd6nVq1azJw5k549e5KUlMTGjRvZuHGjfX/x4sXZuHGjfVqz2rVr88ADD7Bjxw6mTp3Kzp07CQwM5Ny5c8ycOZONGzeSkJDAyJEjmTJlCsuXLwdg8+bU3yTMnj2bbt262UMnR+vWrbM//v333+nUqZP9eXJyMjt27ADgxIkT/Pfff1SsWNHp9bDZtGkToaGh9ucxMTFs27YNgMOHD3PhwgVKlixp33/48GEuXtRfvW7ZsgWLxWKfAi8lJQUvLy/OnDlD3759Xb4Xvr6+PPbYY3z44YfUrl3bZZvbmYQ/BderQCtgOpCYj+N4FuiK/uLfjOtgoTQ6+AHI6z+FfYFwh+dXAAtgAEWt25KA6w5tHFd57IAONm52Ceg63bbAK2n22f6PdUkgBdgNTATmol+LnFDLel8nh44nhBBCCCGEEFkWX/nYevOxKofn7/+j6qjGzY2KQUXt+7IS/NikC4Ce6cWjFZ0DoA+2rAPApNTMnL2agsccEPcGijtQWJShLhkGM1FqVmLYuP35PTYhhFZo3LAySRYjEpPFjDJSMNTPhmJaYkDMMl75NCG/x3czW758OStWrODQoUM88cQTTvv++usvl30qVqxIxYoV7RU8jp599lkqV67MiBEjWL9+PRaLBW9vb5588kk++ugjqlevbm/r5eXFd999x4ABA1i7di1Hjhyhe/fuLF26lMDAQF577TU++eQTHn74YaZMmULRokUZMmQIf/31F82aNbMfp0+fPnTt2pW2bdsCcOTIESZMmMC///5rbzdjxgzWrVvHO++8w7p161i+fDlFihSx7x88eDBNmjRh4MCBDB06lEOHDtn3nThxgj59+jBs2DD+/vtvvvnmG2rWrEnNmjUB6NevHw899BBhYWGMGjWKPXv20KRJE/v4evToQd++fXn00UepWbMmy5Yto1u3blStWpXLly/bb7bKp4SEBFatWsVjjz3Gn3/+6VQhJST8KahKokMXf6AjMD8fxzLPepuPDoFc+RN4GR0QjMmjcdkUBk4DzwGbAdvElwFAjPXxCqBdmj79gLFAYN4MMx1/oCzgfm4BZ+eA1dZbM+Bu6/bKwHHr47vRoU9z4Et0UPQcORMedgd6kbdVXUIIIYQQQgjhrMvCFBUVFpmUYpk+Yt1y5rTtDjgHPy0qV89U8GNjC4BeWDqP9oucA6A1/xxm2eH9gNocHz5uda5cU0GijHtQ6muToWbGxwWsJSLi1lp5XIhbQIrhVRvDss/A+DLBK1mq8bKgVatWtGrVKkeP2aBBA9auXUtMTAxnz56lTJkyBAQEuGxbsWJFli5d6nJfZGQkkZGRTts++uijDM9ftWpVPvvsM7f7O3fuTOfOnd3u//jjj93uu+uuu+whkyvvvvuux7ElJiYyYcIEvvzyS9q0aeO0Lzo6msuXL3P+/Hm2bNnCO++8w48//uhUdSQk/CmoXkKHAwADyd/wx+Z0Bvun5Mko0isM9AHWZqHPNeADdPiSX+HPi+gqney8bsdIDX+uOmzfh64W2wQ8iJ6e7SDwVvaHafeb9SaEEEIIIYQQ+SopLuALc0Bc/4UH9jzQvnptWler6RT8LOzQI9PBj42rAKhOqbL0XbFYAUrBa7lwKQVOYnhkt/wegxDCs/hhkb8Av+T3OISzQoUKUaXKjaxccesZPHgw/v7+6YIfgKJFi1K0aFEqV65M/fr12bVrl70aSKQy5fcARJZ5A/2BWOvzxkDd/BuOXWzGTfKFBViZzb7fkT/hjy8w5Ab6x3jYlwy85/B8CFDoBs4lhBBCCCGEEDeXiAgLJlMPwyCu78pFqvm8qTcU/Nh0rFGHr55+loSUZNovmkXrBdP57+plA0VkUvi4rTl8FUIIIcRta82aNUybNo3SpUtn2Pby5cts2bLFZUh0u5Pwp+BpB5RCV//YDMynsTiKz7hJvhiDXgsnO7YAi3NwLJk1Dqiai8df5/DYH6iZi+cSQgghhBBCiDyX+MbYfQrjxZjERLX99AkaVqjEoo7ZD35sOtaow/SnOhObnMSOMycBViTG+4/KkUELIYQQAsBeyTN9+nTGjh1LdHS0y3Z//PEHzZs35/XXX6dcuXJ5PMqbn4Q/Bc9gYC56qre/rdu6A0Xd9sh5/sBT6ADqyUye2wtoDdTIoF1pa7ve6CnKgrI/TCD1NcqOJPQUao6qodfJ6Qu0APxu4PhpGcBo4JUcPKYr19AVQDauKn/KodcGehHoTOYConutfVwJQr9uttfrLuAF4I407fyBx4Ae6Kq2IKAYUCcT5xdCCCGEEEIIu8SwyG8UxkCFsuw5d0p9/7frxbiz4t+rl5n8x2aUUhiGsSExzr8LERHJGfcUQgghRGb16dOHJ554guTkZEaOHEmpUqWoVasWTZo04ZlnnuGRRx4hJCSEpk2bMmLECPr06ZPfQ74pSfhTsNwDPAp8iq5mmWTdXgjo5aFfGWvbI9Z+Ch1e2NyFXlvmksP+6m6ONQC9vs8rQAXgVeAf3H/pXx54Bx2i/Ij+Qt+VYsCXwO/oYKk+8AVwFr3+jr+bfnklBD193CJ06DMY+Al9Xe0c2jUDlpP6OirgHNDTur8JcNS6/RpgW1HNhF4z502HY33ucIw3cvBaKpK63pdCr/tj4wvMAg4DnYAqwEj0ekEb0esgOfJHf/Y2A38A/dLsrwdMA04Bc9BrMPUH9qLf713oSjaAhtax9ESHT6Ho1+4Y7j9fQgghhBBCCOFWUnjk5xhG95jEpLgeS+fR7fs5HL9yKcvHSUxJ4dPtG3ngi4lqy6l/ARYkxPq1ICLieo4PWgghhLjNFSlShF9++YXvvvuODh06ULJkSfbt28e6detYtWoVhmEwYMAAjh49SqdOnfJ7uDetG6t3FnltMPArsMf6fBbwPjr86Q98jOspzs6gQ5vqOH/Rb3MA/aX9BuArD+ePAEZZz/W5w/YhwIcu2hcCwtHhUkUPxy2Lvq7L6OqRK9btI4GfgaHAfUAbIM7DcXJLJXQw8ykQhX6NDfQ1v46eGq4lerE8220Yevo20O/XbOvjtcASdBVMM2C3dbsFHX4AXEWHJC+jQ7mc1tvh8Sr058NmGroi5xX09YJeI2g30Ah9zd0d2r+Krt5p4OI8jYAOwBOkVhc1Q1/7buABdOhXCl1ltcR6ro8djjEV/ZoJIYQQQgghRLYkhkV+Y44K2wPGrO/+/rP+0sP7VOe76hoda9SmaaU7KeRjdtlPodh99jTLjuxn+u6t6tS1K4ZhGNeUIixpeFRu/FtNCCGEEFaGYdC+fXvat28PQEpKCsnJyfj6+ubzyAoOCX8KjuLoL92fd9h2BV1N0Q8d7DRHf5nvzmH0l+w+bvZ7miKtGbqCZxHOwQ/AR+jqj7RTc8WgQ4QQ4LiHY38O3Ak8TGrwA7oSyRYUPIGeEm2oh+PkltnAfiDSYZtCB1svoqe9mwjUdtg/Hl310gU99kfQ4dpd6PClHanBT156Hh2qAZxHh4I2JUn9fDnOh5AILATeRk/J5sj2mjyC8/WDDsx+Q1cNzbBu64H+nCYAz6A/j/vQIVGJNOe1HWNqxpclhBBCCCGEEO4lho/bT0TEwz7+sS8kK8vwefv+uGvevj/w9fZSD5a5w6gYVJTgQoEE+pg5ff0qZ2Ku88fZk+r09asGgGEQrzCm+SSZxsS8OeZsfl+PEEIIcbvx8vLCy8srv4dRoEj4U3C8hJ4Ca0ma7f8jdaqtgXgOfyxACu7DH4ub7QY63DCA6W7a/Iz7dVkuexhTY6Ateiq5LS72HwC+A7oCg9CVJ6c8HC+nNUBPtTfIxb4kdFjRCKiFDrAOOex/GV3NUwEdYDyIrqwaTd5Vs/yIrva6Tuq0gcq6fTDOoVwsEA0Ekn6to5PWe3frO3l6jx1XZHuf1OqtBQ7bbWv/DAHWowMnm6/Qr7EQQgghhBBCZF9EhCUJZhMR8ZV3QMLDJixtEpJTWm88cczlv2VNGNGgVmKYlib4xK/g9YnRSXk9ZiGEEEKIbJLwp2DwQldofIYObxztRX9Z/ijQGj1F2fEcPr8t3ADXAQ04f8Gf1nVSp0pLy7YWjm09Ilds4Y8ZeJrcmQrNnSet96+hq3zSCkSv4QMQjHP4cxld5fMTuuJnO/o6x+fKSF3rjl7zqRywCRgL7EQHiWnFot9nf5zDn3tIfR1cz4eg32N3HKfqczXtIOjqH9DrPW1GV3its27bQv5USQkhhBBCCCFuRRERluTUmQpGEBHh5+cbXybZUOW8DeVrUca5RIvpDCPHXszvoQohhBBCZJeEPwVDW/TUaSXRU42lZZsqzQtdBTQih8/fxHqfjOeQxx2Lta+riqP61vurHvr/4fDYNrVYOfT6Q+68D/yb2QF6UNN6Hw58m43+P6OrswYBNdDVQO5CrtxwlayFgaet997o4GggOthJWwmUVoKHfZn5cdwvwPdAe+B+dGXUeuBdYA0Qn4ljCCGEEEIIIUTWRUTEx+t/Nx1Pzu+xCCGEKDD+/vtvjhw5wvXr1ylSpAjVq1enUqVKGfZLTEzku+++Y+rUqfTs2ZMePXpk6bybN2+mf//+PPTQQ0yePBmTyZTNK8hdu3fvJjQ0lNq1azNt2jSZsi0f3JyfDJHWYGCj9XExF7d96PVxAPoAfjl8ftuUXAauq3duRHnrfSEPbRznU7at6FUM6OvhViqHxlfEel/2Bo4xkdTA52NSr+Fm1Q5dodMJPd1gU3QQk5sUeg2gt9FrRYGuZluNnh4uMJfPL4QQQgghhBBCCCGER1evXuW9994jJCSEhx56iHHjxjFnzhxGjBhB1apVqVu3LjNnzsRiSb+6RmJiIiNGjOCOO+6gW7durFmzhitXrrg4i2cff/wxu3fvZurUqRw86G6Snfw3efJktm3bxhdffMGuXbvyezi3Jan8ufnVBh4H7gX2eGhnAoahQ48uwJc5OAZbSOhlPb6rKcOyyzYlWGUPbRzXfzlhvb8ARHnoc+ZGBuXANr5H0BU8WeWFXidpFvACegq194CwnBhcLngPeAtdOfVWHp87Bb0e0kzg/4Be6NevM3qtoRZ5PB4hhBBCCCGEEEIIIQDYsGEDXbt25dq1a4wfP57evXtjNqeukHDy5EmGDx9Onz59mDZtGt999x1lypSx7zebzbz88ss0a9aMZs2aZXscXbp0YcmSJdSrV4+qVave0DXlps6dOzN//nxq1qzJ3Xffnd/DuS1J+HPzGwz8iufgB2Ayep0UE3qqLnfhjy12zqiCx3GKtpMOjxsASzz0c7cmjDu7gApARXQV0EkXbYIdHtsqoM4Cw7N4ruywTXfWDvfjA10hs4nUtWtsItDTpvVBB1dvo9+nZej39WbSEh34nEaP25WcrvyyuR84jJ6m7hT69fwU+Bq4G2iODuA25NL5hRBCCCGEEEIIIYRwaenSpXTq1AmAX375hUcffTRdm/Lly/PVV19RqlQpJkyYwMMPP8y6desICQmxtwkJCaFChQo3NJaOHTty/fr1m2K6t4kTJ/LEE09wzz33pNvXtGlToqOzs4KIyCn5/wkRngQDz6O/BM/IMeAn6+P66JDGlevW+xIu9jmGgf4Oj9c6PO6bwTj8M9if1gLrvYGuWHLFNjXcCWBdFo/vjuHmcVo/W+/9gDm4nlKvBDqsOJBmewv0+9cLPa3Ze+j1i0zoSqCgDMaY3YkwM3ttabWx3p9Fr9Hkihe5Exo3RK9t5Wg38ASp60zVyIXzCiGEEEIIIYQQQgjh1o4dO+jWrRtJSUmEhYW5DH4cRUZGUrNmTY4fP07Hjh2Ji4tz2u/l5YWf342t2nEzBD+JiYl88MEHpKSk5PdQhBv5/ykRngwBEoClmWz/jcPjEW7a2CpZGqXZXhmY4PC8qMPjdegv4gFaA6EujmtbFyiQ9OGAv8O2tGv7zAf+tD5+HSjs4tgtrffDSa1culGOa8i4OqfNKmCv9fHj6God22tnoEO2n4Bv04ztTmAuOhS6aN2WBLxova+ErtZyxRbQVXQ4TzsPY0zL8doyCpgc2f4mqoken01ZdIhlE2AdW4jDNtt5XK3N41hF5ikcHED6z85ZYIf18TGEEEIIIYQQQgghhMgjSin69+9PbGws/v7+DBs2LMM+ZrPZ3m7nzp2MHz8+XZuAgIAcH2teGzt2LCdPupskSdwMJPy5ed0PvIaueshs4HHW4XFboKuLNj9a71uhq096AOOARcBYh3ZjgEigGrpqpSdwzbrvc/T6Nw+hw495wFPWfX7AF+j1eGxVJ3c6PK6SZjxJ1nFeRAcKX+EcEDyIfh2+QIcpOaW+w+O7cT9dnQV4jtTqk/roqedirLfN6IDuQ4c+JYHlwBZgdZrj7QYWWh93R0/rl9Zf1vuX0dPELSXzn4EA9LpCNg9msh+kVjn5osf9KjoQXOEwJtBrGH1B6mtiAmwTjFYmfbWRYy1rEw/nf9h6PsewqCh63att5FzVlxBCCCGEEEIIIYQQGfrhhx/Ytm0bAG3atKFIkSKZ6tepUyd8fX0BmDBhAlevXnXa765yx2LJ/O/eY2JiMtUuPj4+08fM7Djmz5/Pe++9l6ljZXacNyI713g7kPDn5mObXmw9+kv4yujKh09wPw1YaXQVSdp1fuahw57HHLZNIHXdlJ7AbKAeOgw6Zd1+BR1cfIlehwVSp+A6iP7cDAB+R4cEm4Ap1nZH0OsTjUOHRlGkhh0A/YGZwL0O2/YBjYHf0BUuh63nXoquqIlAr5mTE3oA09BrydgEo8OFKOA+F332oteb2e6wLQAdUv2Aroay1Tc2RL8u1dCVQu+kOdbrwJMOzz8GFuMc2IwELqCDj+HoyqKMqr8esI5/K6nT5IEOaaYB/TLoD7rKaSw6aKoCTATKoQObD9BhF+ig50X05+QF6/hsVUDVgZXoYOsuYBLg+POGz9GflfQTgeoAsD96Haix6Nfhd/TntQ2pr7EQQgghhBBCCCGEELlu8eLF9scPP/xwpvsFBQVRq1YtAKKjo1m1apXbtkopPv/8c2rUqIG3tzfly5fnzTffJDY2Nl1bi8XCypUrad++PaVLl3Z7zGPHjtGnTx/Kli2Lv78/Pj4+PPHEE1SN7WgAACAASURBVKxZs8Ztn1OnTvHKK68QEhJCUFAQxYsX57HHHmPp0tSvJWNiYggPD+e5556zT/cWHh5Oly5d6NKlC/v377eP86effqJDhw4UK1bM3v/69es899xz9va22yuvvEJCQoK93aFDh+jTp499f2ho+omolixZQtOmTQkICMDf358SJUrQt29fTp8+7fYahbgdmIBm6EClIamVGqWAZ3E9dZeNFzrUeAl4Bihu3X4/OtS40UCxJjo46GU9j+8NHi+n1UOHZj3RFUO5JcB6rsz9nCBnlUcHfWmrtCqiq71yIzQORgefgeiwqRfQDR0gCSGEEEIIIYQQOc4cFfa1OSpcHY++pPJan2ULlDkqXM3cvTXPz73hvyPKHBWueiydl+fnVkqpgPEjVYXP3suXc/dbsUiZo8KV+YMRufmdjshBPlFh9cxR4eq1n3/Il89MmTJlFPoH7mrVqlVZ6tuzZ0973/79+zvtK1mypALUJ598ol588UV7O8dbo0aNVExMjL3PihUr1IMPPmjf7+fn5/K8q1atUsHBwWry5Mnq6tWrKjo6WoWHhytAmUwmNWPGjHR91q1bp4oWLaoGDBigzp8/r5RSavny5crb21sB6vPPP1dKKXXhwgW1YMECNWHCBPs4oqKi1IIFC9SCBQvU+fPn1U8//aTq169v328YhtO5rl27prp3727f3717d5fXkZiYqKpUqaLatm2rEhIS7NstFosaNGiQql27ttq0aZNKTk5We/fuVQ0aNFCAKl++vDp27FjGb1AuWHX0oP5vTFTYqDz9gyKEEEIIIYQQQgghXIvy6VN/vG/okPweh8g7Ev5I+CNufvkZ/iQmJirDMOwhxbZt27LUf9iwYfa+rVu3dtpnC3+qV6+uOnfurA4ePKiSk5PV+vXr1d13323vN3jwYHuf5ORkpZRSvXr1chv+HD58WAUFBalp06al29e5c2cFKF9fX3X8+HH79gMHDqjChQurzp07p+vTqFEjBSiz2awuXrxo375v3z77GHfu3OnUxzbOPn36uAx/lNIBUHBwsAJUp06dXL5+V69eVf7+/urIkSNO2ydMmKCKFSumTp486bT9/PnzqnDhwgpQTZs2dXnM3HazhT8y7ZsQQgghhBBCCCFue8ow3rIoNfYTBgfl91iEEELkv4sXL6KUsj8PDPQ0WVJ6QUGpf51cunTJZZumTZvyzTffUL16dby8vHjkkUdYu3Yt5cqVA2DatGlcvHgRAC8vvSJIjRo13J5z9OjRmEwmevfunW5fixYtAEhISGD27Nn27UOGDOHatWsMHz48XZ+2bdsCYBgGycnJHq/XxjbO6tWru20TGBhI//79AVi1alW6NZFAryvUvHlzqlRJnZzo+vXrvPvuu3Tr1s3+GtmULFmS+++/H4DVq1dz9OjRTI33Vuad3wMQQgghhBBCCCGEyE8f0ad4EsZTYBDnE9eZJGbk95iEEELkr4CAAKfncXFx2T6Wu+CoZs2aGIbhtC04OJg333yTgQMHEh8fz/r16+nQoUOGx0pOTmbhwoUULVqUkSNHptt//Phx++Ndu3YBep2fFStWEBgYyL333puuz7Bhw2jYsCHBwcEEBwdneJ2OMgrL+vXrx5gxY7h27RpffvklgwYNcto/ZcoURo8e7bRt5cqVREdHc+TIEZdhlS0oA32NjsHR7UjCHyGEEG5FEOEdQUTmftohhBBCCCFEAZXkY+oGRhIoPwz6goQ/QghxuwsKCsLX15eEhAQArly5kqX+jtUspUuXzlLf1q1bM3DgQAAOHz7stC9tKGWzf/9+YmJiqFatGs2aNXPZ5qWXXgKgeHG9jPumTZtQSlG8eHFMpvSThBmGQePGjbM09ozGaVO2bFk6derE/Pnz+d///sfAgQPtQdi2bduIjo62VyvZbNu2DYA6deq4vEbHbbVq1crWuG8lEv4IIYRwKYIIb3/zyehIFbrZMIzfTCa1MSY+en0ECxPze2xCCCGEEELkKINQUP76IQ+O9etdZUT8TJkv5lanjPswoNa0D0jzw/tcl2SxADDgp+945efv8/TcFus0Vt/s2823B/fm6bkBki0pXIyNpc70D/P83GdjrgFgYKkI7MvzAYgC54EHHmDTpk0AHDp0iMcffzzTff+fvfsOj6J62zj+nZQNofeqNOm9KSIo0gQUUeEXBekloVoQFLCBIkr3RUXpVRCkF1EBEQRRIWAAQYoCoUoJLYWQsvP+McmSThKS3QD357pyZZmZM+eZSYBk7znnnDt3zvG6QYMGaeq3ZMmSeHh4EBUVlWjEUcKRQrEuXrwIWNOuJRf+JHT+/HlHW9M0kz13eqTmXAMGDGDx4sUcOnSIn376yVH31KlT6du3b6JAKvYaS5QokeprvJ8p/BERkZTkMAyag9ncbgdvr3whY03fbSbGFneTraGRxXdrZJCIiIiI3M3GefUpb5r2mrF/NjFMd7t7Z+BDF5YlzmCYnmDg7emJm5PTn7DICCKio/H28MAzZn0MZ4my2wmJuImnuxvZPW1O7RsgIvoGdtPOP1cuOb1vAAMgSu+JSuq0aNHCEf7s3r0bX1/fVLfdu3cvYIUgrVq1SlO/hmE4wp+CBQumqo09JlQ+ePAgERER2Gy3//sduz7PjRs3+O+//yhWrFia6rxTjRo1olatWgQEBDBlyhSaN2/O1atXWb16NePGjUt0fOw1xk5bJynTP3QiIpKiIrVKUu/V5pz85TCnfjmS8+qxi60NzNZ2A7y9zioMEhEREZG7mt20dzVMojDwjNnkBviaMMoAM6W2ctfbCTzk3/01SuXJ59SOe69fyoK/djOx2bP0qPGwU/vefvoYzRZNp13F6sxr08GpfQPkmPAO+b29OTXgXaf33feH5czZtws83I47vXO5K/n6+jJmzBhu3rzJ2rVrmTJliiMwScnp06c5cOAAAC+88EKa154JDQ0lPDwcIMm1eJISuyZPeHg4q1evxsfHJ9lj165dy7PPPkvRokUd2zZs2EC3bt2SPP7q1ats2bKF559/PrWXkGoDBw6kd+/erF27lsDAQFavXk2bNm0oUKBAomNjp89bu3YtYWFhyU4t9++//3Lz5k2qVKmS4fXeTRJP5CciIhKHLZcXVTs9Sutp3fD7ezQDTk7guUV9qNn7CQpUKpoTaG1gjrUb5u/eXmevjfH03TjW5jdyfDbf5iPxcf5jZCIiIiIiqWSCYWD2Nm8FP7Hbi07w6POoq+oSEZGsoUSJEo61d86ePcvq1atT1W7GjBnY7XayZ8/OqFGj0txv7MiWEiVKUL9+/VS1qVq1Krlz5wZg+PDhBAcHJ3nchg0bHMHUo48+6phabfz48URFJf0879ixY8mbN2+ariG1Xn75ZfLnz090dDRTp05l2rRp9OvXL8ljH33U+q/5ypUrvPtu8gHyqFGjyJUrV6bUezdR+CMiImmSo0huKravS8spnekV8EHCMCh7zDRxI+x2Nnp75buiMEhEREREsqox2Xo3BreCSUz4Zdrd7T2cX5GIiGQ1n3zyiSN0eOONNwgJCUnx+L///pvx48cD1to16Rl9smDBAgA+/PDDVI00AmsKty5dugDWyJeWLVty+vTpRLX5+vo6RgUVLVqUp59+GoADBw4wYMAAoqOj47VZuHAha9asoXHjxo5tcaeUu3btmuN13P5igyTTNBOdMy5vb2969uwJwKeffoq3t3eygdfTTz/tGP3z6aef8t577yUKrD7//HNOnDjBgw8+mGyf9wtN+yYiInckNgyq2L4uACH/XePMr/9wYvPfnP71aPagv8/FXTMobIzdd4dhGL+6uZnbQ8Ov/jKSpREuvgQRERERuU8ZdqMHmElN7eaJab78Ga+88iqf33R6YSIikmXYbDbWrVvH888/z/bt23n++edZsWKFY5RNXHv27OHZZ58lKiqKmTNnOsKY5GzZsoU+ffrEC1PWrVvHrFmz6NGjhyMUSa0RI0awcuVKzp49y2+//UbFihV5+umnefDBBzl27Bjr169nxIgRPPTQQ442EydO5OeffyY0NJTp06fz+++/8/zzz2MYBlu3bmXbtm38+OOPGHHWRitSpAju7u5ER0czd+5cypUrx9y5c6lduzYPPPAAED8IOn/+PMWLF0+27v79+zNp0iRu3ryZ7KgfAC8vLyZPnkyHDtaUlR999BELFiygVatWeHh4sGPHDg4dOsSePXvSdN/uVQp/REQkQ+UsmkdhkIiIiIhkeZMY5B1JyP8g/pRvDqbhEW4Lb0MEy51bmYiIZDUFChRg06ZNfPzxx0ycOJEqVarQv39/GjVqhLe3N6dPn2b16tUsXLiQWrVqsWzZMho0aJDs+caMGcPw4cNZsWIFtWvXZsCAAZQrV45ff/2V8ePH89Zbb/Hhhx+muc5ChQqxceNG2rRpw/HjxwkLC2PZsmWO/R07dmTo0KHx2lSoUIF169bRrl07rly5wr59+9i3bx8A2bJlY/bs2TRr1ixem5w5c/K///2PJUuWMG/ePObNm4efnx/vvPMOISEh7Nmzh0WLFsW73l69elGzZs0k6y5TpgzPPPMM27dvp2PHjile40svvURQUBCDBg0iIiKCwMBApk2bBljh0IIFC6hUqVLqb9o9TOGPiIhkKoVBIiIiIpIVRdpC2mHiThJzvgFg4GmCLyj8ERERK1j44IMPGDBgAKtXr2bz5s2sX7+ekJAQihYtSpUqVdiwYQONGzd2rKOTnF69evHyyy+zZMkSNmzYwMKFC8mRIwd169YlICCAChUq3LaeuKOF4qpSpQp//fUXM2fOZNOmTVy6dImSJUvSsWNHnnvuuSTbPPnkk/z9999MmTKFHTt2EBERQb169RgwYEC8UUJxzZs3j0aNGnH06FGaNWtG27ZtATh37hyHDh1i8ODB8Y7ftWtXsuEPwKBBg6hfvz7Zs2e/7bX379+fZs2aMWPGDHbv3o3dbqdOnTr079+f8uXL37b9/ULhj4iIOJXCIBERERHJCgyT3himzUw2/cENaDE6R+8i74TOPO/E0kREJAsrXLgwvr6++Pr63tF5vL296d69O927d09X+3z58iW7L3v27Lz66qu8+uqrqT5fkSJF0jTayMvLi4EDBybaXr58+XQFME2aNKFJkyapPr5ixYpMmDAhzf3cTxT+iIiISykMEhERERFnG5u9Z3EzyngCkk9+LMZNjyjjJeAzZ9QlIiJyOyEhIQBUq1bNxZVIVqfwR0REshSFQSIiIiKS6aLdOoF5E/BO+UDTGxM/FP6IiEgWcfXqVQCefvppF1ciWZ3CHxERydIUBomIiIhIhjPdfMG8TfDjUHm8rVe1NyNm/ZWpNYmIiCQwf/583n77bTp16sTo0aPx8PDgzJkzlCpVii5duri6PMniFP6IiMhdRWGQiIiIiNyJTzx71QYz6dWrk2ISiUFnYFjmVSUiIpLYjh07OHPmDOPGjWPr1q00btyYzZs3s2bNGnLlyuXq8iSLU/gjIiJ3NYVBIiIiIpIWBm7dDIg0wSuVDbzspluvb/F550WWRmdyeSIiIg4TJkygVKlS7N+/Hw8PD0qXLs2ePXvImTOnq0uTu4DCHxERuacoDBIRERGR5IxkpIcbZ7qlOviJZZDnuFeeptxkYyaVJiIikkjOnDkZPny4q8uQu5TCHxERuacpDBIRERGRWNm8zrY0TXIAmCbhGGTDNIMMg3NgVAMwMIPsGBcNqGCaRBgGXoAbptETFP6IiIjI3UHhj4iI3FfSFwaxybQbv4ZHXdmpMEhERETkLmaavQBPA+O6mxH9VaThNvvtiJlHxnr6dsFgPoCJcXhYxIyGI+mf09szqj2Yg4HqYLwwkv45R/JliGsvQkREROT2FP6IiMh9LXVhEM0NN1NhkIiIiMhdzg2qYZpf2SON4cOYdS2lY0fyZQiRzDNh/lhb706GyQRvz5tViGSns+oVERERSS+FPyIiInEoDBIRERG5d70VMaNCWtsYYBIx82vg60woSURERCRTKPwRERFJgcIgERERERERERG52yj8ERERSQOFQSIiIiIiIiIiktUp/BEREbkDdxIG5Yvijz5Mj3TtFYiIiIiIiIiIyL1G4Y+IiEgGSksYdM2L0DF2398UBomIiIiIiIgkb0bAH8zdv8t0dR0iKYk27QCGq+uIpfBHREQkE90mDMqhMEhEREREREQkaYa7exjR9v2R9mgi7dGuLkckVUzczru6BlD4IyIi4lQKg0RERERERERSJ2LIJweBGq6uQ+RupPBHRETEhRQGiYiIiIiIiIhIRlP4IyIikoUoDBIRERERERERkTul8EdERCQLUxgkIiIiIiIiIiJppfBHRETkLqIwSEREREREREREbkfhj4iIyF1MYZCIiIiIiIiIiCSk8EdEROQeojBIRERERERERETu+/BnnJffQ6bdfN3VdYjI7ZkQPSxyhv6+iqRBwjDo+skgTm49wslfDnNq6+Ec1wKD4oRBxvWxpu8vmOaKoZEz57i28nvHJO++JSKiopq5GUZJ06QIbobNaZ3bzQjD4LxpEohn9E9Dw2afdVrfIiIiIneJUb9uIqfNy6l97jx3EoDFfwew98I5p/Z9LuQaALv/O83rm9Y4tW8Au2knJOKmS/r+/Uyg0/sUEXGV+z78IdpeHDdjoKvLEJHbMyAKUPgjcgdylyxAtS4NqNalARAnDNp6iFNbD+e6dvJyG8MwigAKf+7QWK/eLTCNkZHR0Q0MwzBMAAMwTecVYYCj3yh3c6yX768YbiOHhk/7yXlFiIiIiGRtC/7a7bK+twT+y5bAf13S99HLlzh6+ZJL+g6LjOSrPTtc0reIyP1C4U+Mal0aUKd/U1eXISLJ+K7nbIL+du7TUCL3gwRhkDEhZz/MyGhXl3VXG0+XHHZbttmYvIhhUPKJCpRvW4u8DxUmR+HcVhDjLCaEXrjOlX/O88+avcbJbUcaYbdvGmvzXXwjwug1kulhTqxGREREJEtxc7O/Ex3lMdEVfZuQx80wi9tN46wB15zaebTd0/AwyhlwzW4aTh8ZbhhuD0G0m2kaR53dd6zIG17HXNW3iIizKPyJkaNwborWKeXqMkQkGZ7ZnTdLkohIeo3BL4/dZm4G6pRo8BDNJnXIIj9fVKfeK835b3cgmwZ9w9k/jnXwttnLfRbxSrNX+fy6q6sTERERcYXwNyccB467ug4X+d2FfbtuqJWIyH3EzdUFiIiIiNwLvsXH3bCZ3wB1qnZuQIcNg7NI8HNL0bql6LhpCFU7PQoY9W7YwheOZKR+HhQRERERERG5x+iXfREREZEMcNwzT3egdenmVWg9rRvutqw5wNrd5kHr6d0p1bQyQBtvz9PdXF2TiIiIiIiIiGQshT8iIiIid2gkPjbcjA89snmYT8/ojptH1v4Ry83DjdbTu+Hh5WEabm6jRuKjuTVFRERERERE7iFZ+50JERERkbtAdq/8TTEpXqPH40bO4nldXU6q5H4wP9W7NzRM0yyR3Svfk66uR0REREREREQyjsIfERERkTtk2u3PAFRoV8fVpaRJhXZ1gVv1i4iIiIiIiMi9QeGPiIiIyJ0yKA9QtHYpV1eSJo56DaOcaysRERERERERkYyk8EdERETkjhmFPbJ5mLZc2VxdSJp45fHGI5uHCUYxV9ciIiIiIiIiIhlH4Y+IiIjIHTNt7jYPVxeRLlbdps3VdYiIiIiIiIhIxlH4IyIiIiIiIiIiIiIicg9R+CMiIiIiIiIiIiIiInIPUfgjIiIiIiIiIiIiIiJyD1H4IyIiIiIiIiIiIiIicg+5O1cmTmCszTfAMIwy6Wpsmu4ZXI6IiIiIyD1pbDa/JtjNlYZhGK6pwMxlmka0YRDm9J5NshuG6Q5GsNP7xvQywAaEgRHt5M7dMczsYEQAN53aN2Bi5gIj2sAVX3PT2zDwcMXXPKZ/0zSMTsNuTv/OFf2L3OfKY/27e8DVhWA9uN0S6AdEAu0T7C8ArAFyAs8Dx51anYiIZFn3RPgD5MbNyJ2/fJE0N4wKi+DayaBMKElERERE5N5imHiakCdbgRxkL5jL6f0HHTqH4W545C9fJLez+7589DxmtEmBSkWd3vf1U0FEhkaQ+8H8OTxzeDm17/DLoYReuI53gexe2Qvldm7nWF9zj2weHnlKF3T6fb9y9Dz2aDv5KxTJbbg5N++8ERRC2MVgDBNPp3YsIrHeBnIAL7q4jp7AUKBCzJ83JHFMc+CxmNftgQlOqCvWYuClO2hfFTiYQbWIiEgC90r4Q/YCOem194M0tzu9/SiLmo3PhIpERERERO5Ndfo2oeF7zzq1T3uUnQk5+uKZ0ytdP/ffqf8r/BoR127QY/cI3DycO3v2N09N4NTWI7T8qgtlWlR1at9/fvkzGwd9Q43ujWj8ccKHzTPfuGx+FKxanK473nF6358Xf4MbQSF0/fVtbLmzObXvPyb+yNa3lzu1TxFxKAR0ANyB4sBZF9ayHFgEHAJKJXPMJuAPrJE/K51UV6ycQChW4BQA/Ic1OqkcVjAEVv2TYl57Y42qeg2oGdNeREQyyT0T/oiIiIiIiIiIiNwhXyA28fUDRrquFK7FfD5A8uFPEPCoc8pJJBfQA1iaYHtEnNfngd1x/rwdKxjaievCn37AUazgTETknuXcR9ZERERERERERESyJg+sYCCWH2SJ6Redvu5ZKl0GlqWj3Q1gDtbUes7mDgx2Qb8iIk6n8EdERERERERERAReAPIDs2L+XAxo57pyHLJq+DMHMNPZdjUQmIG1pNabwEMu6FdExOkU/txFdu7cycqVzpm+NTg4mDlz5nDu3Dmn9JcVXb58mWnTphEcHJzk/th79N9//yW5f9u2bSxbtgy73Z6ZZYqIiIiIiIhIxngFWAiMBmJ/me/vgjo8gSKAEfPn1LyxkJdb09WlxAYUSGddCa25g7b/AvuS2J4XK3TLjKUqOgAfZcJ5RUSyJIU/WVxoaCgzZsygbt261K9fn/nz52dqf/v27aNfv36UKFGCnj17curUqUztLyvauXMnPXr04IEHHqBv375cvXo13v79+/czYMAAxz06ffp0onMEBATQuHFjfHx8mDp1qrNKF7lvvP766+TPnz/dH/7+/q6+BBERERERyVpqAY2Az4DjwPqY7U8A1VNoVw34GtgY56N2nP2PA98k2J/c+3H1gR+BCzH9XwQWAPlS6L9xzPnPx7RPijvQBwgA9gN/Y40mWgbUSOHczpIdeB84gRUKncW6B58BueMc1wVYS/x7+QPQJmZ/5wT7PojZ7g38H7AI614AjI1zXMOMvyQREdfLjBRdMtD06dO5cOECf/75Z6b3deTIEZYsWcLevXuTHe1yr9u3bx9r167F39+fGzduJNofGBjIokWL2LNnT6rvkUb+iGS8CxcuEBoaysCBA6lduzZFihTBMAzOnz9P586dAWjVqhWDB1tTOdvtdo4fP85XX33F3r17uXbtWkqnFxERERGR+88rwM/AXzF/nsKtUGEA0DeZdn9hhQ6DgEkx2/LH2b8N2AHMAzrFbDNIrAswG5gW028k8ACwAng4ieNLA18AT5Ly2jm5gSVAeawp7PZhhU9dgBlAW6A7VjDiCgWwApy/gbpAEFAHq+ZXsMK3x4FgrCDsJ+A7rLAOrFBnXczrr4HngWewri92PSIj5pjtwNKYbUuAPTGvj2b8ZYmIuJ7Cnyxu0KBBAPz000/s2rUrU/uqUKECo0ePZtOmTbRo0SJT+8qqatSoQY0aNahQoQJdu3ZNtL9UqVJ88skn/Pjjj7Rq1SrZ89SqVYuffvqJM2fO0LFjx8wsWeS+FBwczOTJk+nbN/7vX4GBt6aMLlGiBM2bN4+3v1u3bjRs2JCQkBCn1JnQkiVL8PT0pF27rDBtuIiIiIiIxCgAdIz5iLUBKxQojxXaDAVSeorse26FPwlFx5yvUzL762MFP98DA+NsPw34AP+Q+D28E1ghkQ/wbQp1fQa0Ah7j1jRrdqwwqjAwDpgfc74dKZwns8wFbmAFULFPz+4BXgZ2AjWxRvC8EbPvLPAs8CdQEGgPvB1zjgeBFkBPbgU/YI1y2oR1vbH2xGwTEblnadq3u0TevHmd1leePHmc1ldWlTt37hT3p+YeNWnShM6dO+Pu7n7bY0UkbWw2G717905zu2zZstGnTx+XhT/jx493Sb8iIiIiIpIiX+A/bo0gASuI+CrmdU6g223OcbvpQW4ms90ApmOFO+OS2B+INWIlOcdT2Pc4Vt2Hgd+S2P9/WGGKO1ZI5GwNsQKsaSRe18gfiP3FrSvx38M8DfSKef0g8GHM/tnALKxp8ERE7nsa+XOXyJ49u9P6ypEjpdHC94fb3W9nfj1EJDEfHx88PNL3X1jLli1dsp7ZzJkz2b17t9P7FRERERGRFHkA/YDJWCN04poDfIS1Jk1/4HPAzOD+m2GtuxMG/J7MMYHJbIdbAUlSfGM+70lmfyTW9GeDsKZcq4W1LpCz+MR8fgFrereEomI+FwCKY4U+sdZgBT29gNex1kXKhTVCS0REUPhz1/Dy8nJaXzabzWl9ZVWenp53tF9EMleHDh3S3bZUqVKUKlUq0fabN28SHh6eKaMfN27cyCuvvJLh5xURERERkTv2HFawsBcrAEnoF6xp0yoCzYGNGdz/MzGfz3Er7EgopcAp8YLFt7SM+Xw5hWP+iPP6UazwpxDWdGvJ2ULytaZF7P3+Fvg3if3T47y+lMT+QUBToAzQA+trFJkBdYmI3BMU/mSiS5cusW7dOo4fP05QUBCFCxfmySefpFGjRri53dmMe9HR0axYsYIdO3aQPXt22rZtS/369ZM9/tixY2zYsIHAwEDCwsIoXrw4Tz/9NNWrV09Vf4GBgSxatIhz585RuXJlXn755XhvkJ49e5Zz584lale4cGEefPDBZI/LnTs35cuXT7bfEydOEBQUlGj7q2C9XwAAIABJREFUAw88QJEiRZI9rmDBgone3D127BgrV67k+PHjuLu7U7duXXx8fPD29r7N1afPsWPHmDt3Lu3bt6dmzfg/M4WHh7N06VKuXbvGwIHWdL4BAQEsW7aM8PBwWrduTbNmzVI8/969e/nuu+84ffo0hQsXpkaNGrRt2zbdoyFM0+SXX35h9+7dBAYGYrPZqFixIs8//zwFCxZMss3Vq1dZsWIFBw4coGDBglSrVo3q1auzadOmdE3JJeJskZGRfPXVV0yfPp1jx45x48YNChYsSKdOnfjggw8c/86tWrWKpUuXEhkZ//eIjh078sILL7B69WoWLlzo2F6hQgU++ugjIiMj+eSTTxyvASZOnMjixYsBGDBgAI0bN3bS1YqIiIiISBIGAleJHzTEZcR53Z+MD38qx3xOb2iRXDCUHSvEgZTf/zsR53X+mM8NgNUptMmHdc/uVOybDWeB9EyTEIz19fsOa9q3TljrA4mICFrzJ9OsWbOGsmXLsnDhQmrVqkW9evVYvHgxjRs35plnniEqKv0PSJw9e5YGDRrw4osv8n//9398/PHHPProo/Tt25fo6IQjlGHChAlUrFiRP/74g8cee4xy5coxceJEatSoweDBg2/b38yZM6lQoQJvv/02n3/+Of3796dSpUr89tut6WLPnDnDkCFDqFevnuNj6dKliYKby5cv89VXX1GvXj06duzI4cOHU+z76NGj+Pn5Oc5Zv359fvrpJ65di7/G4n///cdHH31EvXr16NevHydPnnTss9vtDB06lBYtWnDt2jVKly7N5s2b6datG5UqVWLPnuRGP6ddVFQUK1eupFWrVpQvX55Ro0Zx4sQJx/7Dhw/zxhtvUKJECbp27cqPP/5IREQEr7zyCnXq1GH06NFMnDiR5s2b8+mnnybZR3h4ON26daNJkyaULl2aIUOG8MADD9ClSxfKlSvHiy++6PiYPXt2quoOCwujZcuWtGnTBtM0adasGREREfTp04cyZcqwaVPiNRAPHjxItWrVOHjwIC1atKBkyZKMGzeOMmXKON7YFsnKQkNDad26NRs3bmTdunWEhYXh7+9PgQIFmDx5Mg0bNuTqVev3meeff57x48dz/Phxli5dytKlS8mZMycvvPACAM899xw5cuRgxYoVNG/enFGjRgFWUF+5cmXmzp3r6Pexxx7Dx8cHHx+fJEcgiYiIiIiI09QAGgNNgIeS+SjLrWnTngVKZnANsXPvZ/Riz27cCq6KpXBc3LWKLsR8DgWOpfCRcH2e9IoNrurcwTl6cGvU0LvAI3dUkYjIPSRLjPz52Mu3ghv2iultb9rJUguwHDx4kA4dOuDm5saaNWscI0ueeOIJKlSowA8//MDChQvp1u12awUmFhwcTOvWralQoQIvvfQSgYGBzJ49m9DQUKZNm0bOnDmZMGGC4/iVK1fy1ltvUbt2bebMmePYXrp0adq2bcukSZPo0qULtWrVSrK/b775hhUrVjB48GDy5cvHypUr+e233/jvv/9o3bo1AQEBlC5dmocffpgff/yRhg0b4u/vj2EYjBgxItGommrVqtG2bVvmzJnD6tWrqVy5cpL9xmrRogWPPPIINWvWJDAwkPz58/PWW28lOu7RRx+ladOmbNy4ke+//54CBQo49g0YMIAdO3awe/du8ua1fpYaOHAgTz31FNu2bePpp59m3759FC5c+PZfgNu4du0aV65coWjRotjtiX8W+uuvv6hevTqhoaGA9cZwly5dKFy4MNu3b3cEVTt27OC9996ja9eu8a4FwM/PjwULFjB9+nRefvllAMqWLYtpmvj5+REYGEinTp3IkSNHorbJ8fPzY+PGjYwePdoRCLZt25arV68yf/58+vfvz5EjR+K16d69O02bNo33/dahQ4fbjlgSySoGDBjAxYsX2bVrl2O6y7p167J8+XKqVavGgQMHGDZsGFOnTgWgePHirF27ltq1a/Pff/+xfv16QkJCyJkzJ0FBQXz//fd8+umn+Pn5OfrIli0bPj4+hIeHO7Y1aNCAdu3aOfdiRUSyiPMBJwk+cyVdbc1oEzCxR0Xzz3d709z+xqVgrp64RN4yBfEukCvN7e1R0YDJv+v3Ybgbtz0+ruiIaC7sO4l3/pzkLVvo9g0SuBEUApic3XmM6Ii0P0R2Yf9psJsUrvng7Q9O4OKBM4DJlX8vpOu+Xwu8RNjFYApVewCPbOmZOtkk/FpYuvoOvxzKlWMXyFOyINkLp/1rbt1rk2M/7scje9qmxrZHRXM+4CTZ8uYgX7m0/54RdOgsYGJiPjzGq1fiJ/xSwQ2PyLduTvshPW1F7iMDgZ+Bv25z3BSs9WXcgb7A20kck5a1gNy5tb5Q7FOzRYHC3ApgkmuXWiHAeaAI1lo+yYkbOsXeh5+wgq/M9h/WyKdOwGcpHNcG2Er8oAqsr18JrOv7DagGzMcKk8IyulgRkbtNlgh/3E2zI7iNTPcJ0va7V6Zbv349N27coFixYvHCj7Jly1KxYkUOHjxIQEBAusKfXbt2sWDBAtq2bevY1qdPH5588kkuXbrEp59+Sr9+/XjoIev/6BUrVmCaZqJgo2XLlhiGgWmaBAQEJBv+HDlyhICAAPLlywfAkCFDGDRoEJMnT+batWu88847jqmObDYbX331FY888gimafLdd9/xv//9L9E5N2zYQMuWLW8b/MTKkycPkyZNon379o43ah9++OEkz9ulS5d4gcemTZuYOnUqW7ZscQQ/YL0hO3jwYLZt28b58+f5/PPPHU/q34kCBQrQs2dP6tevz7x58xLtb9++PQBz587ll19+4ddff2X58uU0b97cccyXX35JrVq1CA0NZfv27Tz33HOOfXv37mXBggUAPPvss/HO3bVrVwYNGkRoaCi1atViyJAhqa57+fLlAPGm0gPr+2T+/PkcPXqU4OBgcuWyfmm+evUq/v7+iaazc3d3Z8KECQwbNizVfYu4woEDB5g/fz5ffPFFonXOqlatSpEiRTh//jxff/01n332meOYokWLMm/ePFq1asX58+cZPny4Y0TkU089pXV9RERuY9enGzi4eOcdnMEgKjSCFe2mZFhNae1/pc+XLuv71w/XuqzvI6v+5MiqP13S99V/Lrr0a76m8wyX9W3A25jp+4XXjv06kPGLGYrcOwpihQ4vp+LYb4AJWNOd9QI+BMITHBN37Z2ctzmfNxAR83oX1rpDAC8CX9ymXVp8D3THGq1UC2s9n4RiRwUdJ/76P87wK9aoq0eA3sDMJI7xAl4D1iXYXg8rhHsUK+jqilV/RWA8MCBzShYRuXtkifAnVvVuDdP1VNTOSRsyoZr0q1+/Pl5eXrRo0SLRviJFinDw4EFCQkLSde6mTZvGC37AeqPy008/pUuXLtjtdhYvXsw777wDwOOPP86iRYvihQtgBTX58uXj8uXLBAcnfHDilhEjRjiCHwDDMJgwYQKbN29m//79LF++nFmzZpEtWzYA6tWrR+vWrVm/fj0TJkxIFP6Ehoby9ddfM3/+/DRd9wsvvED16tXZv38/EyZMYMmSJfH2nzp1iu+//57du+NPEfvFF1/g5eVFsWLFOHbsWLx9OXPe+lls06ZNGRL+xIoNSZIT2/cTTzyR6GtTs2ZNbDYbERERnD17Nt6+n3/+GbC+DoUKxX9q1MvLi7Jly7J//362bt2apvCncePG7Nixg0cffTTe9qJFizpeh4SEOK7r8uXLmKbJokWL6Ny5c7w1S+rVq5dkOCeSlXz77beYpsn333/P3r2JnySOHbkXGhrKv//+Gy+sfuqpp+jfvz9Tpkzhyy+/xN3dnf3797Nr1y6n1S8icrd75I2WZMvn3MH7/+0O5MiqPRSpXZKK7ZJazzvzXDsRxN5Zv1C4xgNU8nH+z0nbRqzCM7uNR4c+7fS+/SdvJOxSCPVeaZ6u0Td34p91+zj7x7+Ua1OT4vXLOrXv0AvX2f35TxSoXIyqLz96+wYZzP+zTYRdCs5ij0mKZDmDgGskDhWScgNYCvhhjc7pCSR8GuB6zHHeWAFEXDmwpieL5R3TN8BCYCTWe3TvAcuBhIsqu8dpl1Dcp9kSDrH8FOgcc+5BQFJPIdeL+TyetI1eSkm2OK9TCqzmAsOxru8rrPqnxqkjV8wx2xO0KwR8izXyJ3be/z+B0Vj3sh+wHmstoLhuxnmdL87rikDK6xKIiNyFslT4U8mnHmVaVE1zu72zthEVFnH7A53k8ccfJyQkBA+PW7f3+PHjzJ49m4AA6yGLO1nzJykvvfQSAwYM4Pr16/HWsPHz86Nnz57xatmzZw8zZ850hD5prcXDw4MePXrwxhtvcPPmTQ4cOEDdurd+gR4+fDjr16/njz/+YNOmTfHCjSVLlpAnTx6eeeaZNPVpGAbDhg2jU6dOLFu2jEOHDlGpUiXH/pkzZzqmh4tlt9vZunUrbm5uvPvuu0me18fHByBRkHKn4gZLScmePeU3O/Lly8f58+cJC4s/Sjl2TSfTNLlw4QLFisWftrdYsWLs37/fsU5Jav3www9ERUU5vk8iIyNZs2YNX3xx64GjuN8nJUuW5IEHHuD06dM0a9aMnj178u6771KypDX18SeffJKm/kWcLTYobteuHTVq1Ei0P+7UbbHf13GNGzeOjRs3cuTIESZPnszu3bvJkSNHouNERCRptfs0Jk/pgrc/MAPtm7OdI6v2UKhaCR59q7VT+z69/Sh7Z/1CwSrFnd43wPYP1uCZ3cslff+14DfCLoVQs9fjFKic0pITGS/4zFXO/vEvpZtXoU6/Jk7t++LBM+z+/Cfyly/ikvt+YNHvhF1K/iE/EeEh4FWsKd9SO7XiLqzwB6wRJ98Cl+Lsj8aaeqwpVtCyO+ajETAUa5RLy5hje8Yc+xtwAvgEK/gpDGzGGsWyC+t9u1exRgQBVAWaYY0a2hazLe6cngn/od0HjAI+ALpgBUtr4uwvHXNNm4Fpt70DqRd3cdOU5hz9FyuweR/rWr8EhmDdqxxY6zGdI/7oLG9gNbAXWJHgfJ9gjXQqjRUa1eVWOATWtHHXsEZF+gGHgHbA3yj8EZF7kJurC7hXxb6JvmXLFlq2bMkLL7xA6dKlk3yTMSN4enpSrVo1AIKCguLt8/DwwG63s2TJEurVq8eQIUNo2bJlvBE9aVWnzq21+BL216hRI5544gkARo8eHW/f1KlT6d27N+7uaZmm1vLSSy/x0EMPYbfb44ULUVFRzJo1i759+8Y7/urVq1y9ehVvb2++/fbbFD+mTMnYaSTihm1JSTjNVEKx98c04z90E/e+J1yDB+DSJevnzuSm8UuJh4cHV65cYeTIkVSoUIENGzbQoUOHZI+dO3cuuXLlIjo6mhkzZlC+fHl8fX0TjVYSyYouXrwIWKPb6tatm+JHUqFO9uzZmTHj1hQw3377rdNqFxERERGRdMuBFQ6sx5qarRnwJvBYCm3yAu2B/nG2lcAKTLoA+eNsH4E1uqQosAm4grVe0CtYI1NivUT80UEjgc+xRrxUAnYCZ4CLQA2s0AasgOR1rADEBrQA4i6M/BrwDPGnnfsw5iMaWAZMjrmeV2P62YC1pk7ihYvTrmbMtY2Ns+0pYBjWPc6dRJuRwJg4/ZfFuq/tgKsxn2NH7FTCCnwaYE3bl/BNtkbcWhyiINbX4H9YX3di+ogNuZpjhWMlsEZ1iYjccxT+ZJJTp07RokULevTowWuvvUZAQAC9evVyTI+WGfLnt37eSDiqZPfu3dSoUYNJkyYxY8YMNm/ezHPPPYebW/q//HHXz0lqFMvw4cMBK/z69ddfAWvEUUBAAL17905Xn+7u7rz1lvUzzaJFizh+/DgA69atIzw8nBdffDHe8bEjm2JDoHvBk08+yWOPWT+Txi5CH+v06dMcOHCAXLly8cYbb6TpvKZp8uWXX1KmTBkuXbqEv78/06ZNo0qVKsm2adasGbt373ZMQxgREcHMmTOpVKkSq1atSuOVibjGn3+mf+2Cb775hlKlrAfaJkyYwPbtCWciEBERERGRLMYGhALvYo2m6Y418ialp2OzY71/9klMm9iPUVjr/sSd1mw7VsgxE2uEzTtAbay1ds4D84HHsUKSqdxaN8iOFcY8jjX6ZR3WlGU+MTUGAOOAcsCzWIGNO1YwNTtOTWNj6vVKcA0jgGox11Ac6BDz+SmgI/HXK7oTpWKuZVicmjphjfApEVNbQibW1G+1saaeWwsswZrSrQZwNM6xNm5d72ckXtcsN1aYF9v3O1hhUNz7MQwrEPoA6/r9yLjp7kREspQsNe3bveKff/7hsccew9PTE39//0RTc2WWGzes/6vjTlG0adMmnnnmGerUqcPPP/+cYeFTePitdQ1j3/yMq1WrVtSpU4c9e/YwevRo1q9fz7Rp03juuefu6H5069aNDz74gLNnzzJ27FimTp3K1KlT6d69e6Jry53beqDEbrfz008/0b59+2TPGxISctup2rICwzBYsWIFL730EosXL6Zo0aL069ePoKAgBg0aRP78+Vm8eDFlypRJ03lfffVVvvjiC0aNGpXsFHlJKV++PKtXr+bnn3/mrbfewt/fn+DgYF588UX8/f0zbaSbyJ2KXc/qm2++Yfjw4RhG0lPib9myhWrVqlGwYPypiRYvXsy2bdvYu3cvTZs2Zc+ePXTt2pW9e/feds0vERERERFxmSukfZTH2TS22QP4JrF9S8xHSn6N+UhofBLbYtchSq3DWCFQZlpz+0OStY/4o5iSO2ZfCvtT8ySqiTWSavntDhQRudsp/MkE/fr14+LFi7z//vvJBh2xi4lnpH///ReAFi1aANZ0aN26dSMiIoI333wz2eAnPbXE9lWpUiUefDDp6VuHDx+Oj48PP/zwA1u2bGHRokV3PCLEy8uLwYMHM3jwYObOnUunTp3YtGkTn332WaJj8+XLR7FixTh37hwTJ07khRdeSHK0U2RkJD169GDp0rtjlG+RIkVo3LgxFStWpFixYkyePBlPT08GDhxIu3btbrueUEJbt27liy++IFu2bI6RVUmJ+30SFBTEnj17HN9rTZo0YefOnYwbN47hw4cTGRnJ1KlT+fLLhOtfimQNDRo0YM2aNfz1119MmTKFgQMHJjomOjqajz/+mPXr18fbfuTIEQYNGsRPP/1Enjx5mD9/PvXq1eP48eO8/vrrzJo1y1mXIXeJ77//nn37UvodNWklSpSgc+fOKR7z+++/s3z5cvz9/Tl79iyenp6UKVOG+vXr07VrV0qWLElERASDBg3K8ClORURERERERCTrUviTCX7//XeAFEfZxB05kxEOHz7MiRMnKFu2LM8++ywAJ0+edKy/klItN2/eTHZfcjZs2ADAa6+9luwx7dq1o2LFihw+fJj27dtTvHhxmjZtmua+EvLz8+Pjjz8mKCiI559/nieffJIKFSokeWybNm2YMWMGv/32G0OGDGHSpEmJjvnoo4+oWbPmHdflLO+//z4bN25kx44dyY5WSIvY71d3d3c8PT2TPS7u90lwcDCTJk1yhD9gjUoaOnQoBw4cYMGCBVr7R1wi7r+tKf0726VLF0aMGEFERASvv/46hmHQv39/x9+pmzdvMnDgQCpXrhxvDa/g4GB8fHz48MMPHdMiVq1alQ8++IChQ4cye/ZsnnnmGdq1axevP09PTwzDwDTNeNNQnjp1KtkAXe4djRs3ply5ckyaNMkxZWeOHDno1KlTvOPCw8O5dOkSO3bs4OrVq9SuXTvZ8Gffvn0MHDiQbdu2UatWLfz8/KhSpQoFCxbk/PnzbNq0iUceeYRq1aoRGRl5z0x/KiIiIiIiIiKpozV/MkHhwoUBWLhwoWMqtujoaMaPH88vv/wCWOvQmKYZb8Hw1AgLC0u0zTRN3n//fTw9PZk2bRo2mw2AggULOt7InDVrFqZpTWEaEhLCwIEDuXDhAgBXrlwhPDyc+fPnJzp3bP1xHThwgMWLF9O4ceMU1+9xc3Nj2LBhAFy+fJk+ffpkSFiRM2dOXn31Vcd5+/btm+yxQ4YMwdvbmn73008/5amnnuKHH34gMDCQ33//HV9fX+bNm+c4X6zLly87Xl+5ciXReeNuS+oNtaCgoBT3h4SEAHDt2rUk644NWuLWAdaUgqNHj+b8+fOsWrWKgIAAjh07xqVLl9IV4gEUKlQIgNDQUL755hvH9oMHDzJkyJB413Ho0CG2bdsGWFMK7tixI9H56tSpA0CtWrXSVc+97JNsfUuPtfU+NcbT97Nxnn51XF3PvejUqVOO16dPn072uBIlSjBy5EjA+vd54MCBVKxYkZ49e9K5c2fKlSvHxo0bGTVqlKNNVFQUL730Ennz5k30b98bb7xBpUqVAOjdu7djTbJY7u7ujpGg8+bN4+jRo3z++eeJRhVJxhjn1afVWJvfv2NtvUd8kq1nWVfXkz17dsqXL8+UKVMcIXu+fPmYNm1avI958+bx3XffERgYSKtWrQgNDU3yfAsWLODhhx9m165dfP311/z555/069ePxo0bU7VqVZo2bcrHH3/MwYMHsdls/PLLL0n+XyYZYzxdcoy1+QaOsfnOGePh18i8tciwiIiIiIiIiMso/MkEL774ImCFJLVr16Znz55UrlyZ0NBQWrduDcDmzZupW7duqsOQ2JEtGzZsoE+fPly6dAmwQoI+ffqwZs0a5s2bR/PmzR1tcufOTatWrQBYsWIFDRs2pEuXLtSqVYuHH36Y8uXLAzB9+nQeeeQRxzoxuXPndqyH0alTJ9auXeuY8svf35/mzZtTr149VqxYEe+J+KR06tSJkiVL4u3tTbdu3VJ1rakxcOBAcuXKRbFixXjuueeSPa5ChQrMnDnTUefGjRtp3bo1pUuXpkGDBixYsIA5c+Y41geKtWfPHsfr3bt3Jzpv3G3+/v6J9sfdFvdcABEREY5F5v/55x9HEBTr5MmTjlAo4WL0169fxzRNjh8/Trt27ahduzYPPfQQhQoVIlu2bNhsNooXL06XLl04efJksvclrtatWzuuv1u3bnTs2JFWrVrRrVs3Bg0a5Diuc+fO+Pn5OUZJxb4RHjcACg8P59tvv6VUqVK88sorqer/fnIzvOhJMK64GQw0DXPXWJvvsTE2v7cmefct4era7nYnTpxg/fr1DB482LFt+/btjB8/nj///DPJN9GHDRvGu+++65gO8ujRo8yZM4eFCxcSFRXFypUrHX83AgMD6dKlC99//z0RERH89ddf8c71559/Os5z5coVmjdvzqpVq+L9/Y4NjH755RcqVKjAzz//nGKALunncTNqJ1AAjBHudrd/xtr8do3z9Os9Br+EC8I6lZubG0WKFLntcblz52bevHlJ7lu+fLljStcZM2YkGj0UV/78+Vm1ahUPP/ywwp9M9CYLQsE8aEA3w42fx9n8zoy1+Y0c5+X3kKtrExERERERkfuXpn3LBO+//z6XL19m/vz5HD58GC8vL+bOnctjjz3G2rVrWbt2LXnz5mXQoEF06dIlVeccNWoUTZo0YeLEicydO5fZs2dTvnx5goKCaNCgAf7+/lStWjVRu9mzZ9OrVy82bNjAH3/8Qfbs2dmwYQNly5bl/PnzDB06lCJFivDFF1/w+OOPA9bIpcOHDzN58mRmzZpF27ZtKViwIAUKFODGjRsMGTKEV199NcUpwmJ5enry5JNPYhgGBQoUSNuNTEH+/PmpW7cujz/++G3rePnllylRogRDhgyJF8rUrFmTL774gkaNGjm2XbhwgQ8++IDdu3dTt25dAGbOnIm/vz/Dhw8nf/78DB8+HH9/f8f+VatWceLECV5//XXKli3LsGHD4u3fsWMHfn5+vPnmm/z9998sXLiQwoULO0aIde7cmcaNGzNo0CBGjhzJzp07HQHLxYsX6dq1K3369KFhw4bUqVOHxYsX0717d4oUKcKVK1fijR6KjIzk3LlzfP311/z888/s37+ffPnypXh/ihUrxsqVK+nTpw///PMPa9eupW/fvnz00Ud4enoyefJk/vjjDypVquQIyi5fvkzlypXJnTs3zZs3p2bNmpQuXZo//viDxx57jGXLlmXo1/teMZKR9rFmr952w+03wwrfyxgwMjLa/skYz97bDcOYfiPCWDmS6YmH+EmK/v77b0JDQ3n33XcT7fvnn38oVKgQOXLkiLfdMAxGjRpF+/btmTdvHocPH8bd3Z2GDRvSp0+feH93wsLCaNeunWM6t4sXL8Y71/nz5x0jiWJFRkYSFhZGzpw5ARg5ciTVqlVj9+7dPPzww7Rr1y5DRkNKYm8w6/I402+ICV+YhuEFZl3T4DM3G1+OxW+tYdhnhd18YMNIRkY5u7bY74fbKVy4cKJg58yZM/To0QPTNGnUqFGKwU8sm83GzJkzqV27NhEREY7RwZKx7G4e/dzs0UfB9ACKYTIUzPfH2Xz3YJrTPSOjvh3EXM29JyIiIiIiIk6j8CcTeHt7M23aNKZMmcKNGzfIlSuXY9+zzz7L9evXsdlsjqfEU6tp06Y0bdqU0NBQjh07hmmalClTJt75EypatCjfffcd4eHh2O12smfP7tj31ltvMXDgwHjbYuXOnZv33nuP9957j1OnTnHhwgXy5ctH2bJpmz0nJCSEVatW8cMPP6Sp3e0EBgayY8eOZJ+MTqhx48bs2rWLs2fPcu7cOQoVKkTJkiUTHVe4cOHbLog9efLkFPcnta5QrPLly9O2bdtk9yd88zih6Ohovv32W+bOnesYYWa327ly5Yrj4+LFi/z+++9MmDCBtWvX0rVr1xTPCdb31tGjRwkODsbb2zveiK7ffvuNsLCweN8npUuX5uDBg4A1kunff/8lMjKShx56KNEb7BLf0MhZO8fYfHcbUM+aGsj0BnAzjMdNeMTbZp8zBt91GPY5ZW9eX/8iS6NdXfPdIHZUZXrUqlXrttMUVq5cmcqVKyeTkRxNAAAgAElEQVS7v02bNrftxzAMfHx88PHxSXONknZhkVfme3vmnQB4YU3D5W1Nfmp/zjSNNtlsZyLGGn6LzWjmDYuavt2VtSbn/fffj/fnd999l+DgYADeeeedVIeHNWrUoHXr1ly5ciVVI48k7YaHTz0x1ua7yoTnDfDAIJtpzf5WF8OYHGHznDIG381uGDPzRLCqD9MjXV2ziIiIiIiI3NsU/mQiDw+PJIOZbNmy3dF5c+TIQfXq1dPUJrk+kwp+EnrwwQfTvSD5119/TdmyZWnQoEG62idn2rRptGrVKskAJyXFixenePHiGVqLM7355pvcvHnTEfyANY1QgQIF4o20efrppzl+/HiKC94nJbkgMaXvE5vNluKb4pKYm8mXpsEUwHFjY9aIyBazVMSzhun27HHPvJfHGL1nGoZ9/tCbsw+7ql6Ru9FIlkaMwXe+AX2AOMNdDHfA3QCbYZpdcKPnWJvvvxjGtCh3Fr0TNv2cq2oGa3rPQ4cO8cgjj8TbfuHCBRYtWgRY/yY/+eSTaTrv66+/7pjCVTKHmxvT7HaSesIjG4AbZjM7PHnNk7Cx+M23Ez13eOSsP5M4XkREREREROSOac0fyTQ3btxg/PjxvP766xl63kuXLvHll19m+Hmzuu3btzN58mTHWk0pCQkJISAgwLHmk2Qt0e7uW8w4wU9ChhXMe2BQGNN4A9P94Dib34FxXr6vfUyPQk4sVeSuZhjGZtMk2cTDtEYFuQHlTdP80CPKPDPWs/f2MZ69u46ni0uGMf72229s3bo10fZ169YREREBQMOGDdP8IEnz5s0pVqxYhtQoSXMPz/kr4J7cfhPD3QCbaZh5Mex93Qw3/zE23+NjbX4jJ2TrVcqJpYqIiIiIiMh9QCN/JMMsW7aMKVOmUL16dRo1asS8efPw9vamc+fOd3TeL7/8kuXLl1OnTh3q16/PxIkTqV+/Pk2aNMmgyu8O27Ztw263M23aNKpWrUrXrl2TXO/o+PHjdOvWjV69eqV5ZFTWZxpjbL4dXF3FHbNHA4QT8zR4SgzDOsbErGKa5jh3m8fEsfT53iR6ZnjEte9HsjQik6uV+5AJ+e+Fv2uGYS8ARqpSEiMmkDUMHgPjEbst27Sx+C0x7cbsoVHTthlgZm61EBoayvjx42nZsmWifb///rvjdXpH42ZV47z8nrKbZn5X13GnIggBg0uGyW3m1jMgZjSaAaXBPjza7vb+GM/eWzHcZtgicqx8g09vZHrBIiKZaIyHXyPczAdcXUeaGDya+f/byz2oPOAJHHRB3w8DZ4Ezyez3AB4F/gCcOeWsG/AY1j25nM5z1AEuASczqigRkfuRwh/JMJ988gl79uxhy5YtfP755xQsWJCtW7fi7p7sQ7CpMmLECC5dusTmzZsBKFu2LMuXL8+Iku8qPXv2ZMmSJezdu5fevXszePBgatSoQbFixciTJw/nz5/n1KlTHDlyhP/7v/+jd+/eri45ExjuBnzj6ipcxcCImbrK/oyB0dLbljd8jOn3tc3DbfQbN6Ym9wO/SHo8dC/8XTPN1K2JE68NhoH1C7yngdkZNzqNs/W+NAZjeniEMXYk08MyorYLFy5Qr149x5+joqI4duwYwcHBSYY/x48fd7yOO83nPcE0PzagrqvLyBDpetPQ+rfdzaCxiflYhC141hj8ltkNc9TbN2ccydgCM86h5f5c+vtsmtud23n89gclw7SbrOk8Pd3tr524BMDJX46w+uVpaW5/6eBZIoLDKf5I2ZgML/VuXAoB4PSv/6Sr7+AzVwg+fYUClYrhlcc7ze3t0XbCr4Wlq++bweEEHTxLzuJ5yf1g2nPakHNXAdj85rfYcqd9+uuzO4/jmd1GoWol0tz2fID1nuG+uds5tS3tf50uHzpH+LUbFKtXGsM9bZNm3LxuZbjn/E+k676HnLvG9ZNB5K9QhGz50j4YNfjMFUwT77E232/T3DiGYbL+rcgZc9PT1s3NHGLCc+nt2yUU/NzPmgE+QEUgGjgGfAf8iPXQ3iTgjSTaPQzswAo7WgKbnFFsjIHA58A1rLrPx9lXHOgN+AIPAIWwghRnmQi8DpwAKpD24Kk7MAcIBaoCgRlYm4jIfUXhj2SY/v37079/f6KiomjevDmfffYZFStWvOPzvvbaa4wYMQI3NzfatWvHpEmT7up1e9KrSJEi7Ny5k7lz57JgwQJ27drFtm3bHPurVKlCmzZtWLdu3X15f+5GJml+7yiWYa1bYuY0DLNzlN2+iuSf9hKRdDLBHcwoMIoa4OvlFb2Am/yTEefOkSMHfn5+t/oyTQ4fPszUqVOTPP7GjVsDQXLnzp0RJUgWExs8GhgmmP9zt7MByLLhT9Df5wj627lLZJl2k8PLd9/xea4HBnE9MCjd7Q+fTn8N109d5vqp9D4EDcGnr6S7bfTNqDu6f8Gnr9xReHd844F0twW4fPi/dLe9EHCKCwGn0t3+Tu57yNmrd3zf0ytmKmGf9La3w3/A3HQXIJL1eQPzgf8BG4G1WIFDDazvfXdgH1CdpMOfEtx6X6105paaSOyUsbmBAtwKf+oBr2EFWq6a8ze2tmJYs12kNfyJbZ8DKIzCHxGRdFP4IxmmV69edOjQAbvdTq5cuTLsvO+++y6vvPL/7N13dFTV3sbx7yQhoYooiFQBsbwoFgIoSpGiKKKgXFH0BqSLKHbAdgH1ihRB1CsEAtLBCiIiIiBVQBGlC0jvnUBIz5z3j31mMjOZSS8Qns9as2Zy9tnn7JmQIZnn7N9+ntDQUIoVy/qVjoVJaGgoPXr0oEePHiQnJ3Py5EmSk5MpW7YsYWFhBT28fGBZDhxrC3oUucGC2x3Zeg+2UiDIYVnOFcD4+KSgr3NrJoIIABY4zB+9BVG6IldZOELAuj17vR3J4LQsHHNxOD+vkXB2Xnu+SsmtsfmGPy61atXi9Om0H/R5/r8aHR2dW8O4IFhYmxw4Aq7NdDFxwk2OdNZ088e+ECAFCLJgXZBljbWSnDP6MeFc3owyZ4omhC2NKxaX/dqDKY5PgLY5GUOF+tVpO/OZnBwiW2Y/MYbDv+2mx9b/EhyWv39GffdkJIdW76L1xK5UaXx9vp570+RfWT7wO27v2YQ7+7XK13MDjL62H1fVrky72c/n+7k/D3+H+NPn6brhHUJL5u/v2j90+Zx9S/7m/jEdqX7fTfl67uMbD/B1m09ydAwLx3YH1u+5NKR8Zzmsi/73IMmUSZjg503gfZ+2N4Aouz0mQP85wEukhkj56b9AIuZ3ds9/r2uBCKAPMCqfx+TyArATWAwE+n2mMub3H39XknyImU21F7ho30dERC4ECn8kV5UokTfrY5cuXTpPjnsxCwkJoXz5DJYVKHQcKX0Tx9Uv6FHk1EB6FC8Wap3NdAeLBByEgrUFR9DYlISkGW/w+fE8HKJcysx0tC2F4WdtSJGedR0Oa7WZwZMpcQ6sopblWGE5nGODExNmvcaU83k6SB/33nsvX36ZtkKP5zo/x44dy88h5bl+iVFPF/QYcsuQIt1P4ch0+JMIBDtw7Lcg0hHsnNo/LupAXo4vN/ThkwTiyPY4h4Z2i7WyO+/VFhwaQqlKZXJ0jOyeF6BkxTKEFM3fP6NcYVOxsiXz/bkXLW3+SYeWLFogrztAUJHgAjm3I8j8Wy1V4fJslazLieCiZm3PYlfm//f8/JHM/5oaSL/EsX1zYSgieeluzMy47cBgP+3RQAegLGY2jT9O4KM8GV3GzmBCq0AK8u/F/cBrGezzNjAN/+FPDDAgtwclInIpUvgjIpLPihXlDpykkP4H0imAE4toHI7Pg3FMfDUxUlcgimRFUEpDy3IkkP5MjCQg2IJ9QViRIcEhUwpyDa0qVarQvXv3NNsbNGjAuHHjAPjzzz/ze1iSCYPDutZ0WNblGQQbFpAMxDstpgATX08aqytaRURE8t/99v0uAq/4lAz0J3/X8sktcRnvUmAqAx0x4Y+IiOQhhT8iIvnMYTmf8PfhoAPLsixHAg6HA6xZOKwJcYmVFw1kYKEohyRGbGwsmzZton79i35izQXPYTkigGK+f807IMXCSrEIisdyTrHg89eTonK+kEguCAoK4vLLL0+zvW3btjz33HPExsayceNGdu/eTfXq1QtghBJIsOVobxEUD5a/GrVxQBEImm+REhWfGP3jQL5KzO8xioiIiJtrEcUGQHlS18zxtQbI/oJnBedC/T0jFJiCWQtIRETymMIfkXy2b98+xo4dy4EDB5g4caJXW1JSErNnz2bChAm888471KtXr2AGKXlmJE9fnmg5OmJ+6XVJcGCFYgWtBiLjEkO+GchngepKXzS++uqrbPUrVqwYrVu3zuXRFLy///6bMWPGMGnSJCpVqsSmTZsKekiF2tAiPeo4sW5z4JW0xgMhFszH4RhXJoEfexKV1QVoC0SZMmXo1KkTo0ePBmDChAm8++67me6/evVqdu7cyVNPPZVXQ7ykRdKjyGnL6uNweAQ/FgkOhxVq4diIRWSRJOfMlxl3qgCHKSIiIqm22/elgUXAw5hZQP7MT+c4pTHl434E/M0evwuoAHxjf30F0MTe9ivwl8/+NYBmmM/rFqQzJoBrgEfIfum5Epjwqxpm3aIDmHV6Ai0wWQTzOu3FrC1UFnjU7jfPZ9+b7GNHeWwrCUwF7rG/LgW46lrGYGbku1QC2gFjCBxklQJa2ONPxAR16a0RfBOmhF8IsAHYiHmtfccuIlJoKPwRySfLli1j+PDhzJs3j5SUFK9gJzo6mg8//JCoqCgOHzYlb197LaMSuXIxSioS8h4m+EkCghxYhxwQGRScMvmVuKj9BTy8XFWtWjV27drF22+/zY4dOwCoUaMGNWrUSLNvXFwce/fu5cCBA5QpU4ZTpwrX56OTJ09mzpw5zJkzh6SkJCpVqlTQQyrULHAMdVj/c5gvXB/Ab8BijDMp5IvXGX26oMaWkpICQHJycpb7vvfee8yaNYsjR47w4Ycf0r59e2rXrp1hvwMHDvDWW28xd+7cLJ9TMic6NOWlIBxXgSPFAgvLcQqHc1yywzH5jYRx2zM+goiIiOSzL4D3gMsxocDvmBJv4zFr+Xjyt4ZVXeAZ4AlMiNKQ1PDnMuDfdnttYA4m/OkEjMAEQGDKzb0PvIX5G3Eo8DwQZLcnY8qjzfA4bzDwANDTvg8me+FPeyASWAfMBa4FhmOe+4t2m8s1QHegK3C13Z4E/AyUs/fpAUzGBDbPAI2AnaSGP1djQrRqHsedYT9HgMcxIdy9dv/WmM8sJ+A//HkBeBlYjrnAqx3me7kYeBLvmVzB9jjqAhPtrz8E7sAEWsEELv0nInJRU/gjkk8qVKjAsGHD2LhxI3v27PFqCw0N5fHHHyc4OJiBAwcWyPgk731QrEdVZ4rVy4F13mE5plk4P++bNP63gh5XXqlXrx716tUjLi6Ozp07AxARERHw37hlWYwYMYLXX389H0eZPzp27EjHjh159NFHmTVrVkEPp9AbFtbtASzuBOuI5bCiHI6Qyf0SIncU9LgAzp41i2ifPHkSp9NJUFBQBj1SXXHFFcybN4+mTZsSHR1Ny5Yt+e6779KdJbp582a6du3KpEmTKFpU1TXywjAiSjgJGgAkWDi+toKc4xPiKy1TyU4REZEL2glMmPEF5rOxK4CxmBCjD7Aqnb7XAm2B/8MEP746ARUxoZJLP+BW4ClM0PMfIBx4E/gBeA04jwkxSgKvA7UwM18WACft4zS3+91C+mvIpucezAycHcB9mPVmwcxCGgd8ap9ztz3WXkB1TIADJtyKBL7HhFyhmJk6jwI32GPzdQS4DbPej+uix9bAMo99mmBmC9Um/c8r38e8Tg09jvUfTBDUDBMy3Qkk2G0vA62A64Cz9rZhmO93t3TOIyJy0VP4I5KBQYMG8eKLL1K6dOkcHee6664DzKLdvuFPsWLFuOmmm0hKSlL4U4jFx1U8VKzooRZx8WdWXkprPWR2lovD4eCVV15h/PjxxMXFUayYv2UzLm7ly5cv6CFcEookJP+aEFLk7n7JUascF9BVfOvWrePoUXMRYlJSEitXrqRRo0ZZOsbtt9/OggULiIiIYPv27dx111088sgjPPPMM9x6661ceeWVJCYmsm3bNqZNm8b8+fOZMmUKN9xwQ148JQFeZUrs0KAerePiWTOQsbEFPR4RERHJtG+BBzGBR1V7W11gJTATE8Ds9dNvJ2a2TgvM7Bdfn9j3zYD6mCAiChjisc8aYB8mOJmBmcnzk0/7dkzQ0gITUoEJZRZgfscdlKlnmVZXzIyXXaQGPwBfYV6LEMysmN2YWTf9gTDMbCEwYVBLTNm0DzAhzEzMGodgZvd0zMa4ltq3c5hZSP40scfTnNTgB+AQ5vWNxIRMnTDhDkAbTNh31mN/C3gJM+NIRKTQUvgjko6zZ88ycuRI+vTpk2vHTO/K68L4YbekGsjAZOL5paDHkd+y+u+6bdu2nD9/vlD+PJQo4e/CQMltLzHxDMn82r+gB2L75ptvWLRoEStWrPAqe9izZ0+aNGnCXXfdRURERKaPV79+fdavX8/HH3/MtGnT+Oqrr9xrbJUoUYLY2FiqVKlC165dWb58OaVKlcr15ySpHGARP/aSe28XEREpJBZgZui8iym5FoxZM7IDZnbPG8DHpC0FB4HXxvFtX42ZJePpKLAVMxtoAd7BD5hZOSeBK0kNprJy7vTstO83+jnmecxsJt+rXxPsWxjwpUffHfYtt8aWUf+XMSHOMj9t6z0etyY1/KmECaTaY8buEgPMzvYoRUQuAgp/RNLxn//8h+jonP7e4q148eIB2wrjh90iWfX+++8X9BDyTFhYWEEPQQpAu3btaNeuXa4es2jRovTt25e+ffty6NAh9u7dy7FjxyhevLh7bS2Hw5Gr5xQREREppGIws0CmYsqs1bW3FwNGYmbu/JvU9Wk8+2V03PS4SrkFqgMcjQl//F1BltGx0zMIM9vIM7Qph5mtU8T+OtRPvzhM+LM7g+PnZGzp9Q/BzKYKxcyK8meXfe/5mm7AhD8zMGXuBgIH7LbszFASEbloKPwRCWDChAl8/PHHuX7c9NZ3yMraDyKFzaFDh0hKSuKaa64J2L5w4UI6djS/nyclJbFw4UIOHTrE7bffTp06ddI9vmVZ/P7772zdupWgoCCuv/566tWrl+HP3V9//cXmzZtJTEykWrVqNGrUiJCQjP/7PHfuHIsWLeLw4cNUrVqVBg0aZOrD+JSUFFavXs3WrVtJSkqidu3a3HXXXQHH+euvv5KcnEzjxo1JTExkzpw5BAcH06ZNG72nXCIqVqxIxYoVC3oYIiIiIhe7PzDlzrph1pW50t7+OPAn3mXbwJRES09CBu0ZrQ/oavf3R0ROyohbwDb7cV3MekO3YmbKxOE/+AFIyuTxc1riPFD/Spj1kHZh1l3KrDcxAd5VmJJ3/wYmAu+RGgKJiBRKCn/yiGVZTJw4kRkzZnD48GGOHj3KlVdeyT333MMrr7xCzZo1M3WcyZMns3LlSq9t5cuX55133mHdunVERkam6VOuXDnee+89AM6cOUO/fv3cbQ6HgzFjxnjtv3//fj799FPmz5/PoUOHKFWqFA0aNKBXr140bNgwzfGTkpKYPXs2Y8aMoXr16kRFRREbG8sHH3zAd999x7Fjx2jcuDFDhw51f4i7c+dOBg0axOLFi7Esi4cffphhw4ZRsmTJNMc/dOgQH3zwAWvWrOHUqVOcP3+e6tWr8/jjj/Pss8+m+dB17969jBs3jqlTp/Ldd99x6623smDBAgYPHsymTZuoWrUqgwYNonXr1pl6zWNiYnjnnXcYPnw4lmWWinjppZfcV+wPHjyYK664wv28hg4dyrp16zh58iSJiYlcd911RERE0Llz51y76jomJoa+ffuSkpJajjc0NJQHHniAVq1aAZCQkMDgwYOZP38+MTExlCpVittuu43Q0FBuueUWunbtmitjEckr8+fP58orr/QKf5xOJz///DORkZF8//33hIWF0bFjR3799VciIiLYtWuXe9++ffsyZIjv32PGkiVL6N27N2XKlCE8PJytW7fy888/c+ONN/Lll19Su3btNH1+++03nn32WcLCwmjYsCEHDhzgm2++oXTp0gwdOpROnTr5PZdlWYwYMYKBAwfSokULwsPDmTt3Lk8++SS1atVK9zVYtGgRvXv3plq1alSsWJEFCxZw8OBBbr75ZmbMmMHNN98MQHR0NFOnTiUyMpKNGzfSvXt3atWqRYsWLVi/3lQ7ePXVVxk2bFj6L7qIiIiIyKWpHKZ8mG9A48SEIF8DkzFrAgG8gpkFVFjWbq0CfAbUBl4FnsSs//NGQQ4qA5fZ9+Uxn2f6zsQKZBMm1BuJKeUXhllj6SngRWB87g5TROTCoUuC84BlWXTr1o0uXbrQtm1bNmzYwN69e2nWrBljxoyhfv36HDx4MFPHat++PTVq1GDs2LGMHTuWDRs28PLLLwNQp04d+vbtyx9//OFur1OnDgMHDnT3v/zyyxk2bBg//fQTK1asoG/fvl7Hnzt3LjfffDPJycnuK9RHjBjBwoULady4Ma+//rrX/sOHD6dGjRq0b9+exYsXc/78efbu3UudOnX4+WezzuHRo0f58ssvuffee4mNjWX+/PnUrVuXTZs2ERoayqFDhxgzZgxPPvlkmue7e/duwsPDmTdvHjNmzGDHjh0sWLCAw4cP88ILL9CjRw/3vnv37qVt27bUqFGD//73v+zdu5fk5GTeeOMN2rVrx7Fjx4iJiWHdunU88sgj/P7775l6zY8ePUrNmjV5/vnn3dtuu+02wsPDCQ8PJzTUXASzfv166tSpw9q1a5kzZw67du3i66+/ZsuWLXTt2pU333wzU+fLjJIlSxIREcHYsWP5+eefue+++xg+fLg7+LEsi3bt2rFmzRp++OEHNm3axOzZszl16hQff/wx8fHxuTYWkbyQmJiYJpgGmDdvHkuWLHHPbgH44Ycf6NatGz179mTixIncc889AAwbNszvz/lXX33FfffdR/fu3VmxYgWjRo1iwYIFtG7dmr///puWLVty5MgRrz7ff/89TZo04d5772XlypUMGTKEadOmsXz5cuLj43n66ad55513/D6XV199lddee40xY8Ywa9Ys3nrrLX744QfeeustVq9eHfA1+P7773n00UeJjIxk/vz5TJgwgW3bttG0aVM2bdpE06ZN2b/frGk6cuRINmzYwMaNptS20+mkU6dO3Hbbbe5Q3TMYExERERERL48BTdNpPwW0wwQHYMKi6/J6UPnkdsz6ONcC4ZigKyXdHheGWPu+BKml+QLxvRJ3D/AIpmzcWntbSWAc5t+CiIjklSGh3QYMCe1u7VqwycqOMde/bn1a+ZVs9d2/fLs1JLS7teT1r7PV359Zs2ZZgFWuXDmv7efPn7dKly5tAdbgwYOzdMxmzZpZgHXnnXemaVu+fLmFmbZrLVu2LE17SkqKVaZMGWvJkiVe29etW2cVKVLEat++fZo+q1evtoKDgy3AGjp0qHv72bNnrTNnzlhly5a1AKtBgwZWx44drW3btrn3+eSTT9zj6dWrl/XQQw9ZO3fudLcPGjTI3b5+/Xqv87Zo0cICrAEDBnhtj4yMtAArKCjIio6OtizLshISEqy4uDhrxIgR7uO1adPGevPNN62zZ89almVZ+/bts6666ioLsJ544olAL69fP/74o/u4p06dStN+8803W4A1evRor+2u51eqVCkrJSUlTb/nn3/eAqx69eqladu/f7/7nIsWLXJvj4uLs+6//36rYcOG1okTJ9L0W7p0qQVYy5cv99oeHx9v1a5d2/r0008z/bwvVJMavGcNCe2e2WnmkgsGMjBkSGh3a3rzoRl/g9Lh+R4VHh5u9ejRw33r2rWr9fDDD1sVK1a0AGv27Nl+j9G/f38LsIKDg61u3bpZsbGx7raYmBirZMmSFmD179/fq9/27dut4sWLWy1btkxzzHHjxrnHNWbMGPf2o0ePWmXLlrUqV65sJSQkpOnneo9zOBzWzz//7NXmev9/+umn0/RzOp3WDTfcYAHWTTfd5NV24sQJq0yZMta7776bpt8ff/zhHmf37t292q699loLsMqWLWvNmDHDsizLOnDggPXJJ59Yhw4dSnOszBhW4hlraGj33wrkH91FbEho900flX3ema0XvYB9VPZ555DQ7psyfpYiOTc0tNu0IaHdrZPbDlvJ8UlZuiXGJFhDQrtb05rl7P+l7JrWbKg1JLS7lRSXlO/nnn7vMCsnfy/lxLr/LU7376VTp05ZPXr0sJ599ln37+mehgwZYrVv3z7N7/2WZVk//fST9eijj1pTp04NeP4hYd2tSQ3ey/4TyIGPK7xkDQntbiVEx+X7ub98+GNrSGh3a/t3f+b7uQ+v3WMNCe1ufVCke+7XwBa5cDwLfJDJ/Vy/j9/q03atR9vdfvrOsNu+C3Dsn+32qADtO+z2QX7aIjzO7U8rj/ayHtuDMOvlWMATfvqdsNv6+Gk7Zre9EOCcLgPt/f7x01bZY1yNA/R/1GMfz3IxYZiydBYwPZ3zhwCeZXKa+bQ7MN9X17H+SudYIiIXNZV9ywM7d+4EoHjx4l7bixcvzrXXXsu6des4cCBrZUV79+7N4sWL+f333zl48CCVKlVytzVs2JBatWqxZcsWpk+fTqNGjbz6/vLLL1x99dU0adLEa3u3bt1ISkqid+/eac53xx13EBERwcSJE3n77bfp0KEDlStXplSpUgDUqFGDEydOYFkWUVFRFClSxN23V69eDBw4kJMnT7J7926+//57r1JtL7/8MoMGDcLpdLJ27VpuueWWNK9diRLe6xm6SjI5nU4OHDhArVq13DNw6tZNveCjZcuW9OrVy/11lSpV+Ne//sVnn33G2rVryU2uq+oDjcwBqQoAACAASURBVPXcuXOcOXPGXSIuu2JiYnjkkUcICwtjwYIFFCtWLM0+69atA2Djxo1epfrCwsJ47rnnSEpSZiIXhgoVKhAeHu617cSJE8TFxXHo0KGA/cqUKQOYcoeRkZFea9mUKFGC+vXrs3jxYvbs2ePV74MPPiA2Nta9TpCnNm3aMHXqVI4fP+71czN8+HBOnDhBjx493O8znnr06OF+j3vrrbdo0aIFYNbqeeWVVwD8lll0OBw0b96cbdu2pWmLiori9OnTtG3bNk3bzTffTJEiRUhKSmLOnDmMHTvW3Va6dGn3Pk88Yf52q1SpEs8991ya44iIXEiiav+noIcgueTDDz90/99UqVIl3ngjtWLQqlWr3CWoDxw4kKacdYcOHTh16hTfffcdLVu2pGzZsoiI5KNOwADSX5vHVUbjPCY0udhdS+oMpqPp7BeWR+f3DKuy+plkArAEuB/oAMzHlObz9QKw3+Pr/wKNSC0TZ2FK3hUBPgIyty6DiMhFSOFPHnjqqafYuHGjuySXi2VZ7qAgNjbWX9eAWrduTbly5Th+/DhTp071WscHTODgCn+GDx/uFUh8/vnnaT6IXLVqFevWrcPhcHDnnXf6PWfnzp2ZOHEiCQkJjB8/ngEDBrjbXGWFqlWr5hX8AAQHB1O1alVOnjxJzZo106zRU7JkScqUKcPJkyc5c+aMV9uQIUP44YcfiIiI8NruGaTFxcV5tXk+1/r166d5HtWrVwfg9OnTfp9ndo0aNYrffvuNNm3aeG1Pb6xZdfz4cVq1asWNN97IhAkT0rzWLkWLFgXgtddeo1SpUjz11FPu9YYee+wxdu/enaNxiOSW8PBwr/KNLq5yjYG4fq6CgoK8gh8X14dFMTEx7m1Op5M5c+YAcNNNN6XpU65cOZYsWeK1LSUlhalTpwIm5PYnNDSUVq1aMWXKFNasWcOBAweoXLkyixYtYteuXTgcDq9Q2pMrxPL1008/AdCxY0e/z69q1aruNcgSExPdoZTrdbnuusJSgUJECjuLoC0Oy1qSvb4OBw6rScZ7Sn7yvCjN8zGY/2tdFzD4tgFUrFiRU6dOUaZMmTQXzomI5IOrgU8w67/4m0HjILUk2DjMTBFPl3k8TrugcWq7vzZIDVhKBGh3fQBwmZ82z22lgHM+7aV8Hp+wH3vu9wjwi/04CLP+TWmPMQUBzTEzlABcV8Zl9IbtOkYpP20xHo+r2fclMbNz5thf+76unn2GAS0x35sJwG3Ax5iybuWBXkA34BaPPmUxM6U+9xnLIvt+RzrPRUTkoqbwJw9cffXVTJw40f314cOHmThxItOnT3ev9eP6EC+zQkNDeeqpp/joo4+YPHmyV/hz8OBBfvnlF8LCwjh79ixffPEFXbp0Acyi4HPnzmXEiBFex/vuOzPr+LLLLvN7ZTuY2T+uP9aWL1/u1ZbRH2f+Zqd4coUViYneayU+9thjPPaY+d3KsiyWLVtGVFQUq1atcu/jdDqzNBbXbCXfc+VUt27d6Natm3tMP/30E1FRUfzxxx8Bx5oVe/bsoVevXpQsWZLJkye7wxx/2rRpw2uvvUZMTAwRERF8+umnvP3227Rq1YoyZcoE/MBZ5ELywAMPBGwLC0v/wjNXMOr53nrkyBFOnDB/4/iG0IEcPHiQw4cPA+b9MZDbb7+dKVOmALB582YqV67sDpJKlizpfo/LLNdsoAULFmTpqudAgbCIyIWqX+LY/2KuwM2ygQwMKRZ6UNOZLzDPPPMMFSpUICQkhNatW3u11axZk9WrV7Nhwwb37/iefv75Z+bOnUvTpk0V/ohIQemOCSH6A+s8tl8GvI+ZZbIK8Leoby2Px9cBP3l8HUzqDJvq9tcpPu1VPNodeAdQJYArPY6d3rmvB/7wab/B57HritAjwJ+YdX+ewwQ1u4CHgLl2e2WgC6aU3Wi735WkhjktgKEEXifINbZyQBnA80rcaGAvcA3wrv3c7gE6+unvem6eC7QuxpTrex3zGr5k35IwYZkTeBizZpOnTzAB0S8e21pgXvNs/V4iInIxSHt5seSaPXv20KNHD+6+25R+XbJkid+ZKZnVuXNnALZs2eK1qPmoUaPo0qULjzzyCADjxo1zt82cOZPmzZtz1VVXeR3LNRMkvRAqLCyMKlXM7yKuD0Nd/F2Znlssy2LWrFmEh4fz/vvv06FDB+bNmxdw/7wcS0ZcswRq167N2LFjef75590fCOfU9OnT2b59O+vWrWPyZH8zmVNVqFCBBQsWUKFCBQDWrFlD69atueOOO1izZk2ujEckr7Vr14677ror14539uxZ9+O9e/dmqo9nSU7PWUS+PN9TXcHy/v2mskBKStbXSo2OjgZIt/SdiIjIhcjhcNC2bds0wY9LnTp1ePrpp9OUSgZz0Vy3bt249tpr83qYIiL+TARew4QYyzEhyGLgN+AAJgAZiZn94lm+5QrMLJJRHtvex6xDUwUTZCzFO/xZBrjqYr4FrCR15ssdmNk1rhr2Q4HVpM4YehBT4uxeIBz4AvAspzCL1DVuqgDTMGGWy2T7VtH+OgJTws5hjzUCUyptIPC9vc9lmJk132JKo60h9TPEZpjXqyfe7scESPfZXzvs5+m7ZtGzmBCoIvBv4G3M7JubMeskea4pNBMYj/fF62/Yx/AMlYpgQqJ/AT/4nC8BM/Npkd32HuZ79RKmfNzXiIgUUpr5k0fGjx9Pnz59eOKJJ9i4caPfP3ay6pZbbqFu3bqsXbuWSZMmUa9ePc6ePcvEiRP566+/2Lp1KzNnzmT16tVs3LiR2rVr8/nnn/Of/6Stqe4qOxcTE0NcXFzAmTqu9SRyum5NZp06dYpOnTqxbNkypk+fzoMPPgjAjh0X3izcgwcP8uSTT7Jt2za++uor91pLvrOksqt///4EBwezYMECevXqRe3atalTp07A/Rs0aMC2bdsYPHgwH330EXFxcfz+++80bNiQKVOmuNcDEblQ5fYMNVd5SoCtW7emKcXpKT4+nqJFi3pddZxeuUTPGZOukNwVpsfGxnL27Nl0Zw75KlasGOfPn2fZsmVe66CJXCI6Ycqu+LOTzP9BfhfQFfMBSyymJvxY4Gw6fUREROTStAQTopwEhgNFgTsx4UkR4BAmuPAtpwZmVknndI7tClsCec++BdLXvgXyeDpt+4Gn0mkH2AzchJkRFGR/7Spb8hwwBjNLxvU71Iv2LSPz7VtG5gGVMOHPblLX4tmECWMyYzQmgGuAKfd2FPP98lfypSVwEDMT6TZMePcD5vfGnNXqFxG5wGnmTx6YPn063bp1o379+kRFReVK8OPimv0zc+ZMEhISiIyMpHXr1lSsWJGmTZu616gYN24cW7Zs4eDBg7Rs2TLNcVwfVjqdTjZv3hzwfK4r32+44YaA++SWlJQU2rZty9y5cxk3bpw7+LkQxcbG8sADD7Bs2TK+/PJLd/CTm4KCgpg+fTrVqlUjLi6ORx99lJMnT6bbp1SpUrz//vts27aNf//73wAkJyfTvXt3jh07lutjFMkra9asyfEsugoVKrjLPk6fPj3gTMf4+HheeuklAG688UZ3yTbPcpO+jh41a6NeccUV1KplqhJ4rmWwevXqdMfmW4bSdcVzZGQkycnJ/roA8OKLL+aonKTIBWoypsZ7R0wZjw8wtdmnk3r1aUZeA1ZgrtBtirlCdhiwHv+lUkREROTStgUT/LjEYwKhKZgZL/PxH/wUFsmY0GcjqcEP9uMN5P3FM+cxs30C//GTsXhMGbeZ9n2gWv8H7fvjmBlWX2BK+Sn4EZFCT+FPHnjnnXcAeOihhwKu05KUlL1y5R06dKBo0aKcPHmSb7/9lo8//phXX30VMGGBa62fqVOn8tlnn/H0008THByc5jgtWrRwP/7xxx8Dns9V7i29hdhzyy+//OKeNfPwww8H3C+9D0bzy7fffsvGjRu5/PLLady4ccD9cjrWK6+8kq+//pqiRYuyd+9ennjiCb/HHDFiBBs2bHB/XaVKFaZMmcKYMWMAE+ItXbo0R2MRyS7PsCIz650lJyfTp08fmjVrlqPzBgcH07x5c4B0yye+99571KtXDzDrkbVp0waA9evX8/fff/vt41q/7bHHHnPPAmratKm7PTIy0m8/l7g4778z7rvPVEbYtGkTffv6v8hv1apVHDlypEBLXYrkEQvYivlDHMyHAG9irlxNyET/u4EBmFIltwG32o+TMOVUZqHZ7iIiIiIiInKJ0SdIecC1ZoPn2hFgPtA8fdqUJI2PjwfSXv2dkTJlyrjX9nnuuee49dZb3VedAzz99NOEhIRw+vRpxowZ454p5Ouhhx6ievXqgJkl5G8cu3fvJiYmhv/7v//j3nvvTfNcIPDaFq4PewO1uz4A9mx3fZjq+xhwL9oOaV87zw+W/Z3P37kyw3Mh9XPnzrnPdfr0aff4zp0757WuSEZjhfRfO8/n4nocHh7O//73PwAWLlzonqHga+bMmWm29ezZk9q1awd6iiL54tSp1LU2XT9L6Xn11VcpVqyY10wa189SfHy8358dV6Du+/P46quvusOSXr168fnnn7t/Bs+dO0ffvn3TlEUcMGAAYWFhWJblDvM9WZbFjz/+SOnSpb3Kat53333u9+Nvv/2WSZMmpennKiV37tw5r+fRs2dPd5m6kSNH8sQTT7Bt2zYAEhISmDlzJo888ggvvPCC1zFd7y2uUp4iFznXm8V5Al+56U9voA3wDmamzwZMbfludvtNmNr0IiIiIiIiIpcMhT954PrrrwdMqLJixQqcTicrV66kadOm7Nu3D4Dt27ezZcsWevfuneXjuwKdU6dOuWf9uFSqVIn7778fgHvuucddBs5XkSJFGDt2LCEhIezfv58BAwak2WfkyJGEhIQwbtw4QkK8L5g9cuQIkFr6yNf58+fdY/TH9UGl6zjgXVquT58+nD17ljNnzjBq1Ci6devmbvvrr7+YOHEi33zzDeAdtng+9j1XbGwsZ86c8Tsef8qXL+9+/MUXX3D+/HkGDBjAjh073GNNSUmhd+/exMXFceLECd599136909dV/GPP/5gxIgRLFmyxL3N9Zw9n7uLZ+jl+dp26dKFTp06AfDpp5/y6aefpuk7cuRI1q9fn2Z7SEgIJUuW5J577snkMxfJXZ6lJVevXs2uXbs4ffq01+3o0aMsX76cxx57jFGjRvH4495lrF1BSEpKivt91JNr265du7xClbvvvps33jDrqsbFxdGlSxfKlStHzZo1KVOmDB9//DGTJk3yWuvn//7v/xg9ejQOh4MZM2YwcuRIr3MNHjyYv//+m/Hjx1OxYkX39qCgICZPnuwOcbp06ULv3r1ZuXIlS5YsoW3btqxYsQKA6OhoOnfuTL9+/QDz3j127Fj3TM0vvviCG2+8kZIlS1KiRAk6dOhA586dadCggft8TqfT/Z6xevVqBUBSGLiugMja1RpmQeZFfrZPBv6xH2s1eREREREREbmkKPzJA2+//TYOh4OYmBgaNWpEyZIl6dmzJ//73/9o27YtABs3bqRFixa88sorWT5+8+bNqVq1KvXq1fP7gb4rKHGVgAukRYsW7g89P/jgA7p3786aNWv4448/eO6555g4cSJz5szh7rvvdveJjo7mhx9+YMuWLQD8+eefLFq0yB3yREdHM2vWLLZu3QrA0qVLWb16tXvtoJMnTzJu3Dh3CDNv3jx+++034uPjufPOO92lj+bNm0fZsmW56qqr2L17N8uXLycsLAyAl19+mcWLF/PYY49x5MgRd2kzgMmTJ/PPP/+QmJhIXFwcu3bt8poRM3r0aPfMrIzUqlWLm2++GYC+fftSqlQpYmNjqV+/Pq1bt6ZOnTqAKbF3+eWXU6lSJZxOJz/99JO73F9ERASHDx/mvvvuIy4ujlWrVrlL2x05coTJkydz9OhRkpKSOHToEBMmTHCf/4svvmD79u0kJibidDrdrw2YcKxv377s27fPPYshPj6e5s2bM378eE6dOkVsbCzvv/8+W7ZsISoqinLlymXqeYvkltdff5127dp5hcurVq3i2muv5YorrvC6XX311TRu3Jivv/6akJAQ/vWvfwEmQO3WrRvjxo1zH6NVq1Y899xznD9/nsjISB555BH3GjsHDx6kefPmREVFufd/9913GTlypHv9tTNnzrBz506uvfZaFi5c6Pd9tHPnzsyaNYsqVarw8ssvc8sttxAREUGdOnWYPXs2Cxcu9FsOMzw8nEWLFnHjjTfidDr57LPPaNiwIW3atKFNmzZEREQAJmCqX78+b775prtvhw4dmD17tntNNjBBenBwMG+//Tbvv/++e/uoUaNo1KgRe/bsAWDnzp00aNDAax+RS0h6CyK70ufj2TjuFYDnD3p14AnMwsLpCcaUonsKs/bQ5ense7nHOYoCjwJ1PNodQHPgGvvrUKAx8Bhwtc+xytvbWwNhGYxRRERERERECjnVP88Dbdq0YeHChUycOJFTp07RqFEj+vTpQ7Fixejfvz+nT5+mfPny9O3b16usUWYFBQXRu3dvrrvO//rFDz74II0aNeLRRx/N8FhPPvkkd955J6NHj+bXX3+lY8eOVK1alcaNG7Nz5840gcEvv/zCtm3bGDhwoHvb2rVrOXToEBEREUybNo1z587x3nvvuduXLl3KwYMHadeunfsD2Q8++MDrmEFBQdStW5c5c+YwcuRIfv31Vy6//HKefvpp97ofkZGRzJ49m1atWtGtWzfOnj3LpEmTqF27ttfxvvnmG9q2bcvx48dZuXIl7dq18/qQ9ssvv+TFF1/M8LUJCgpi4cKFDB8+nOPHj/PQQw+5X9OQkBCWLFnC8OHDWbt2LVdffTU9evTgjjvuAOCjjz5i6dKltG/f3j2DYd26daxYscJrttbhw4f5+uuvadWqFV9++SU1a9b0ei6zZs3iwQcfpFq1auzfv9+rDWDGjBk8+eSTXH/99YwZM4ajR4/y7bffMnLkSIoVK0Z4eDhbtmwJOANMJC8NHjw4x8cIDw8nKirKK8zx1LNnT3r27JnhcV588UW6dOnC0qVLOX78ODVr1uTuu+/2uyaaS5s2bXjooYdYs2YN//zzD8WLF6dfv37uUDiQ+vXrs3nzZlauXMk///xD2bJlueeeeyhVqhS///47LVq0oEmTJn7XhGvdujX3338/K1euZPfu3ZQqVYrGjRuneS9+4YUX0pSAExG/SmLW/lmShT4NgGeA9pjQ6DtgCPACJtgBGAv4e/N5ABgGLAT22vvUB4Zj1iVyzWq6w257HLOg8hJgMXALZgbU/Zj1i3oANYG2wFWY2Uw32sc4DzyEWeD4VeC/mHAITOjVmNRSeiIiIiIiInKJUfiTR5o1a+Z3sfJrrrnG79osWRVoQXAwwcSyZcsyfawaNWowbNiwTO3rmrkUyLPPPptuu6vEUSBhYWFeZdM8derUyV36DKB06dLpHu+GG26gYcOG6Z4vI+XLlw/42pQqVYpBgwb5bevTpw99+vTx2nb33Xd7zaLyldFrk16750wBEfHvsssu46GHHspSn6CgIBo0aOBVbi2z/Ro1akSjRo28tterVy/DviEhITRp0oQmTZpk6ZwikkYYJniZAqStCxvYVZhApihmlvz/gB1Abfs2CRPKRALrPPq1Ab4B7sMEOQAfATOAN+3j9rC3Xw1EA8Xtcw0BPsWETrUws3h2AhXs/e8GigH/AmKAoZhw6mNgNibkqg2UAKIws4deA17PwvMWERERERGRQkRl30RERESkMHoKsIA3stjvO0zAA1AGE/4MB7YCXwLf222NPfpchgmDVpMa/GCf/3kgFuiOmdHjOsd4+3F54FtgHFAXKAtMtbdtsfc5bx9nM2ZG0fP29puBDcBLwHbgT2Cg3aYEWURERERE5BKm8EdERERECpuSmDJrzwNHs9E/1r4/iQlXPP1j31/psa09JsRZ7edYx4G59mPPKdKxHu3z7McWJuhxibHv//I55jHMjCGAFT5t++z7K/yMRURERERERC4RKvsmIiIiIoXNKEwJtsl+2upgZtj4OgV8bT+OS+fYrtDG8/fo++z7MwH6/IoJiO702JZg3zvTOVd640gIsD3Jz/hERERERETkEqM/CkVERESkMHkFKAf0DNDeGvC3aN8GUsMfK4vnrGzfB5ptc9C+L57F42Z1HJeE80ei2TDBd8JT/pwXYNPklQSFBOfvuQ+bc+/+aTPn9p/O13MfXL0TgGMbD7B+/PJ8PTcAFsSdiCmQ73lKvMlSN01bRUhYkXw9d8wB833es2gLscfP5eu5z+47ma/nExEREZG8ofBHRERERC42RYHqmHV4PD0EtAQeBpID9F2E/1kzx3MwHtdsoEoB2l1j2Z+Dc4jt9D/HmN/L36Su/LHg+WkFdu61nywssHPvXrCZ3Qs2F8i5o/eeLNDv+cIXZxTYuf8cs6TAzi0iIiIiFzeFPyIiIiJysekCLPXZdg/QB3gEiPfTp6i9faV9y01rgOZAE6AIqaXXXMrb9wty+byXlAEMTBlmde9agEO4xYHjMnCutHDk66wsy+GoGmRR1RnEZofTytepP1aQdRlObrEcjv0Oy9qTn+c2HHeDdd6BY31+n9mCm4JwlAFrlQUp+Xluh8Oq5LSobgVZWxxOR4FMxQkmaEtBnFdEREREcofCHxERERG5ELhqKhUHggi8Fk5F4N/AZx7b7gUGAg8CMT77BwNvAcuAXzI5Fod9H5TOPp51vz4HXsOEPA8Ac3z2vQEz+ycqi+cISmefQP0zc9yLkgMsksZNKOhxSL77vKAHICIiIiJyMSp0fxSKiIiIyEXJVTKtKFDXT3txTLizDPBceKQVJmwpBnwF/OxxWw7sxf9MofSUs+/LkhqmuJSy76/22PYPqesIDQXKeLRVwoRVw4CNHtsvs+/LACUDjMN1jnI+2x1ACY/+nlzHKo+IiIiIiIhcsjTzR0REREQKUgugHvCsx7Y1mNJprlk8waSGJQCz7ftmwCwgFLg9nXMMJvBMIl8PAC/Yj8OATzGh0jbgfkyQBGZ9oT7ADMx6Qf/FhDL/AdZiZvkUAzoAo4D3Pc7xsN0XzIyn2cBY4Et7Ww0gArjF/vo5TMmpmUC4fcxidttQYIo9jvZAb3t7cXvsE4B1mXzuIiIiIiIiUkgo/BERERGRgrQV2AV8kYU+e+z7dcD/ZWL/o1k49ka8gyiAWOAsZvbQHT5t5zwevweMwwRaVwE77f1P+fT5E+jhs81znaATmEBnis8+CcAOzCyiYR7bXWuR/A509ukTjYiIiIiIiFxyFP6IiIiI5JjDsqx8Xf8915hx5+/i9T4O5qDvGfuWmw6k07YrE/2PAtMy2Gd/Bu1n7Zs/h9PptzuD44qIiIiIiMglQmv+iIiIiOSUw3kqMSbR4UxKyXjfC0hKYjKJMYkOh2WdKOixiIiIiIiIiEjuUfgjIiIiklOW4xCWRfS+kwU9kiyJ3nsSLAvLke5sEhERERERERG5yCj8EREREckpi+UAu+ZvKuiRZMmuHzeaBxbLCnYkIiIiIiIiIpKbFP6IiIiI5FSINQdIWT9uqWWlOAt6NJlipThZP2E5QEqRkODvC3o8IiIiIiIiIpJ7FP6IiIiI5FC/uKgDYE09sfWw469xF8ckmj8jl3By62EsmPRy3JiDBT0eEREREREREck9Cn9EREREckFIcMrbDgdnFr/2hXVgxY6CHk669i/bzi99v7IIcpwODQ7+T0GPR0RERERERERyl8IfERERkVzwStzn+y2s9s6kFOeXD460Nk9bXdBD8mvT1FV81fojy5mc4gzCaq9ZPyIiIiIiIiKFj8IfERERkVzSLyHqZyeONskJyTE/dJnAjBbD+GfuepLjkgp0XEmxiez4/i+mNxvKvK6fk5KYcs6Jo81r8eMWFujAREQCqwjUDtBWC7gxH8ciIiIiInLRCSnoAVwotsz8jYNrdhX0MEQkgFPbjhT0EEQKLctpcWLzQfYt246V4izo4Vz0+ieM/WFIWJd6EPzh/uU7Hty/fAfBocFW6WrlHCXKlyKoSP79+uVMSub80XNE7zlupSSmOAAcWN9D0Cv9EyIv7Np0Ihe++sA1PttWAQcC7F8KuD9A2ywgOZ1zFQM62eesAhwEvgNmA1YmxloTeBYTmBwDpgKZCX8dwGPAw0AZYB0wGjiUib7Z4QCaA88AbYCvgQ4++zTFjN0CGgO/5tFYREREREQuagp/bOcOnubcwdMFPQwREZE85xn27Fu6jQPLt1lxp2IdqTtwpgCHVyj0S5iwDWg9uEj3esEO/pWS6Lz39D9Hq5zafqRsfo/FEeQ4YTmtfQ5YaFlBX/VNilyb32MQKaTOAFUxQUVze9toTMjij4UJhroA3YDTwBvAGtIPfsoBvwA3+WzvBMwEngLSS+5fAj4AIoHBmFkzs4DpQK90+pYFvgGuB/oCuzHPbRPQnsyFR1n1FnAb8Gg6+1QitYJF5TwYg4iIiIhIoXDJhz+VG17Hq+fHFPQwRAq9PyOXsOjlmaRYdExMqjQjO8eoxebMXNkqIn6c2X2cvYu2smfxVvYt+duKO3k+NexxcAxY5nCwMsVpreifFLWuX8ENtVB5PWnc78DvgF5SkcJnu32bBSwHGgBPAq8CsX72j8HMDErEhD/dMeFKeooAc4EdmKDoJGb2z9uYmThPAIuAqAD9uwIjgFHAi/a25fZYpgLngZf99AsBvgfqAOGYwAd7/IsxM47uBtZnMP6sete+34YJnfyZCZTHhFYZvX4iIiIiIpesSz78AQgK0dJHInnNEWQ+Zw5yOFIGMjC9q1tFJBdkKexJjFrn8Cgb9HpBDFhE5OKVAoTaj0tjZsVMTGf/mzAzgL7NxLG72vsN8di2EvgZWAuEARH4D3+uAIYBScB7Pm0zgEHAC5jSar6l03oAdwLTSA1+wDzXwcCP9jnvtLflVfxbswAAGTJJREFUtmMEDn+SgQ/z4JwiIiIiIoWKwh8REZFCQGGPiEiBKY8JKn4F7sLM6pmYzv51yPxaPXsxQYuvTfYxHsfMAPLnTbttNXDCp82JmVH0Ama2TXOPtpLAAPvxAj/HXYiZ2VQXaEvezL7xN3NKRERERESyQOGPiIjIRSi9sMfhcBwHlirsERHJF/cDSzDlyO7ClEO7CdgcYP+WmHV4MsNf8OPyj32/1E9bGNDZfrwiQP/f7fumQHXMmj4A7YCr7MfL/fRLBv7EPM8u5E34k5AHxxQRERERuaQo/BEREbkIZC3sGaewR0Qk/zyACWm+waytUxZTrs3fWjrVgGuAZblw3muAM8BwP213kjojaHuA/q71ehxAM2C8/XUr+z4RM/MoUN+7gXswf1PmpKRvVfv8V2LWNvqFjGdFXQk8hnnNj/u0OTCBVgnMukUA5eyxXoUJtDb49LnRbgfzvQz0vEVERERELhoKf0RERC5ACntERC4KwUAL4A3MbJXpQB+gI+bt2HcGywOYWUI5LWt2FWYG0VP4DyrCPR7vD3CMUx6P65Ia/tSx7w9iysP5c9K+Lw7UIm2YkhklMWHZ48AkzEymV4CxQHSAPncDzwD/AopiSu25wp8rgE5AT+AGzHpF3wO9gfeBy+z9nMDb9rbi9hi6YkIjMKHX45iyeiIiIiIiFy2FPyIiIhcAhT0iIhelOzDhwy7763GY8OdKzHo4X/js75ollBPlMDNevkjnWFd5PD4aYB/PgKWKx+Py9v2RdMZw1qdvVsOfUEy4Ug9oDKyzt38EjMYEOL5qAfdiZukU9dP+NGbsN3hs+y9QAXgUEza9C9QG3sO8doMx4VgboDRmraOamO/jIuBcFp+XiIiIiMgFQ+GPiIhIAVDYIyJSKPiGOZuA1Ziya93xDn/CMOXI/JWDy4zrgEfs/uWBhpgZPm2BYz77lvN4HGiWUSzm/xYHJvhwjbFUBv0Azns8vjyjgfvxFtAceIHU4Ad7PH2Bf2PKtnnaAgzElJz71s8xR9j3DwH/h3mtI4DFHvv8hQnqgoCvMOsiea5rtNkeT1lMKPVDlp6ViIiIiMgFROGPiIhIPlDYIyJSKD1A2rfpcZjwpxlmFsk/9vbGmJDmH7LnDkw4s4vU2TkNgIWYGTSeJeYu83gcF+B4YaSWOguy70t7tAfq5+rrEhRwL/+uxgQ8TmCyn/azwFqgSYD+gUrCuZyx73/BO/gBUyJvN3At8B3ewQ/An5iyb6F4z4YSEREREbnoKPwRERHJAwp7REQKvXLA9aQNEL4ARmICmC6Y9YDABEU5mUky1b5/FxOMTASqYcqYdcKslePiOWunWIDjFfd47FrDJzZAuy/PWTkn0tnPn46Y8Gg7qUGNr/QCnpgMjn8+g/ZTmPAnUGgVjfnelszgOCIiIiIiFzSFPyIiIrlAYY+IyCXnAWApEO+z/TwwA7NuTWfMOjJJ9v7ZLfnmaymm3NtvmFkqD+Ad/ngGMmUCHMNfgHMeEwAVT6cfeAdDrr5NgV4B9k8BOtiPXTN6TgbYNyOJGbQnZNDuzGS7I929REREREQucAp/REREskFhj4jIJc93vR9PUZjw52rgQcxaM9UwoU1uWY8JmToBVX3atng8DhTieJZ422vfW8BWzFpCV6Rzbs91flx9qwOPBdg/yeNxZfs+OJ3ji4iIiIhIDin8ERERyQSFPSIi4iEYuBd4K0D7Wsz6MbcD3YG5wBK8y6rlhkWY8Oecz/YVHo+vDtD3Bo/HK336hmNKnwXhf6aMq+8OzDpGYJ5z/wDn8neMigH29aTZNyIiIiIi2VRowh/Lsji7L7uVA0Qkr8Wfzu3POkTylsIeERFJRz1MubOd6ewTBfwPaAlcReqaPbnJ9QvW7z7bt2Fm/9QCbgvQt5Z9fxLvGUmzgBcwpd2uB/5Op+8sj20b7FtG9gO3YGYAVQX2pbNvaCaOJyIiIiIifhSa8Cf2+DnGXKeP20REJHsU9oiISBY8RMYl3KYBwzAhSl3gqTwYRzhmVs0EP20fYdYBahGgb137/kO8y7ItBdYBdey+vuFPZaACJngalY0xL8KUwgOzRlB6/40Wy8bxRURERESEQhL+1Gx9K7HHzhb0MEQKNWdyCtu+XQdYR8CxJPsHsvbk1phEcsIV9hz49R/2Lt5qxRyOVtgjIiKZ4cCsbfNRBvtFA19hyrLtArZn41zXYMKjrX7aqgK9geEB2idiwpXbMUHOOo+28sD9wAH8P4+XgF+AfwOf+rR1su9HAIcy8Rz8jestzJpCLwMLMYGQSwmgiv3Y37pDnmsVlfTTfpl9XyrA+cM8zuNPkQz6i4iIiIhcFApF+NP8w8cLeggihV7iuXi2fbsOC8eG/onjOhT0eESySmGPiIjkkseB6zDhTkbGYcKSH7NxniswoU4xzDo8w+3jOIBmwBhgCoH/m0rChDfLMDN07gXi7eN9DiRgQqw4P32XAe8AA4EupM4sqmufbyHwbjaeE8BpoDPwDaas2zxgJPADJpTqh1lvCEx5vUjgH8wsKkgtOQemLN2vHl+HAjXtxzUwr5Xl017Ro91XGVJDn+uz8JxERERERC44hSL8ERER8aWwR0REctkA4C6guf31Z0AboC+wJ0CflZi1d7IT/kQDS4AHgIb2zYkJbVYD3YCfMzjGFqAxMB7YbI+nsb39Tvs+kEHAKWAo0B5T5q0xMMS+JWb9KbnNAR7GBDtVMIFPP0zI0xl4DaiECZl+BL7HlJobTmrJODCh0X3Ai0A7u28Fu+1mTIj1nd1vMGa201V2e3NMibuZ9jg+wqzP5Jr50x4zi2gIGZf4ExERERG54Cj8ERGRQkFhj4iI5LFB2ezXDVifjX4pQCvMDJWqQFHgBLANOJeF42wBGgA3YgKVN4H9mez7CWaW0M2YWTQRwPksnDs9P2KeWwPgakwJut8wz7s4JgDyLJV3mPTXTRpt3wJ5nfT/y++T8ZBFRERERC4eCn9EROSipLBHREQuEqty2H+Xfcupv+1bVsVgZhrlhWRguZ/tC/LofCIiIiIilwyFPyIiclFQ2CMiIiIiIiIiIpI5Cn9EROSCpLBHREREREREREQkexT+iIjIBcEz7Nn3y9/WuUNn3GEPDk4ASxT2iIiIiIiIiIiIZEzhj4iIFIishT1RCntEREREREREREQySeGPiIjkC4U9IiIiIiIiIiIi+UPhj4iI5AmFPSIiIiIiIiIiIgVD4Y+IiOQKr7BnyTbOHTyd2qiwR0REREREREREJN8o/BERkWzJIOw5jsIeERERERERERGRAqHwR0REMiUTYc8aYIXTshYq7BERESlUGgMRwADgUAGP5XLgacABjMxi3zpAF2A0sNmn7TbgWeBrYEHOhigiIiIiUvAuqPBn6xe/cWTtnoIehoj4kZKYXNBDkAJybMMBPq38CrHHz6VudHAUHEuwrCU4rKX9EqK2evZR2CMiIjnwL6BnDvoPBhbn0ljy0rXA80ANoFgW+/4CvJ/rI/J2GdAReAa4yd42PI/PmZ5wTDjzBFAc+DKT/YrafZ4B7rC3fUPa8CcSqG/vWxqPi1hERERERC5GF1T4s2nKqoIegoiI+EiIjnOHPZbFUofDucQ37BEREclFtYAWwDZgNXCU1A/iXwOCgP3AdI8+VwEPA//f3p0HW3IVdBz/vmyACURCECWyCcgSBCO4gFAQVJAIKYkgoBQC7riiYpQ1IAIqiiKyurAvGhAIpaBCAuKKEDGyr4IsSoxoILKEPP84fev13Ln3vZlJZjKZ+nyqbnXfPn26T/d5f8zcX51zrlG9rCtG+POB6mer46o3Vzebjp9RvXPF+V/eGJ3yQ9VFB6B9x1UfavTDiTuceyB8RfWa6v57We+Y6r+rf2kr/Fnl7Y3w57wEPwAAHAIOivDnko3NFx1eb7m82wHs7JJLNj51ebeBA+aSzc2Nhwh7ADjArlq9rrpH9cWlsp9rhD8frH5pqez4xoiYY/Z3A9c4obp9I3zaGxc0phlbhD/nVG/c5vy3Vd+/t43bBx+ePhvVaQfgfjv582l7btuHOMvOr17VCAx/eJvzfqx6evXufWodAAAAAACw1jNbP9LkC41RGeesKT+tetR+aNOe+I3q9H2se0bjuTarO+5w7pHV6/fxPvvi5LbadpMDeN91Xt9oy96GbDdp6zlOvqwbBQAAB5vDLu8GAAAAzHy43ddj2VNvakzxdaDdoEu3TtGX9uLcL1a/dynutbcOxBRze+Oz+1jvYHsOAADYr4Q/AADAweRJl6Lu+dXTLquG7KGrVWc2pqs7UF5xAO918QG8157Y1/YcbM8BAAD71UGx5g8AAMB+sBiRc7tGOPOx6uXVC9oKA76xuvOKuu+fzr1ldbelsic3Ruvconphdavp+HzKtr+t/vpSP8GuHlo9q9WjWG5a/Uh1bPWD07F7VvetrlO9tXpC9Ymp7CrVT1SnVFeq3lA9cc215zama96/ukb1r9VT2n601qIfbtsIyz7eeLfPb30oc/XGGj3fMe1/oD2f6u2bpronTtc/t3rJDnVuOrXx2OrBS2XHVPervq/xbj9YfV2jP25efagRWr59m+uf1Oif61dHVZ9shHh/Wl2yps4J1c9U3zB9P296ljtXD9zheQAAAAAA4AphpzV/5h7cCDp+qvqWRhjwH1P9N1RHT+ddtbpLI+xZrAlzbnXdqfxq1bNn9W49u8cZjR/9/3cqP3v6/qTpmnvqUe3Zmj/ntPsIo1Omdl0y1X9zdeXGaKT/qi6YXfu9jXDjBo2w5jONsGdR/mcr7nnrWfktqpfOvi8+n28EQqs8sNEPP9Pohx9qBB+LfjxmRZ3bVP9e/X11++pajWDmf6c2b7fmz+MbU+M9trphI5x52aze8po/d2/02+L9/c2s7ITGFHv/M6t7YiM0+0L1f7Pjn26811V+sREW/mxj9o2jqt+e6l3Y6KMLqo+01b9f03hvj6muWV17uu+F1efW3AcAAAAAAK5w9jT8ObXxA/mtlo7fshEMbFbPXCq7XmPauM1pOw8lXlW9sTFCZpWPTPVO36Fd62wX/hzZGLnz8Kl8Ofy5UXXj6t+m8rdVf1TduxE0bDSCl8X1n9h4f/esDm/MBvGYbe4/D39e13gXp1R3qp7RVmjy+XZ/33efjp+0dPwWbfXlc5bKrl99qjFS6cpLZfeatWVV+POwqewnl45vVH/V6vDnxtNn0Yfz8OfYqex3ZnWfXj2vEc5U3aGxDtFmq6ccPG0qe9PS8cMaIeNm9XeNUUH3bWtq9hc2+nLZgxL+AAAAAABwCNmT8OfI6qPVc9eUv226xheq45bKTm3rR/7fmo7dZ7reV2xzz8sy/Nnps25toZdP5R9rjBJZ9r6p/D2NkTRzR1T/PZU/YqlsHv48ohGkzP30rHy+FtERjUDq+Wva+5apzher42fHXzsdv+uKOhvVh1sd/tysETS9b0UbawRRq8KfhVe2e/izcJd2fQfLXtxW8Lbsn9oK3ZadPpV9pt1HQL2/MfrpyKXjhzWeEQAAtnXYzqcAAABcYdyl+urGNFv3XvFZjJo4srHez9yrqz+Y9n+6MTrmdxvrvfznfm31ljs1wovF50qNkT+PbAQF63xm2n6osabOsvdM23c2pr+bu7gRcNXugdjcmSva8LvVP0z7d2tMaVZjrZ7rTtde1Q+fn847oq1++KZG6HNR9foV999srHuzyunTvV+zoo21/Xo8tfX+Vpmvg/TKFeWLd3v80vHDqq+f9i9cUe+D0/boxgij5bonNEZxzYOhS6pHb9NWAACoxj+0AQAADhW3m7ZHtzU119yrpk+NETvLHlrdubF+y8sb0629+TJu4974QmMEyK82Riat89kdrrMIN1aNipnXXze13Tqb1R9X39yYpu1GjYBpp344a/rUGCFU9b3T9v2N0GiVL644dkQjqKt695p66663sN37u2ibshprAtXu09RtNsLGoxtBzrILZvvL/zc/qxFAfn/1bY2RQ89prDP0kh3aAwAAwh8AAOCQsviR/ezqWftQ/8LqBxpTyx3W3och+9PZrR/986UD2ZAl75rtX23aLvrhjY11cvbEbabtTkHWsq+d3Xdv6y5s9/52erfr+mSz8fyntDUCaG7xji6o/mWp7OGN9Y9Orb6yse7Qw6szqmc3RgABAMBapn0DAAAOJYuw5maX8hqLESaPbExHdjD4pbafnuzyMg9cPj1t96UfFlPOHb2X97/GbH9v6+5vj2qM1rltYwTP3P2n7S+0NQ3ewmer767u29bIqGtVz2hMbXeV/dFYAAAOHcIfAADgULKYSuvubf//neMbP6Yvu3b13Mb6Nec1Zkt4fvVll10TLxPHVVe9vBsxWbTj821Npbfoh+9q+344rvqqaX8RIn3NDnVaKp8HYstr56yybuq7/eFtjfWPPtqYbvBRjTWk/rQxGujBjXV9VtmsXlbdtHpYW9PL3W26DgAArCX8AQAADiXnTtsbVg/a5rxfbGukycLh1YsbU2ydXT2gsebOTapfv2ybeak9pzry8m7EZDG65w1trY+z6IcbVD+4Td2HVdeb9t85bY+p7rDDPefr67yvrZFa37lTY9t9bZ797fjqvdXtq3dM939qdd3WBz9PmO1/rnpydVLjWavus19aCgDAIUP4AwAAXBFsNMKZ2j70eHXjx/IaP7DfbcU5Jzem4HrX0vFfaYw+efL0/Z+nY1UPaX2wsFgTZl+n4pqvK3T42rO23Geqc8Hs2GFL22Ubl7J8O6dN21+dHTurMd1ZjTDtlBX17tgYGfSP0/dXzMoe3fYjdObv+jPVX077J1b32qG9q/ppu/e3sWZ/3TXm7lD9SfVzjb+nVzQCn7Pb+jtd5XurY5eOfagRltXBNxINAAAAAAD22jUa02BtVu/e4dzHzc69pPrjxiigB1TPboQSJy/VeUBjWq3rLB0/svrX6Vr/0dYUZXNvmcrf0AhvTqiesgfPtPCcWXu/Z4dz79QIO+6/dPzMqf5719Q7ayp/05ryf57Kz1w6futZ2+66ot4PTGVPWlF2Rrv2w5lt9cOzGv0wXwdno/rrWZ1nVkfNyr+10QebjXVwjmwrCLxNY5TWZqMf5/17ePUbs+s+ejo+DxFfOZW9f8Vz3GlW944ryk+fyr601N6qv5rK/rL6yeqB1b2rb6++uRFWrQpyPlr9/orjt52u9+IVZQAAAAAAcIVxVPVr7RoknNr6URhHVC+anb/8eczS+ac21qv5h3YdhdN0j/m13truAdFjZ+Ufrz5R3WgPn+3ERpCxqH9eI5w4fenz2Oo1jYDhonZd7+fa1b9P9T/XWEtm7vrVJ6fy89t9XZxbTtfcbKzZM3++a1Z/M5Vd1Fhr5gaNqcx+oTHd2hNa3ReHN9ZLWtcPj1tR54RGuLc454ONwO4V1T/N2rIIan5+VveB1cVtBTF/UT298U6f2a5/P69t6z1du9Fvm42/g1vPrrlRPW1W99fbNTS6SmMUz6L8tKV38fvbPP/ic9HUzvmIpI9OZc+orj4dO3Zq90caU8YBAMBaB3KhSwAAgL31oMaojiNWlP1f9arGj+/LNqr7NaZrO2n6fm71m+06vdhJ1Y/Nvp9fPWL2/cfbPUyp+sNGWFQjnHp0YzTHexpTxa0aQTJ3w+pH231qrz3x7rZGFt2juvuKcz7RGHnzkOrr2nVKss3G+jpPbQQ4y2FQjaDprGl/ozE924Oq21XXaoRJ50zteMs2bd2o7ju14xva6offql6+ps6x1SMbU5+d0AhCXtKYVu4F1Vc3wpKXtvvUabdtBFR3aIRPb62eON3zA1OdpzeCpKp7tno6v/Omc3+5sQbR3MWNd3edxvtfXkPoU1P7a7z3cxpT9G00gpz5Zz7q5ymN6eFqTA338UYQdatGQPTZ6nXTe/j0ijYDAAAAAACwn/1UI7Ba50rVzas/aIRTAAAAAAAAHKRObowSutYenHvz6u37tzkAAAAAAADsq43GekUXN9YU2skzqofu1xYBAAAAAACwz46q/qexvtL7GuseLa8dVHXTxrRwr271ulYAAAAAAAAcJL6t+mQjAFp8zq/e0QiELqo+Vz0+wQ8AAJexjcu7AQAAAHCIOqa6X/Wd1YnT9wurj1RvrJ5Xfexyax0AAAAAAAAAAAAAAAAAAAAAAAAAAAAAAAAAAAAAAAAAAAAAAAAAAAAAAAAAAAAAAAAAAAAAAAAAAAAAAAAAAAAAAAAAAAAAAAAAAAAAAAAAAAAAAAAAAAAAAAAAAAAAAAAAAAAAAAAAAAAAAAAAAAAAAAAAAAAAAAAAAAAAAAAAAAAAAAAAAAAAAAAAAAAAAAAAAAAAAAAAAAAAAAAAAAAAAAAAAAAAAAAAAAAAAAAAAAAAAAAAAAAAAAAAAAAAAAAAAAAAAAAAAAAAAAAAAAAAAAAAAAAAAAAAAAAAAAAAAAAAAAAAAAAAAAAAAAAAAAAAAAAAAAAAAAAAAAAAAAAAAAAAAAAAAAAAAAAAAAAAAAAAAAAAAAAAAAAAAAAAAAAAAAAAAAAAAAAAAAAAAAAAAAAAAAAAAAAAAAAAAAAAAAAAAAAAAAAAAAAAAAAAAAAAAAAAAAAAAAAAAAAAAAAAAAAAAMD2/h+mYqBQQ7EGhQAAAABJRU5ErkJggg==;" parent="-BY8og7d7RIhDKnmFJPZ-23" vertex="1">
          <mxGeometry x="323.61" width="1663" height="535" as="geometry" />
        </mxCell>
        <mxCell id="-BY8og7d7RIhDKnmFJPZ-7" value="" style="group" vertex="1" connectable="0" parent="-BY8og7d7RIhDKnmFJPZ-23">
          <mxGeometry y="70" width="260" height="110" as="geometry" />
        </mxCell>
        <UserObject label="&lt;font style=&quot;font-size: 17px;&quot;&gt;Augemented Audios Batches&lt;/font&gt;" id="-BY8og7d7RIhDKnmFJPZ-5">
          <mxCell style="verticalLabelPosition=bottom;verticalAlign=top;html=1;shape=mxgraph.basic.layered_rect;dx=10;outlineConnect=0;whiteSpace=wrap;direction=west;strokeColor=#33FFFF;strokeWidth=3;" vertex="1" parent="-BY8og7d7RIhDKnmFJPZ-7">
            <mxGeometry width="260.00000000000006" height="110.00000000000001" as="geometry" />
          </mxCell>
        </UserObject>
        <mxCell id="-BY8og7d7RIhDKnmFJPZ-6" value="" style="shape=image;verticalLabelPosition=bottom;labelBackgroundColor=default;verticalAlign=top;aspect=fixed;imageAspect=0;editableCssRules=.*;image=data:image/svg+xml,PHN2ZyB4bWxucz0iaHR0cDovL3d3dy53My5vcmcvMjAwMC9zdmciIHZpZXdCb3g9IjAgMCA1NiA1NiIgaGVpZ2h0PSI4MDBweCIgd2lkdGg9IjgwMHB4IiBmaWxsPSIjMDAwMDAwIj48cGF0aCBkPSJNIDI0LjU4OTggNDkuNTc0MiBDIDI1LjU1MDggNDkuNTc0MiAyNi4yNTM5IDQ4Ljg0NzcgMjYuMjUzOSA0Ny45MzM2IEwgMjYuMjUzOSA4LjA2NjQgQyAyNi4yNTM5IDcuMTUyNCAyNS41NTA4IDYuNDI1OCAyNC41ODk4IDYuNDI1OCBDIDIzLjY1MjQgNi40MjU4IDIyLjk0OTIgNy4xNTI0IDIyLjk0OTIgOC4wNjY0IEwgMjIuOTQ5MiA0Ny45MzM2IEMgMjIuOTQ5MiA0OC44NDc3IDIzLjY1MjQgNDkuNTc0MiAyNC41ODk4IDQ5LjU3NDIgWiBNIDM4LjIzMDUgNDQuODg2NyBDIDM5LjE2ODAgNDQuODg2NyAzOS44NzExIDQ0LjEzNjcgMzkuODcxMSA0My4yMjI3IEwgMzkuODcxMSAxMi43NzczIEMgMzkuODcxMSAxMS44NjMzIDM5LjE2ODAgMTEuMTEzMyAzOC4yMzA1IDExLjExMzMgQyAzNy4yOTMwIDExLjExMzMgMzYuNTY2NCAxMS44NjMzIDM2LjU2NjQgMTIuNzc3MyBMIDM2LjU2NjQgNDMuMjIyNyBDIDM2LjU2NjQgNDQuMTM2NyAzNy4yOTMwIDQ0Ljg4NjcgMzguMjMwNSA0NC44ODY3IFogTSAxNy43OTMwIDQxLjA4OTggQyAxOC43MzA1IDQxLjA4OTggMTkuNDMzNiA0MC4zNjMzIDE5LjQzMzYgMzkuNDQ5MiBMIDE5LjQzMzYgMTYuNTUwOCBDIDE5LjQzMzYgMTUuNjM2NyAxOC43MzA1IDE0LjkxMDIgMTcuNzkzMCAxNC45MTAyIEMgMTYuODMyMCAxNC45MTAyIDE2LjEyODkgMTUuNjM2NyAxNi4xMjg5IDE2LjU1MDggTCAxNi4xMjg5IDM5LjQ0OTIgQyAxNi4xMjg5IDQwLjM2MzMgMTYuODMyMCA0MS4wODk4IDE3Ljc5MzAgNDEuMDg5OCBaIE0gMzEuNDEwMiAzOC41NTg2IEMgMzIuMzQ3NiAzOC41NTg2IDMzLjA3NDIgMzcuODMyMCAzMy4wNzQyIDM2LjkxODAgTCAzMy4wNzQyIDE5LjA4MjAgQyAzMy4wNzQyIDE4LjE2ODAgMzIuMzQ3NiAxNy40NDE0IDMxLjQxMDIgMTcuNDQxNCBDIDMwLjQ3MjcgMTcuNDQxNCAyOS43Njk1IDE4LjE2ODAgMjkuNzY5NSAxOS4wODIwIEwgMjkuNzY5NSAzNi45MTgwIEMgMjkuNzY5NSAzNy44MzIwIDMwLjQ3MjcgMzguNTU4NiAzMS40MTAyIDM4LjU1ODYgWiBNIDQ1LjA1MDggMzQuMzYzMyBDIDQ1Ljk4ODMgMzQuMzYzMyA0Ni42OTE0IDMzLjYxMzMgNDYuNjkxNCAzMi42OTkyIEwgNDYuNjkxNCAyMy4zMDA4IEMgNDYuNjkxNCAyMi4zODY3IDQ1Ljk4ODMgMjEuNjM2NyA0NS4wNTA4IDIxLjYzNjcgQyA0NC4wODk4IDIxLjYzNjcgNDMuMzg2NyAyMi4zODY3IDQzLjM4NjcgMjMuMzAwOCBMIDQzLjM4NjcgMzIuNjk5MiBDIDQzLjM4NjcgMzMuNjEzMyA0NC4wODk4IDM0LjM2MzMgNDUuMDUwOCAzNC4zNjMzIFogTSAxMC45NzI3IDMyLjUxMTcgQyAxMS45MTAyIDMyLjUxMTcgMTIuNjEzMyAzMS43ODUxIDEyLjYxMzMgMzAuODcxMSBMIDEyLjYxMzMgMjUuMTI4OSBDIDEyLjYxMzMgMjQuMjE0OSAxMS45MTAyIDIzLjQ4ODMgMTAuOTcyNyAyMy40ODgzIEMgMTAuMDExNyAyMy40ODgzIDkuMzA4NiAyNC4yMTQ5IDkuMzA4NiAyNS4xMjg5IEwgOS4zMDg2IDMwLjg3MTEgQyA5LjMwODYgMzEuNzg1MSAxMC4wMTE3IDMyLjUxMTcgMTAuOTcyNyAzMi41MTE3IFoiLz48L3N2Zz4=;" vertex="1" parent="-BY8og7d7RIhDKnmFJPZ-7">
          <mxGeometry x="86.67" y="12.22" width="97.78" height="97.78" as="geometry" />
        </mxCell>
        <mxCell id="-BY8og7d7RIhDKnmFJPZ-22" style="edgeStyle=orthogonalEdgeStyle;rounded=0;orthogonalLoop=1;jettySize=auto;html=1;exitX=0;exitY=0;exitDx=0;exitDy=50;exitPerimeter=0;entryX=0.004;entryY=0.243;entryDx=0;entryDy=0;entryPerimeter=0;fontColor=#FFD966;strokeColor=#33FFFF;strokeWidth=5;" edge="1" parent="-BY8og7d7RIhDKnmFJPZ-23" source="-BY8og7d7RIhDKnmFJPZ-5" target="MBGT6i08vJ9F1OoKceW--2">
          <mxGeometry relative="1" as="geometry" />
        </mxCell>
      </root>
    </mxGraphModel>
  </diagram>
</mxfile>
